<mxfile modified="2020-09-06T11:56:03.491Z" host="app.diagrams.net" agent="5.0 (X11)" etag="Qfohdp3IjkmfKSv-CuuQ" version="13.6.6" type="github">
  <diagram id="Ht1M8jgEwFfnCIfOTk4-" name="Page-1">
    <mxGraphModel dx="1422" dy="772" grid="1" gridSize="10" guides="1" tooltips="1" connect="1" arrows="1" fold="1" page="1" pageScale="1" pageWidth="1169" pageHeight="827" background="#ffffff" math="0" shadow="0">
      <root>
        <mxCell id="0" />
        <mxCell id="1" parent="0" />
        <mxCell id="gX3DpapFzDHd5gNG7aPb-111" style="edgeStyle=orthogonalEdgeStyle;orthogonalLoop=1;jettySize=auto;html=1;entryX=0.5;entryY=0;entryDx=0;entryDy=0;strokeColor=#b85450;fontColor=#46495D;curved=1;fillColor=#f8cecc;" edge="1" parent="1" source="gX3DpapFzDHd5gNG7aPb-22" target="gX3DpapFzDHd5gNG7aPb-23">
          <mxGeometry relative="1" as="geometry" />
        </mxCell>
        <mxCell id="gX3DpapFzDHd5gNG7aPb-92" style="edgeStyle=orthogonalEdgeStyle;orthogonalLoop=1;jettySize=auto;html=1;entryX=1;entryY=0.5;entryDx=0;entryDy=0;strokeColor=#d6b656;fontColor=#46495D;curved=1;fillColor=#fff2cc;" edge="1" parent="1" source="gX3DpapFzDHd5gNG7aPb-25" target="gX3DpapFzDHd5gNG7aPb-43">
          <mxGeometry relative="1" as="geometry" />
        </mxCell>
        <mxCell id="gX3DpapFzDHd5gNG7aPb-90" style="edgeStyle=orthogonalEdgeStyle;orthogonalLoop=1;jettySize=auto;html=1;strokeColor=#d6b656;fontColor=#46495D;curved=1;fillColor=#fff2cc;" edge="1" parent="1" source="gX3DpapFzDHd5gNG7aPb-43" target="gX3DpapFzDHd5gNG7aPb-44">
          <mxGeometry relative="1" as="geometry">
            <Array as="points">
              <mxPoint x="270" y="464" />
              <mxPoint x="270" y="354" />
            </Array>
          </mxGeometry>
        </mxCell>
        <mxCell id="gX3DpapFzDHd5gNG7aPb-91" style="edgeStyle=orthogonalEdgeStyle;orthogonalLoop=1;jettySize=auto;html=1;entryX=0;entryY=0.5;entryDx=0;entryDy=0;strokeColor=#d6b656;fontColor=#46495D;curved=1;fillColor=#fff2cc;" edge="1" parent="1" source="gX3DpapFzDHd5gNG7aPb-43" target="gX3DpapFzDHd5gNG7aPb-25">
          <mxGeometry relative="1" as="geometry">
            <Array as="points">
              <mxPoint x="270" y="464" />
              <mxPoint x="270" y="594" />
            </Array>
          </mxGeometry>
        </mxCell>
        <mxCell id="gX3DpapFzDHd5gNG7aPb-95" style="edgeStyle=orthogonalEdgeStyle;orthogonalLoop=1;jettySize=auto;html=1;entryX=0.5;entryY=0;entryDx=0;entryDy=0;strokeColor=#b85450;fontColor=#46495D;fillColor=#f8cecc;curved=1;" edge="1" parent="1" source="gX3DpapFzDHd5gNG7aPb-33" target="gX3DpapFzDHd5gNG7aPb-44">
          <mxGeometry relative="1" as="geometry">
            <Array as="points">
              <mxPoint x="385" y="234" />
            </Array>
          </mxGeometry>
        </mxCell>
        <mxCell id="gX3DpapFzDHd5gNG7aPb-97" style="edgeStyle=orthogonalEdgeStyle;orthogonalLoop=1;jettySize=auto;html=1;entryX=0.5;entryY=0;entryDx=0;entryDy=0;strokeColor=#b85450;fontColor=#46495D;fillColor=#f8cecc;shadow=0;sketch=1;curved=1;" edge="1" parent="1" source="gX3DpapFzDHd5gNG7aPb-33" target="gX3DpapFzDHd5gNG7aPb-25">
          <mxGeometry relative="1" as="geometry">
            <mxPoint x="465" y="494" as="targetPoint" />
            <Array as="points">
              <mxPoint x="505" y="234" />
              <mxPoint x="505" y="484" />
              <mxPoint x="385" y="484" />
            </Array>
          </mxGeometry>
        </mxCell>
        <mxCell id="gX3DpapFzDHd5gNG7aPb-99" style="edgeStyle=orthogonalEdgeStyle;orthogonalLoop=1;jettySize=auto;html=1;entryX=0;entryY=0.5;entryDx=0;entryDy=0;strokeColor=#b85450;fontColor=#46495D;fillColor=#f8cecc;shadow=0;sketch=1;curved=1;" edge="1" parent="1" source="gX3DpapFzDHd5gNG7aPb-44" target="gX3DpapFzDHd5gNG7aPb-33">
          <mxGeometry relative="1" as="geometry">
            <Array as="points">
              <mxPoint x="385" y="234" />
            </Array>
          </mxGeometry>
        </mxCell>
        <mxCell id="gX3DpapFzDHd5gNG7aPb-102" style="edgeStyle=orthogonalEdgeStyle;orthogonalLoop=1;jettySize=auto;html=1;entryX=1;entryY=0.5;entryDx=0;entryDy=0;strokeColor=#788AA3;fontColor=#46495D;curved=1;" edge="1" parent="1" source="gX3DpapFzDHd5gNG7aPb-42" target="gX3DpapFzDHd5gNG7aPb-44">
          <mxGeometry relative="1" as="geometry" />
        </mxCell>
        <mxCell id="gX3DpapFzDHd5gNG7aPb-101" style="edgeStyle=orthogonalEdgeStyle;orthogonalLoop=1;jettySize=auto;html=1;strokeColor=#788AA3;fontColor=#46495D;curved=1;" edge="1" parent="1" source="gX3DpapFzDHd5gNG7aPb-25">
          <mxGeometry relative="1" as="geometry">
            <mxPoint x="715" y="464" as="targetPoint" />
            <Array as="points">
              <mxPoint x="585" y="594" />
              <mxPoint x="585" y="464" />
            </Array>
          </mxGeometry>
        </mxCell>
        <mxCell id="gX3DpapFzDHd5gNG7aPb-105" style="edgeStyle=orthogonalEdgeStyle;orthogonalLoop=1;jettySize=auto;html=1;entryX=0;entryY=0.5;entryDx=0;entryDy=0;strokeColor=#788AA3;fontColor=#46495D;curved=1;" edge="1" parent="1" source="gX3DpapFzDHd5gNG7aPb-42" target="gX3DpapFzDHd5gNG7aPb-23">
          <mxGeometry relative="1" as="geometry" />
        </mxCell>
        <mxCell id="gX3DpapFzDHd5gNG7aPb-103" style="edgeStyle=orthogonalEdgeStyle;orthogonalLoop=1;jettySize=auto;html=1;entryX=1;entryY=0.5;entryDx=0;entryDy=0;strokeColor=#6c8ebf;fontColor=#46495D;curved=1;fillColor=#dae8fc;" edge="1" parent="1" source="gX3DpapFzDHd5gNG7aPb-42" target="gX3DpapFzDHd5gNG7aPb-25">
          <mxGeometry relative="1" as="geometry" />
        </mxCell>
        <mxCell id="gX3DpapFzDHd5gNG7aPb-109" style="edgeStyle=orthogonalEdgeStyle;orthogonalLoop=1;jettySize=auto;html=1;strokeColor=#b85450;fontColor=#46495D;curved=1;fillColor=#f8cecc;" edge="1" parent="1" source="gX3DpapFzDHd5gNG7aPb-23">
          <mxGeometry relative="1" as="geometry">
            <mxPoint x="995" y="414" as="targetPoint" />
          </mxGeometry>
        </mxCell>
        <mxCell id="gX3DpapFzDHd5gNG7aPb-93" style="edgeStyle=orthogonalEdgeStyle;orthogonalLoop=1;jettySize=auto;html=1;entryX=1;entryY=0.5;entryDx=0;entryDy=0;strokeColor=#d6b656;fontColor=#46495D;curved=1;fillColor=#fff2cc;" edge="1" parent="1" source="gX3DpapFzDHd5gNG7aPb-44" target="gX3DpapFzDHd5gNG7aPb-43">
          <mxGeometry relative="1" as="geometry" />
        </mxCell>
        <mxCell id="gX3DpapFzDHd5gNG7aPb-44" value="&lt;font face=&quot;Comic Sans MS&quot;&gt;&lt;b&gt;HTTP Server 2&lt;br&gt;&lt;/b&gt;&lt;/font&gt;" style="points=[[0,0],[0.25,0],[0.5,0],[0.75,0],[1,0],[1,0.25],[1,0.5],[1,0.75],[1,1],[0.75,1],[0.5,1],[0.25,1],[0,1],[0,0.75],[0,0.5],[0,0.25]];outlineConnect=0;html=1;whiteSpace=wrap;fontSize=12;fontStyle=0;shape=mxgraph.aws4.group;grIcon=mxgraph.aws4.group_on_premise;fillColor=none;verticalAlign=top;align=left;spacingLeft=30;dashed=0;strokeColor=#788AA3;fontColor=#46495D;" vertex="1" parent="1">
          <mxGeometry x="315" y="294" width="140" height="120" as="geometry" />
        </mxCell>
        <mxCell id="gX3DpapFzDHd5gNG7aPb-107" style="edgeStyle=orthogonalEdgeStyle;orthogonalLoop=1;jettySize=auto;html=1;entryX=1;entryY=0.5;entryDx=0;entryDy=0;strokeColor=#788AA3;fontColor=#46495D;curved=1;" edge="1" parent="1" source="gX3DpapFzDHd5gNG7aPb-22" target="gX3DpapFzDHd5gNG7aPb-42">
          <mxGeometry relative="1" as="geometry" />
        </mxCell>
        <mxCell id="gX3DpapFzDHd5gNG7aPb-22" value="&lt;font face=&quot;Comic Sans MS&quot;&gt;&lt;b&gt;MySQL Server1&lt;/b&gt;&lt;/font&gt;" style="points=[[0,0],[0.25,0],[0.5,0],[0.75,0],[1,0],[1,0.25],[1,0.5],[1,0.75],[1,1],[0.75,1],[0.5,1],[0.25,1],[0,1],[0,0.75],[0,0.5],[0,0.25]];outlineConnect=0;html=1;whiteSpace=wrap;fontSize=12;fontStyle=0;shape=mxgraph.aws4.group;grIcon=mxgraph.aws4.group_on_premise;fillColor=none;verticalAlign=top;align=center;spacingLeft=30;dashed=0;strokeColor=#788AA3;fontColor=#46495D;" vertex="1" parent="1">
          <mxGeometry x="925" y="294" width="140" height="120" as="geometry" />
        </mxCell>
        <mxCell id="gX3DpapFzDHd5gNG7aPb-106" style="edgeStyle=orthogonalEdgeStyle;orthogonalLoop=1;jettySize=auto;html=1;entryX=1;entryY=0.5;entryDx=0;entryDy=0;strokeColor=#6c8ebf;fontColor=#46495D;curved=1;fillColor=#dae8fc;" edge="1" parent="1" source="gX3DpapFzDHd5gNG7aPb-23" target="gX3DpapFzDHd5gNG7aPb-42">
          <mxGeometry relative="1" as="geometry" />
        </mxCell>
        <mxCell id="gX3DpapFzDHd5gNG7aPb-23" value="&lt;font face=&quot;Comic Sans MS&quot;&gt;&lt;b&gt;MySQL Server2&lt;/b&gt;&lt;/font&gt;" style="points=[[0,0],[0.25,0],[0.5,0],[0.75,0],[1,0],[1,0.25],[1,0.5],[1,0.75],[1,1],[0.75,1],[0.5,1],[0.25,1],[0,1],[0,0.75],[0,0.5],[0,0.25]];outlineConnect=0;html=1;whiteSpace=wrap;fontSize=12;fontStyle=0;shape=mxgraph.aws4.group;grIcon=mxgraph.aws4.group_on_premise;fillColor=none;verticalAlign=top;align=left;spacingLeft=30;dashed=0;strokeColor=#788AA3;fontColor=#46495D;" vertex="1" parent="1">
          <mxGeometry x="925" y="534" width="140" height="120" as="geometry" />
        </mxCell>
        <mxCell id="gX3DpapFzDHd5gNG7aPb-25" value="&lt;div align=&quot;center&quot;&gt;&lt;font face=&quot;Comic Sans MS&quot;&gt;&lt;b&gt;HTTP Server 1&lt;/b&gt;&lt;/font&gt;&lt;br&gt;&lt;/div&gt;" style="points=[[0,0],[0.25,0],[0.5,0],[0.75,0],[1,0],[1,0.25],[1,0.5],[1,0.75],[1,1],[0.75,1],[0.5,1],[0.25,1],[0,1],[0,0.75],[0,0.5],[0,0.25]];outlineConnect=0;html=1;whiteSpace=wrap;fontSize=12;fontStyle=0;shape=mxgraph.aws4.group;grIcon=mxgraph.aws4.group_on_premise;fillColor=none;verticalAlign=top;align=center;spacingLeft=30;dashed=0;strokeColor=#788AA3;fontColor=#46495D;" vertex="1" parent="1">
          <mxGeometry x="315" y="534" width="140" height="120" as="geometry" />
        </mxCell>
        <mxCell id="gX3DpapFzDHd5gNG7aPb-29" value="" style="shape=image;html=1;verticalAlign=top;verticalLabelPosition=bottom;imageAspect=0;aspect=fixed;image=https://cdn4.iconfinder.com/data/icons/logos-3/426/mysql-128.png;fillColor=#B2C9AB;strokeColor=#788AA3;fontColor=#46495D;" vertex="1" parent="1">
          <mxGeometry x="955" y="559.2" width="80" height="80" as="geometry" />
        </mxCell>
        <mxCell id="gX3DpapFzDHd5gNG7aPb-30" value="" style="shape=image;html=1;verticalAlign=top;verticalLabelPosition=bottom;imageAspect=0;aspect=fixed;image=https://cdn4.iconfinder.com/data/icons/logos-3/426/mysql-128.png;fillColor=#B2C9AB;strokeColor=#788AA3;fontColor=#46495D;" vertex="1" parent="1">
          <mxGeometry x="955" y="324" width="80" height="80" as="geometry" />
        </mxCell>
        <mxCell id="gX3DpapFzDHd5gNG7aPb-33" value="&lt;div align=&quot;center&quot;&gt;&lt;font face=&quot;Comic Sans MS&quot;&gt;&lt;b&gt;NFS Server&lt;/b&gt;&lt;/font&gt;&lt;/div&gt;" style="points=[[0,0],[0.25,0],[0.5,0],[0.75,0],[1,0],[1,0.25],[1,0.5],[1,0.75],[1,1],[0.75,1],[0.5,1],[0.25,1],[0,1],[0,0.75],[0,0.5],[0,0.25]];outlineConnect=0;html=1;whiteSpace=wrap;fontSize=12;fontStyle=0;shape=mxgraph.aws4.group;grIcon=mxgraph.aws4.group_on_premise;fillColor=none;verticalAlign=top;align=center;spacingLeft=30;dashed=0;strokeColor=#788AA3;fontColor=#46495D;" vertex="1" parent="1">
          <mxGeometry x="555" y="174" width="120" height="120" as="geometry" />
        </mxCell>
        <mxCell id="gX3DpapFzDHd5gNG7aPb-34" value="&lt;div&gt;&lt;font face=&quot;Comic Sans MS&quot;&gt;&lt;b&gt;PrestaShop&lt;/b&gt;&lt;/font&gt;&lt;/div&gt;" style="shape=image;html=1;verticalAlign=top;verticalLabelPosition=bottom;imageAspect=0;aspect=fixed;image=https://cdn4.iconfinder.com/data/icons/logos-3/295/PrestaShop-icon-logo-128.png;fillColor=#B2C9AB;strokeColor=#788AA3;fontColor=#46495D;" vertex="1" parent="1">
          <mxGeometry x="590" y="209" width="50" height="50" as="geometry" />
        </mxCell>
        <mxCell id="gX3DpapFzDHd5gNG7aPb-104" style="edgeStyle=orthogonalEdgeStyle;orthogonalLoop=1;jettySize=auto;html=1;strokeColor=#6c8ebf;fontColor=#46495D;curved=1;fillColor=#dae8fc;" edge="1" parent="1" source="gX3DpapFzDHd5gNG7aPb-42" target="gX3DpapFzDHd5gNG7aPb-22">
          <mxGeometry relative="1" as="geometry" />
        </mxCell>
        <mxCell id="gX3DpapFzDHd5gNG7aPb-42" value="&lt;div style=&quot;font-size: 11px&quot; align=&quot;center&quot;&gt;&lt;b&gt;&lt;font style=&quot;font-size: 11px&quot; face=&quot;Comic Sans MS&quot;&gt;Reverse MySQL Proxy&lt;/font&gt;&lt;/b&gt;&lt;/div&gt;" style="points=[[0,0],[0.25,0],[0.5,0],[0.75,0],[1,0],[1,0.25],[1,0.5],[1,0.75],[1,1],[0.75,1],[0.5,1],[0.25,1],[0,1],[0,0.75],[0,0.5],[0,0.25]];outlineConnect=0;html=1;whiteSpace=wrap;fontSize=12;fontStyle=0;shape=mxgraph.aws4.group;grIcon=mxgraph.aws4.group_on_premise;fillColor=none;verticalAlign=top;align=center;spacingLeft=30;dashed=0;strokeColor=#788AA3;fontColor=#46495D;" vertex="1" parent="1">
          <mxGeometry x="715" y="414" width="120" height="100" as="geometry" />
        </mxCell>
        <mxCell id="gX3DpapFzDHd5gNG7aPb-43" value="&lt;div style=&quot;font-size: 11px&quot; align=&quot;center&quot;&gt;&lt;font style=&quot;font-size: 11px&quot;&gt;&lt;b&gt;&lt;font style=&quot;font-size: 11px&quot; face=&quot;Comic Sans MS&quot;&gt;Reverse &lt;br&gt;HTTP Proxy&lt;br&gt;&lt;/font&gt;&lt;/b&gt;&lt;/font&gt;&lt;/div&gt;" style="points=[[0,0],[0.25,0],[0.5,0],[0.75,0],[1,0],[1,0.25],[1,0.5],[1,0.75],[1,1],[0.75,1],[0.5,1],[0.25,1],[0,1],[0,0.75],[0,0.5],[0,0.25]];outlineConnect=0;html=1;whiteSpace=wrap;fontSize=12;fontStyle=0;shape=mxgraph.aws4.group;grIcon=mxgraph.aws4.group_on_premise;fillColor=none;verticalAlign=top;align=center;spacingLeft=30;dashed=0;strokeColor=#788AA3;fontColor=#46495D;" vertex="1" parent="1">
          <mxGeometry x="105" y="414" width="120" height="100" as="geometry" />
        </mxCell>
        <mxCell id="gX3DpapFzDHd5gNG7aPb-85" value="" style="dashed=0;outlineConnect=0;html=1;align=center;labelPosition=center;verticalLabelPosition=bottom;verticalAlign=top;shape=mxgraph.weblogos.apache;fillColor=#B2C9AB;strokeColor=#788AA3;fontColor=#46495D;" vertex="1" parent="1">
          <mxGeometry x="363.7" y="556.5999999999999" width="42.6" height="85.2" as="geometry" />
        </mxCell>
        <mxCell id="gX3DpapFzDHd5gNG7aPb-87" value="" style="shape=image;verticalLabelPosition=bottom;verticalAlign=top;aspect=fixed;imageAspect=0;image=data:image/png,iVBORw0KGgoAAAANSUhEUgAAASwAAADoCAYAAABVc9ljAAAgAElEQVR4nOy9d7BlR3of9utzc3j35TjhzZscgcEMgEXGYgFs0u6KcaWy5ZXFtWipyCItOoiyLZVEk+aSrCLLrJJdsi2askiLohl2axOx2F3sYpHDAIPJ6c2b9HK8791872n/ccLt0/frcB+wsl3FRg3uOd1ff6m/7+uv+53Th7muyyEVxhgAgHMOxpjVb9AvuJbv5TaKpggbFLmPSFeG0dGg8Ov6UbKo+tjIJsuiqjPB6PAHsDr96fiyHSOdLm34VNmPqe+PE17mj8JFwVLwqn4q+eU6G9rdjpOu2MCrZAl4l2Eo25LhdfLJcGEbV3AoG76uUE4i99XVUQNH0RCF6ZZXlXHo6nTyqXjplh8dXR28DVxQTAGN0r3t2JjGfju6COpE3lWGb0PLRicyLZ2DqWjZ2LENTjkA2PgWJZNNEmBjUyoaKrjt6FY3zmI/ZcD66/IfpnQzMfx1+esilv+/2s6H4dsJEIi/8jV1r4Kh/lG4dW0211RfkwyqOlU/VZ0Njza4qYxCN3+Y5On2msJjo79uZd4uT7b8mWygG1tWjbOOJ1t4E682MKrMzATfzXio+lE6MvFOFdXS06R7zjniOgQBEGOsq/RSvJfbgjpT6kvhl+FFGqpUU2wTFbKdCK/jcTv7TSod6IxShAnGxcSPzdKEoq9aspr2Rig5VP1sgoKsMwqfzB8FT9XJelQtw+S+Or3q/ERnr5S+uw0ApiW0Sg6V/VK6pPRMxQmRN1lXqnGh+BbbGbXprupsozxT0SlGp3QVbZNj2A66DayNHlQDpoM1wQQ0u9WDDYxN0KR4MRUdDp2zUnCqsVQ543Z4tg0SuonFZvIxBRIV77LeTL5JBUYb2zbB6YrNmJvGlKoT7+O64EBFxW6yE4o5ql4nsCqay3UmnlRKU/VTDbhNVmPqr+ORko/CbcO7jqZqxlNlGlQmQ+FWZToiDhVvuoCk4kcno0pmSr+6TK5bHeraVDqh6qnsj5JFzmxs7FPVbsocdeMt80bJp5JFBddR77oup4yAMhAT3HayAFVkt80GbPDbZlumGWI7sCaauv42urXRCWDO0Gxk+zDw3Yy9rp9p4tHpSSyqmV4XUGz4t+FPx4+sC518NhOHjR4ovnUyqxIRmXcZh66PbrKKyCwHLJsorBOWJKJRpo3RyLRMvJkMz1RsZmzbWX278HK/7fZX8WCb+W0H7qPkydZBZXwmJ1fxvd1+3cipk3s7ZbvZUTftH4Z2tzR0OP8/81jDj0uhHyWe7RjZRwH3UQatbvj6qGWU+wDmCeTHJbMu0wnqfxwB+sOWboPuR4H/x1m6tcO4bVonIwjqdSmejEuVTYkwKqNSGZoqPdXxaJP6UvC69NY2qNgYl8yvSbe6sTP116X9KhjTvVxvO+6mohpjSkaKB1EeWUZKFpVcMj0Rr84fVGNnm1nqZDdlorbwskzd6EE3hjpaOt5kGEcECv7JjFDEqXaVM+uMRUeLMiyds8rXujadHKIMlMGISlUFFZUeTcGRwiXLTsFRspmKbEQUfrmN+qUCbDe8ibqUcahklu1LDj6qsVFd6/ii5KDomYoqWMlF5/g6u5JpiDZMtYk4ZXuWfZXyJ5Mf2/igDo6s4wJFXRQ1paI2M6SuUMKbIrbIh1yvm/FV9FT9TDyZ8KoyGVN/G1zdXtvI1O1YdAMny2DST7dw3fD7YYvN2FLw3bZvR7Zux5Wyf53uu8Gvw62TkezHvWI1u9jWUe1Uqmrq+2GKKjWWYQD1zGNDQ+wv09bRVdHZTl8bfDayyJOArS4C2K2mi/lqC5xzuByIMYZ9+Tgpj3i/Xm+h1ORwGOAwIB1z0JtwrGh3W7Zjw9vB/VGMyUfBh3j/46ZrU7bLQ5jlqU5rMEVPm2IzU6siazf9KLpB6TZT6GYGE/FTNLvNqmxnYJ0xqmZoW77kPmI/CpdY/u+7JXzpzUUAHBxAIe7g7uf3IBXT8/crZ1fwv94oevgBPDqUxotPT0Tk246sNnZA4Zbxmfqq9EH1F+tssmmbfpR8Il86PrvNunSFmgh08sg0bPw/rhJO5YAyHHVP9ZGJU0ypBKHabflR4VUVlTGq+un4MtGjjMPEn0oemxlU5WxUEeFUMsr0XM5RE+a/qusFLplPudRbHOWW0K8V3bcLZ1cJh0lWXZ1Oj93i+jC82PBkw6etfVI+Y8JlmxHJ9qDzfRWfJp7iH2b5ErSr+qhwU9F2O46kS8HlNh1tCk43oKoZSBeEdbqwxa3Tg6wTG92rZjLGGL42W8ZcpenXAyd6U3h8KG2UB5x7aRIYAtTUWHT25fA6cu//kv5lPazUWvjDmU3E/GWkA4Yv7sphOBWL6MlmDEz82di4blxMvMiFske5P0XPVCf7iirRoGTXTeCmjNN2ArfhPS4bhU1UNDHQbbagU4ZMX8eHPBPb4DDJKpZu+bB1EB2/pplTlaGZZFHBBb+/fXkNr6/UQvhf2F/AY4Mp40wI4d71OARjjtAc1VW5WsfCWhEA84Mdg8PMs/x8tYX/6uwKgkAXY8AjgymMpOMROFGP8oRE4bUZV11/GdaUUVD3NhO8TRuFy8YPxDYd7yobtUl+VD5iihlxSlibWcakKBVOU50tLGWA1MykMlQTLlUJ2nQGJOJT4VVdq+QyZYk6XVLjaBx3oJ30tH+0PD09nMG/PppBKh7DaH8P1taLeOfiDTx+fD/J2/LGFt65PIN/ct8UvtxyUGs0ce3eIp44MEjqRaxrhelbAAA4hkyHyhhEfeiyBirjsLVfnc2psqlufFAFoxtzm8zOxu9NWaiNzPIYqDJLzoXjZShGVU5CXasUTzFrUoJuIETebBx3O4OtksXEp0hP1UesV/GrKqpxkftRY6LL/Ci5uRCsQIw7pdfxTBwHWlt47Mh+OA4DRjJYWs/im69/gGdPH0EmlQz7Xr49h+WNLXzy4WNwhCD/w5VZPDKY0mYGANDkbb7EoKrTg6xDcXKxtV+VfuXxkPuKcLYwIp8yXdEOKBkpXBSO6JjrJ0ddMKHaqcxL5tcUqOX6OCUoJbRNu6wQkZjKcMTBUClCpqeDpYxBRUdn0HKmZOLThiedoZqKDoeunpJd9Svi6okBvXHAYQ5ccKQYHczlcXZdjljMCe9H+gv45EPH8P0zl3Bsagd2DPXhlXPXMdLfgydOHOjQUyaVRKXWQDad1PIe4y4mkgzJZByuy9FoNpGJ6R80NelQ1aayE+raBo6yYVsYWQY5COjodWPLusBj4ksX9MVCBU4ZXuY5LgLbXMv38kwgp3mqfnL01ClXl8WYYEUaKmVQg22K9LqArhoIUyZH3atwmmZDsTRcjtV6y8Pj142kYmCE/gJa/31/Cacf2YNcOgnOge+9exGlai9yaTr7AYBSpYZcJtnBTyIew6cePo5Xzl3DN1//AF94/CQmhvoiPAY4do8O4PbCCg7tHlMas+tyLNy4gUuf3IdCLgPOOb7z9gUcyMc7xkTWQ9PlAPOyMYcxJFh0bKgi27QonwpONXGK15TtUvCmSVjuT41NNzzpaOpwyTAiXxRPKlwqf+ecmzMsyuFM2YRqELrNRnQzgmomU9GggqXKIWz4U92r6nS8UcZqi0PHTyDbK0sVfP6VOXDe3pa6+/lJ9CdjJP25lQ0Usmnk0kl/vIHHTuzH6+dv4JlThxFzHJLmpVtzOLpngjT8hdUiqrUGnj19BOdu3EV/Tw6ZVKIDx0hfAdfuLuLw5DgpDwC8dWkax6d2oCebDmFOHZzEO5dn8PCRKeW4/pubRXzl0hoYAxgYTvQm8aePjSKmsRVKr6pigjGNqS0dEU6VUQX3cp0py5KLTRBT2bPcTxU/VHQovJEz3cXO4nXwT7xX9aMUopuJVDhto7KKF7lQQdWUhVG4KT7lImacNrh0vFK4qKKTv8U5Sk2OctNFxX/miUv9Avyu6+L89F3ct39XhGYuncLxqR147dx1pQylag25TKqD/8u353Dlzjw+cfoIDuwcxVMnD+KH71/G7PJ6hwzecpKj5bqkXqZnl5BJJTEx1B/pN9SbR7PZQrFUUepltd7CjVID17cauLZZx+1ys4OGaXxsxr/bYrI7HR9UOxWouqFv4kumZUtHB6vyFVlOx8ZJqaILKLqsQ5dWyjiolFCElZ1NDq4Uz3K7SeFU6k61qfiR5bFZBphwUZOISr+c8/Zf+ATer99dhOsHBRH3uel7ODa1AzHHidDhnGNssBcj/T24fHtOORby9Q/fvwJw4Mn7DoR/xcukkvjkQ8dwd2kVZ67e6tDBYCGPlY2tDr0sr2/i1vwK7t+/C3JhjOH04T1498qtSJ9AB2ubZdxZXIOXXzKA+Y9PoHPsVRkApW/dGIr3Yr2OHuVXsi+oJm+KvimTUtmOzcRqCjwUnM1ELsLJ+OJyR5GwTdDqpp6CsxGQ+qXg5YE1FZWxBW0qHlS86u7ltNgGl1ynajfha8vSXhPmMym88sE1uJwjlYjj4K4xpFMJLK1v4r59O5X4Du4aw4/OXsVwbw8Ge/Nh2/TsEvZNjIT3lVod3z9zCR87sjcCJ/L00OEp3FlcxXfeuoBnTh9GIhYD5xxT40M4N30Pw309Yb9avYn3rt3GJ04fUdpHKhHH6EABN+eWMT7Yixv3FrG0vgkA6MtnMdRfAObWoXpUg+JR5RdUIDHpn5p0KXqqyUoOLiraqkSC4k13TcHr7N22TQVn8iUA6tMa5HWork3sT7Wp+sr1FJO6jIRas8s0dfR0eFUDZ0OT6iPrUkVfhjHB29wv1128vFRBcauMWq2O3SMDeH40gzjzYGv1Bq7cWcD33rmIo1MT2D06iJ3D/chnUiS+ma0mfvmFq9i3YxgOvExldnkNO4f6EHMcHE43MVFfxWMn9iObam/Cy/YR/JaqNfzgzGU0ByfwF7MtuJxjbrWI4f4CXO4tX5fWt/DfnB7BZ6b6SBuoN5pYXCvi1vwKXjt/HY8e34+Du0bDoMcYw+ViHec36rgwM4tDk+MYSMbw/GiGHFsbezFlLapAYjuJ2fqSiEuGUdFXZXWqNhWMyed1KwuVb6r45Zyrv5qjEtgmczHBdoNHhx+wz+Y+LK2Pko5uoGyCEWDOiCkaS+ubWNss4+Cu0Q6eZpfXsbKxhRP7dmJhrYi7i2vYqlSRSiQwMdyHHX4wAoDXF6t44mt32vQYAzgPf//eVBL/23OT4bLShk/OOb7y2m38dxdrEN7SQTsP4vjDZ8bwpQOFsO/yxhbuLq1hY6uMZDyOkf4e7B4dxNpmCXcWV3H60J4Ovbmc4/Xz1/HY8f1dTUwfRfmo7ejDFF2AowIKBff/Rul4cFQXCYNiE2kpXAFcN9mZ3K4qFD4dvzq8XUd9hZyqfjK/KgOR+9vMruK9DJNKxNFoNjv6tFwX52/ew3MPHgVjDGMDvRgb6AUAVOsNzC6v440LN9ByOXqyaaw5+YAQhLebvaAFhuHefOSpc7FQ4wIAjuNg9+gAcHEe4dIVENZtDJVaAxdnZrG6WYLrehvtU+ND6M21syQAGB3oxaVb8yjX6h0ZXqvlIh6Ldeif4u/D2ItqfGwya7mPTEOVycjFlH0FuGwCt8y/TcZpk4VSfFE8BzTIxxp0dVSbSFzlPKp7uajaP4r6butURm2CDe6pgK4LLlQ/FY0fLVWw0XBDf96bT+BIoe2cFN/JRBz1RquDhw+u38GJvTs6HlcAgHQygb0Tw5gaHwIHsFmu4tyVJf8AGYbIRpCP12GdJyvoCgv7wc+u6D6zKxsY2TWCQ7vHEI/FSJigPH5iH37w3hU8/9CxSH2z1UI8Rr/bGNxzzuFyjteWq6i6PHxm60hPAmOZ6LuKIg5bW9fZ1XbsTFVM9m5j3zoeTBmjDU4bWJGe8sFRVaFgTBHfZl3cbSTWzUjdzEY263Gq6GYTVXBSwZnkpWB+6b1lvL9eQxAx/tHBXvzuySFtv2QijlqjEakrVWsolqs4eWC3lg/Ac9reXAZ7xocA3O2QLciMHBbFYZsVOAEOsPayUHihcffYUGQjXlU450jE4xgf7MPM3LLPr0ev2XKtbLPhcvzdtxYxXWo/+vCHDw3jS3t6tLZKySXDmGzd1g+D0g29bjI0ii8RlvLfbuJJt74AAM52o6yu3TbL2g49Gb9N1mLDS3BtYywmPj9M1mYzgzLG4Eb2d4AY64SRS8xxUG/6T7z7S/O3Lk7jocNT1mMGAO1dTy79MoD5D/dBPQ6qYM5YkLFxgMlrQi/rsSkB7qN7JnDt7gJarfYzXcVSBf09WVIu+V7e3VXxrWvXLXVUfNv6hYkfCldXY0HwZWu/Nls43foCgOhzWIERq4qqTe5HwVHt8q8Op64+qKPqxWIyJnkmsZVXB9stHlscoQv61bVaA+LfT1R447H2Rvi95XUMFPLIptsvJdvwE4KEoEy4tht/kk6kjkXrOOsIICIuCp/jMJzYtxPvX78dwq4WSxgo5JV8cM5RLFXwo7NXUa7VEe6ncR5mjjrZ5Hqb4GPyHRWv28WlgqfqdX5L9ddlbLqxsuXRkStV61LRmWXGVTOLyiCooKDCaRN0dDOTTkHyspKiIfJFBWbVvU3Qo2hR/wI48T4TY8jEGJIOR8oB6rUaXnrvMi7OzHbw3HQ5WrydoQQ0z03fxYm9O40TTmew5IGiBKUFwMCFW3N499odkv/gWpb75vwKXr9000ckIGMMQcZFaZLKNER+h/oKWC3XsFisoNTkmN0oA/Ek1mstrNddNIQH6kuVGl49dx0Xbs7iwcN7sLOQxkgqjr44x1AqhrRDP7cn2pFKZp0+TSWgQeGTx03lAyq6Kt5NPMv2ayOT6KeqQKjiMWgLP0IhN5oIq5xcxmUrjA2dbuhScCoY1VJQhUP+NcFQuFR8qmSTYTebHEvFEhbXiji4awyZGEM6xjC7vI4LN+9hpL+A+/ftxEaD4+Sf30Kp4e3dNJstpBLei8/NZhPP7irg3z071sGnjrdSk2NmswGXA29dvY0ju0eRTibhwntsYCIbx+riEm4urOBzDx9DTJWa+HR++MF1uJzjwSN7sVx1/QP8vNn0u+9dwadPHwZjQCHhIC2tfXV8Msbwry9v4FdeWwDg/SWy2XKF0ySAP/rEGD45kcbbl6bBGMPJA7vDF7zLLe9jGq9fuIFHju1DJsbCZ9dU46KzDWpcdcXW3m3621zr8AQ05b4iL9uNHVS7ise4CCgyZSo22Ymuj8qxdQKY+JGzLZXgVKSnlE+1q34pWcR7G70ERZaXwldIMNxa38CRsQH0CccC7xjynplaWCvie+9eAktnsVxpRc5MR7MF+JvZK7WWcWKQdZlPODg+4Dn1DKvhsYmeDj3syk9gx2ABf/KDM/jsw0fRn8904KrWG/jGmxdwYmoCB3cMgzGGnmQsQmsgAYxl4xHcKv1R7XWXoxjum/vpVMv1ohVjeOfaHeRWgEeO7kMmlYjwl4t7uNKMoydOf7OPGj/TvcomZP6pexuZdbSpPjb+LsLpeNT5q+xLVJuKTnAdOdNdJqgioEtzdTOMKbXVRX5KCTaOZsufaWbQzaYqXejqxL66TE/H6/pWGcf37iBlHO0vYPTBo7ixsgWXz4UO6gMGPch9GZmmylE4jz7CIMIzxjBYyOGLT5/Et9++hL3jQzg+ORbC3F1ex2sXb+L5U4fQ5z9HJWekjDGk4jFU6w2kEnFtdiHalch7+JdHzhBu5IfdOQ5PTuCZ/YWOMRHpJOMxtFzv+S3Kbqmisz2qv41f6OxNFXR0+HU2Kd5TejfhUtm0KftUZYFBW+RMdxWjctFFWLFdNQuYIrxq5lLBylmNTR+xLyWTqa8tPyo4FWx3uujEJ18Xchnv9M9gr4YHHT0nZkRfHc9Ae/w2K1Xk053nX4k8J+NxfP6R43j32h288O5lPHvyIN69dgfFSg0/9fh9keepvCAY1cfk6ABuLa7h0M6RCB1VkfXl/TB4T877/XzxAW+ZqNJ/cO09DtJETIK15UVXZ4tP5VO2GRaV1XXLXzdtOt5N8Dp6yq9V2iD8MISB7e9tbYeHbvra4NPx3g0/pplRR8tLmjr7t1wXs8vrOHv9Dt6+PIOW+Oc1BkB46FOzvWTkeXF9EyPSc1EUPw5jeOjgbhzaOYJ//AdfR8t18clThzoe/pQdCgAmBnsxu7KxbVtxGPMUxTk8uX08DADnuHhrDq+fv473rt3C1Tvz2ChVOmglYjHUG02rsfpxFFVGKf7+h+DHBq/timO7Ja7KflSpmypToiK+TtG2yzEqLZTvTQGwm9RWBUPx2u1a3cQ7YwznNmr4tQtriDHvSzAJh+H3Tg6iX9rb8ZzbOxXh5uwy1ra811U4PCcdGyhgcmwQ/SMxOGduA5HXXYIUg4Wv0OjGkrIRALi9uIaHDk126IOymYW1Tbx15Rb+0U8+jbeu3MaVu4s4tHNEuRUQ/GZTSf/xAjUNnW04obwBguhYHdw1hof25lCpNVCq1jAzt4yNUhlB7uk4DPMrG6g1mjh5IN0RZL96r4S/uLvlLY0BHOxJ4FcP92n5UtWp2qixUC3n5KBP2ahuBaHzE1t8tktNFf86HuMUgIyAMmYZkaxck5AUnIoPqs20zBTrKEWogoY86PIyRSeTjJ8yPEoHYv1itYU/u1sK7x0Av368HznGsbZZwsz8CmoNbxf53I27SCUSmBofwsHdY+Ff40TapXJLIAhEnvVk7Rei+/KZDtlVYx/Ub1Xr4ZIwoEfp+t1rdzC/tomfevx+JOIx7Bzqw+uXZvDimSv4xMkDcAjdBHhiDtBy6T+UUOMhjlel3sD5mVkAsYjM4jWH90BtTzaNnmwaYwO9EVwu51grlvDOlRm8dekmWq7rZ7YezW+vJ/BvF3iI7/GhNP7x4b6OdylNk6VuuSXe67J3nY2raOsmJVWgUU1uKtom3JS9qXjqyLBUDk4FC1PUVGVRKgGpDMmUNVE8mnhR1VGDqJPZtl43K8p88DaC0LnevnQT4+kY+ntyuH//LqSTCe8lXsfBg4f3kPoIcCcc4NRQChX/T/TrpSp6sim43HuS+76RJF4+fwO7R/pxcu8ObZCP6lrwfYXem66LF965jInBAj770JGI7I8e2YPbS2v481fO4jMPHgmPspF1AwCZZKLjRWZRt5TOr95bxPvX7+HhPbvxYNnLgBwGFMsV9GbTiDsOHAaMpOl3EsOAyRgGevPIZ1J47Pj+Did78YNlYGEjHD1H6E/hM2VLtnYq6kCWXeVLKhsRcYr0urF1quhk0cku25MIt61Nd0pI8V6V0VBK7ZaGaXal8KpoUPWm4G07E+ruqYyNLJyBOcDDR/dih/TS7dLGJob7Oh8nCLv69yOZOF75m957gi3XxV+9cxl/4+E9UTJ8HO/fuIevv3EBz58+hEwyQRqLWFdrNJAU/nInl+WNEl46ew1PHJ/CuH/yg6yT3cP9GOzJ4a/euYRT+3dh7/hgBx7GGMYHCphf3QzbdbqrN5t46ex15NJJ/OxTJ8EYw98+3Mb71pVbmBwZwGi//p1EEbeXLdE0HcdBmHKhfYopNRYybpUcpnubvra4VXh1bTa+pWqziRk6mnERWDRMVZQO2lXZieraJgrbzBiqrEXVT1enUpgpc6R0ppKNCoCy7CLMWDqGL+7KocWBzUoNDoCs9LAk5xyLa0XsHh000hfxV2oNZIUPP4h8ndy3A5OjA/j6G+fx0MHdmBrznHyh6J1PxZj/D97e2Z2lNfTkctgoN3x78Rw7m3Rw7uYsbi2u4XMfOxb50ARV8pkUfvLx+/DqhZu4vbSGp47vQ4tz1Jveg64MQH9PHjdml7BruN/ng/lBISrD7MoGXrkwjSeP78VYf4Ec6+HePJY2tjoCliproJxIhD1ZiOPzvS7Gh/rhco6DPckOGGoS1dmfCGMzwZtoUTSpSUiHU0fLRk6bdh1PwX3kPCxTNLZZ0qgyFErp3URzKqrrMjRVtKYM0RRYdLgo5Yvpv4ovVeZ2vDeFf//oGACg1mjitXPXIhvuAY5ao4lUIkGOgUwn+K3UG8gkE0q99ecz+OnH78crF6dxY24Fjx7Zi5/8n95FsRKcoeXjhrev5DiAw24CfhCb6EvhF5/KY7Anh88+fLRjH0clc8xx8OTxvZieX8Gf/eh9VGOD+L0XboU0OfeWl8nYLMQTbYIA+iufnsLOfBWlah0/+dh9SMQ7//oYlMGeHG4vrSnHRVVc1yWXdaPFRfyfT+xEXz6r7W+bRemyF1tbt4EzZUnbpSWP73ayRx1cx6fqTRFdVKxtxFfBm9bdKngZt27Nq4KT+aToUmtqFe9yuwqnbT0ApBJxDPX14M7iKnYO90fams0WEvGYEa/I21alhrzwVRtKBscBnjq+D3eX1/Hnr36AjXId5Ybb3rCWH8D0IwpjQJy5uG/PQewc7uvgQ9SPiue9Y4MY7s3j1/78A6yXmyEdBo9GibntMfODFQC8evEWfvnT+7FvfEg5IQQlmYih3hD+EKHQm9iPMYZYzPH2F4W6UrWGVssNg5XJXk1FlY3oxtfGNnXZIiWzKtEQedPh0MlnsgETr06gENm4qU4mxsV+sgJVBqTrZzv4Kt5NEZ6Sk3IwHR7b2amb/mI5tmcHLs3MQlKZ906cY/96CABslKrozaW1PASy7hruxxceOe49LOn/F2RSCO+9mOL1Z+jJpCLBSsWHqo4xhkI2jRNTEz7uNp32j59iBTGTczx0aBf2TwxrM4jgXzwWQ6MVDVi6FUIYyJkD140GkNfOXcfDR/cq5dIFCBXt4J8pAKhkFe+picJUVH1VgdPEgy3PYr2OTpyK6qaiy15s+8nXJtqmrMmmqGiY6lQzjYqGCqc829ngYgw4NDmOy7fncMT/uKjX2ObTlr+NcgV7xzr3vahZmHPvG4F+AuUHKiHjgZ9ctVkBE3gyyaWD8dr80xl4kNh5UcoPm+CM+5mdfr9VLjGHoeWqTxFR8c+Yvyz0Hx1ZWC1iuK8HSX/5aUufoi8/aJ8AACAASURBVKHL9OW+ppWDiQ9bWtvBYcvDhynhAX62M7V8TylVFz1V16plpIqOnLXpZFDVifyKfKtmXNmpKVlVgyXPmt0M6u4R7/PtwcdFWRApJLyqIBmUYEkotun4CldfYWBi4GDgvB26grOivJNG6WWMaaxleJcL9f6hgEGgCqKieO2gcxy1GazCbkT55f79PTmsb5VDuHPTd3F8744O/an4EPF3kxXb+CdFx+SHKl3p6lU8inhV+lPxqMNF8RWnOnZ7ryKoqqfWqdRssR1apn4mfLb9VAZvqjOt46kg3HQ5jhyYwssXZvDQkSk0Gg0gHkfN9Z77iTHAgRpvcO1y7r1XqKAn9/cmBcDLbIJAwdspVbhEDOiYlyeUHmTYSNwNsjYpuwv5B6AaUp0t2Ex2TQ5s1VtwORDL5nBlcQNuKouZhRWkevtRdRnyse5tbrtBi7pXyaHDZ8MjVW8btHTw2+UvKFanNYj1IhGVw8l4RFjVpqZ4T+Ey4ZAVoJJnu7hUs7AJj1znAvj2bAlbTReB+93Xl+z4gISI98xyDU99fQ4t1wV767rfDjive9e/dLwfv/2xIS1fQZsKxuXeF2Uq9QbmVjcxv1rEQrGCZqv9deggz/H2wL1lmycfAzgPMyzdmKnGXNRvcNAgBwcLszk/doUBDN6ePOM4PzOHb8bWMVTIY3yggKHeHBKxmLekRbQwxpBLJ1GuNZCTntKXefr2nRJ+5sXZUN9eljkdLoN/r76BXzjWR9oGALQ48N3FCmotHj6fdbo/hXHhmTrV1oOqTdaVrGNZVhmPXFS8q+B0PqvDpZqkTKsCGafywVGRCNVZxYTpWofDNrMzZTeqepvorwpOFM8mnijd1Zsufvm95cjHDX7tWD/+6bEBEh9jDC3O0WhxuH5g8DGG15yQV75vtFqo1ppYWN/E6mYZK8USNkpVj0fmPdEdcxxkUgmMDRRw+sBONLiDX/+rN8CbPCQpEGjryA9cQfJmsqmwH2HAgLckbC9B/fDAxN0ytP9gCYaTeyfwmQfHsFwsYW61iKv3FtFsuWi2vNdowDiS8TgGCzkMFXJgjGFhfRNTowNGu2vIZ1ELimhyvd4rTRd//+1F3C37548xhj97bBQ/vTNPwqt0pro3wZvqtwNnmyHZZIrd8BbAkhlWNwh1GVZwb4qqOhoqo1ZlSyJOEy+q4KTLOnVy67KGoJ4jOOkl9EpslCq4Nb+CTCqBTCqJTCoZ+QtguGekmAEZvM9XbZa9L+CsbVVQLFexVamhxdtnAN9aXMXkovd0+Yk9E+jNpbX6WNmqBw0hpZAPxnwZWBhHgq6mbFqcoJTjyP1ACBYGpmATPlQcQwTXcG8eI309JP1ao4mVYgnLxRJWNsu4dm8JE4O9YUDLpZLoyabRl8ugN5dGIZv2XrOJqNyX2afPeZTnRquFSrWOcq2OWr2J9XrT++iHYAYO9LarykTkQmWulC1TMJR9qmxWpKUbW5UdqfxfRUfkgeKJzLA+TOl2VugWH1Wvy94+qvtuAreOZw7e/uKNDxb3nX99q4K5lQ1UanXUG03vKF8OfLAZIvB+w2TDu785t4wXzyyhJ+s52mAhiz1jA+jJpMJvDZaqdeRSSTwsnK6gkwEQN92jmQ0YCzMgCL/iYX46nZiu3SAe+gGiTScqd6AT70hlvT2kEnFMDPZiYrAX4wMFXJ9dxqNH9vhycpRrDRTLVWyUKrg5v4qNcgXvrLgAC5ZvLLphxoEbc0t4jS0D3HvtKZ1MIJv2Jpx4PIZ8Ng3HqQBoP0ah0lE3tkb1s7Fdna/raHbLr0kW26yMgovLkZhCYoIxtXVbdNnSdnH8uPt1U7IxhmzMc/qm62KkkMXkWJ+SrjtfAS743wHkwqa3fyDdgR3D+PSDg0q9MeadXJAWnnK3GUeOIGiJmZRvC1yIm14NGNPvg+hoddZxiE3Mp83D5CqAY+EfElSZdtAWlGwqgUqtHpnps6kEsqkExvp7Qhzu3TIwfVdkIJQfjGFybAiPHe9X0tlscoxnNr2Pt8bjcDmQjtGZjm4vR60ju2sKbzf+peLDxLsqy7PhSe4X0I/LwHJHHQFduwmvjEfEpVOASdmmQValtjZGRPFK4ZaLiDsbYzj7qV2hM37v3Yv41MFeLb6Wy4WlGIBg/8p/Etwh+sg8rhRLGCrkIvUmXSViDB/b14eK/5cyzjlK1TrWtioY7S/A5V4AcTnH4voWBrMOiYfSvQwj8pOOA4WUi9G+ghc4fNrrpSqS8RgS8XhY7wLIEGeFBXSoZUUmmUCl3jBmBuEdQ3Tv0C+NltvRT+zfEwf+j/0O+vKDmBjqAwcQJ5bNKt2IcOK9KkCp6lRLNpOPUPxQ8lJ+owtWsqymLCzozxjr/AiFCoGqUP10zqtzbl1QEdtleroga8ufKtVVrcEpfJTTUDiTArrJ4T4srGxgYqgvxBXgb7kuLs3M4a2b6wDi0nKoPeOLm92qALxSLOHQzhHt2Mp89mUT+N9/7kQE39tXb+PirXl86blTkfqljS386h98HcvFQxju7dxUtqW7VanhvQvv4E//4VM4KByLDAD//ofvYbS/Bx+/r/OYF8r4VTQdx4l8w1EF6zD4mVWQS3Jh/w6Ynl3Gy2wFpw5NoiebJvGsrBVxYmoi8l6laB+mQKILqqpiCii6MTEFcVMCI8LJdHR8Uf0o3HGdU9oIpGJeNYtSAUmkKRcqUptoqmYrkwzUTKcKQOLMqBoQXeAKypHJcXz/zGWMD/ZGcM8ur+PizCwO7R7DZx7Yj1eby2j5/uJy7n9SC5hdKWJfIaGkEdyvbXmH9FG8UXypZJtbLWKkL9+BY7g3j//2bz+Pf/pvvoXf+vLn0ZuL0hL5UU0A9WYLv/7vvoP/6JnTOLBjuANmpC+PlWJJOzOrJg2KnnwtyzSUjuHBAkchk0I2lQgfTQjO1vrs/h58bEcab16cRjaVxP37dyGZiIc45lc3MNzf0/FohcynqBc585Ll1Mmlk9WkCx1OXQCV4Uw2ZcJhGtOOA/xkwrqor0rD5czHFJh0WQx1r1teqNptBp2SSwy0IpwchCkcMi6ZVtDWk01js1xFIZdBqVrDO5duopDL4BOnjoTf0Pvap3aQAfkHH1Swt7+9qasaO5dv7zkpsXDOsbi+iQf27YzIEFxPjQ5iBgN45He+i5G+vL/BHDh4e3PcEera7cDqZhnzqw18+XNDpDMPFnK4fGehQ386h1K1xYJvFDrRQCHq5VCPg1/dWcVPPHYAMcfpGMMA59MnD2GluIWXz17F+GAvju6ZAOcc1+4s4JFj+7Q8qrIW1SQvyiT7mdxXbqfGV7ZzFQ9iH5VPUdc2OHSJhjyecblCBtJlCKa+OsFUQdImmpv4kKO8GDRNWY9NVqQKPio5ZDxyED+xdyfevTKDbDqJYrmKR47uRTpJn1slz7xPHt+Lv3j1HMb7C0jEY6Ts3rU+M6V0Qxn38kYJo8LBgRHZASxVOC4vV3F5udre92FMfe0RCldcYAyr5XqHzgDv+Ju1rUqHjDp9q2w0l06iXK2jkOtcygW4vvf+NTxz//5wOafLDAYLeTx7+gjuLK7ixbcvYHJsCLGYg2QiHulL2Ymtv1F11PhRmY5JH6LsJj/sJmbIfIo0usEf1Cu/mqNjyBZenrHEegpWpGNLzwaOwm+DT6c4WQ65joKh+OGcY3ljE6+dv47hvgI+fvIQMqmksW/QFo/F8PH79uG77101yMOVPKl0Q8FulKra44wjW0OMtYOS6jq4F98NVOi9L5/F+lYlvLddqlAll0lhq1oj2xhjuHxnAaN9eQz05Lqyxd2jg3juwWN47+otrBVLKEpf4bF1zm7Kdn2nG5wfJS5VZmZTun6swURku20q+io4Hb8iLWq26FZJ3fTtBn+xXMU7l25idKCAv/fZJzC3soHdowMdvMtjIMsz3JtHf082/BINzYt57GxKvdlEMtH5QdGgcM6Fv6iJpR04I1UEqEPYGWMM+XQSlXpDu13QQVVhs4VsGsVyFeMDnR9RrdabODczjy8+dVK7lFdnNhwj/QU8ef9BvHHxBmKOg9MHJ8NsS6anK7qxt+1n6ku1fZS+Glyr8OpWLHIJNSinaTICEUaGs53pqCWHnKWo1tqqVJUaTFPQVKW8NoZvSpd1vAWw9WYTZ6/dQbXewBP3H0Aq4S3/zk3fRct1w4c9VfxT8nzs0CT+4tWz2D3cj2w6ua29BxMsADSaLSTj8Q54r4/rZVhMDk4iDklfhPocpt7jaBGPElD2IhYqsPTm0piZX+2QnXOOb79zEZ958DAhX+cSmaJ5/d4i9u0YQTzm4Mn7DmKjVMGr565jsDeP41M7wn1JkSblUzqbE9tVdqbL5lTLMhMdE79Umw0fKr+XS+TLBqZIR0U+naCU4KoIq2szXYv3NjNFN7OJCUanj42Giy+8Mo+6y8GY97zUL45wDFWLeODgJAal56ImRwdxe2EVe8YGI/hM48K5dwrD86cO4YV3L+MnHjsRwVtrNJHy97c4V5+vL/YRYYPrZsuF47DIRjWtSzFQ+RlXJIgJqVXwQGoAw+kg0c2YqYK16Mi92TSK5UpEVgA4Oz2LvWNDyGdS2kxXR/v2wgqePX00hC9k03jm1GHcW17HS+9dxs1EAV8txuDAC87jmTj+l1ND5LiKcsi6UE1eJl5VE1aQjFD4TbRNfJnubXXcsemui7ymoCQzQ0VM20GhDE3FI1WnE14106hmdYqObiYI2usu8OZqFfWW76SM4xd29eLZ4zvJLfC9O0bw0plL2DM2aJRfloVzjoYbQ9VN4Vvv3cbescHwr3KL65uo8ySmF8thHWPAQD6BfCr6NZ4AFxUkt6o1ZP39NXJG5cJrR0GgaiMNEAUYgwZfN0E173jVRtS1KnuQeZUD1GKxhkbLnziY91Do4mYdK1uNsK5cq+PC7SV87pFj4QdpZT3r6ALA8vomBnt7SPidw/2YGOzF75xbwLfm2mdr7cvTGatKNlNR8WryhW7rqEJlZNspygyLclJd0DDNbDIeXZpoiqi6aC7D6PrJvNtkVKoMorsAJrxe4j+V3t+TI4888ZGhN5fF2mYZA372pZNTpA8Af/nuPH7rm7N+sjLt4YaQ77DbbZoAfuNnDuFnHhoj8VK0tyr1yIZ7x/hy/2gYpX6ZELjC/wn7WF6W5bDOyTAYi3Qy7n+AI650DGpMfumPLuLMzIZAG+Aux6996zWhn8fD//BXr+L1f/Y4+nMJbXZLLZXOTd/Dk/cfUNqF4zjozWcBlMJY7YA+NVXGb+ODttmTTleqet0kLeO00ZXMtxwrqAzXERUhX6sYlCO4KqLLuKhsS6eAgB/dzCq2UXRN8KpMkaKvw0W1h4sj35kBYHZ5jdRrMCAnD+zCB9fvkDAUP+Jgtlz/dRXOvWsXaLoI64MjV5otF02X3guiZAr+rZcqGOjJRuDl0g7QIZDwD0SGJdQzJlzSvAz0ZLFcLGlncWpMPJk5Gi5Hs8XRaLpoud5xP/Wmi0aTo9Fy0XSBepML7NN/wZb1BgDVegOJeAzxWIxsB4BiqYJLt+Yj/IpvKujsWbxX/VPBybqylYnCayo6v9DRpVZ3MnzneoBASrWZGLap6zZlpPiSZx9bHrodBB0uVXsu7uC/PtyHVvuEF+xON/Dddy7hoSN7vGxLHpBYDI7jfcZLfBZLR689IQT3XuAIdosASm4exg7b8VpYK4av3dQaTWxWvONsZlc2MLtSxOxqEcvFkhCUuPDbziLbe1YQYNuQf/idt3B8ohfjgwXsGOzDQE8W+UwKuVQSg4UcVool7PRfZdLpRbQv18+emH8sTJu79qmpwflbnj3p9UHZ7vnpezi+d0dHv2DyuXDzHlaKJfzM0R3IL9XAufcu5FCS/vq0SSYVH7p+3cLLspjKdvxZRY8qHZ/5khHq0tSPolApIpUK6lJz1dJPhqPwUPzIxZYPuS4XY/iN4wMd9Y3mEN68OI1cJoUHDuzuwHHq0CTeu3oLjwqfRjfRBILlGLxMhfkZbRC9wLxjWsLYwTqefG/r0/tgxdpmGYvrW7izvI65lSJeuTANxoCXz92A43hfyenPZzHa34OJgQLu2zuB33/vbaxUKxJnAt12dEBIjLXbHQZ86vRh9MRdzK5s4IfnrmN5YwublRrqjRauzy7jlQvTuG9qAmP9BUwM9mLHYAEDPTn05zMd3yQUbYSDgUVsQ2KTt21IXpZSRWx3OcdmpYreXKZDp1uVGl6/cAMHdo7i2JQX0J4cy5P7PartF1t7t+HXxoZlOpT96/xpuz5j8tHIpruJgEqRcn9KYF3RKcaUFckDacq2qFlGteamBkeVXlPpLKUTxhiSiTieuO8A7i2v49tvnsNjx/ejL58NYXPpFKr1RuQRB9VyWqThx6W2HsR+QpITlOn5ZXz19UXcW97AwtomNivV8C+BuXQKA/ksxgcKmBgs4MSecRQrVXzhkeM4tnss8qf5oDRarvfp9nAjXSDIAEBmwg9W4Tnx3tjtHO7FoZGeDhk5gB+du4GLtxfw2YeOYHZ1A3MrRVy+s4DljS1slKtoNFtwHIZ0IoGhQg7jgwVMjgygVK2HZ3kprZFFWVeNIVVu3lvEXulTY5xzXLh5D8sbW3j6/oNISW8vqPCbtmJUdqnzHZXtmuSjfNMGJ8W/SXbK52SYjgxLznRM2Y8q2uuYoJiiAo8p6sv8quC2A2PqY+JFJ08QVHcO92N8oBevnruOXCaJUwcnQ5jDu8dxcWYWJ/bu7KCv0mGQYckuKfghhGM7sbBaxP0Tg3jm/v0YH+hFLp1EzHEQczoDMefeme8jvXnvo6IK2dt/JQw5BsLjcMRloWzM7cVrwH/HxAlgfKCAMzfuYnJ0ALtH+iGXYP+u0WxhcX0TsytF3F1ex2alHmaa8mMUESX5LItfABJ1H+FHGIeZ+RV84vSR8L5creOVD67h4O52VhXgsM2MdBOm2G6bfel8W+fHOp5tMkKqzkYPlHxkhiUXXZajyirEe1U9xaiOli4Y6vimIrUpJaV+VYNJyW+acYJ+sZiDp04exOzyGl546zwePrIX35hv4cp6A7cXtrB3dbn94jCAbNzBzx/pRS7OOvC5cgLDgOA5JybW+Xs1T53Yh+cfGLWecUu1OrLp9scyOvUq/VVVDExMZsz/5WKbt8ckZjdyGerNYXmj1KHPoMQYg8M4kvEYpsYGMeU/0/Zv330bC1tbPhWB9w7dtNmlstn/+eIGposNuAjO6QLqrRYW1+L4TmsZ//zUIG7encP86gaeOXU48nS7jEu3YrCxZxVe1QqIKqp206rEhm8bGUz8yf3igDoK26SQqiCkyipMmYwONwUjF1V/aiah5KZmHl1glIOnLpjKuhDxjw/2YbivgLcuTeP3zzXx7pYDgAFzwdPYXvbUn4rhP97fg5z/mfpqo4lbC6uYWVjF5TtFn4aYLghZBND+XBYTY4niuSqp1OpNZFPtgEXpJPpYQ5BZQeIpuA9+eDsFFAIINWP35jLYqtQiurPJpoNDAD2SDGDtPa2Q2yDjYsC33r6Isf489o4NYrQvD8fxPlX/JzeKeGWu0pZJCMqDa+t4jC/ixK5hfOLUkQ4ddZOxUTLZZjJiUdmvapxNcKr4YOJFl3zo9CDzQR7gZyJmMwvY3JsisuleB0Mp2SY7tLlXDTQ1e5hmOxE2EY/h8RMHMHT7DrAZOEUIicDhF9c3cXV6FavFMlLJOCZHBvD0fftxYekOXrhcFv8mCB5+d8anEyy3QL9krJI7+NxX3N+7Ih0QYqyi7IlFfiL1vngMhkdY4H1wQ2w3jQ3g20CEV3+Pj7UX0OJq9vMfO4b1rTKm55bx9tXbiMccjPYX0Gi2orJJwfqx4/sxko++HK7izcaebfrZ+K5tH5M/mfjrNmOywSnek481mKJo8KtyRpslky5jU0VjEacu6qvwUdeqvrqZxmZGEZeRuv0Aih/OgjQjyDzasjZaLcyubOChPWPoy2XhOMKs7P9fTHAQoolmN0GGZZIz4KnqP6wpyx/pw/0MS+Q94EPM/JiQmUgZYSC6ykYCSF32KssBRB9rgKAvxlgY0hGZdICRvnx4WGG90cS91SLqjRWFLEAsFu9YAqq2FygeqTqqv05uFV4dfp3eTCseyrZtZO5mlSTCd3z52TZzkoVUwZqyim7gbWFsIr5p5rHNsGxmKttrzjlc19s09msFX/acIxV3cPrALgykYx14XO47ZISl9n3768ne9b3ldQDDRv4YY6jVG8j4f+WSjSmc/WIM3/gHT6DWdL1TUf0Axv1fXR33fxmA0UJar3/o/xIs83jp9gIW1jfRzvCYoIdQS2G9QwxpMhHHnpF+9GZLwEalPZEIvy3XRb3Zgpt0Os7Qkid6ajKT21X9g2KzcpCLrd6oe1u/s/FvVdBSxZLQxqgMQbcmVpXt9KGKLmvRwanWwXJQ3Q5uCieVoQXlvfU6zm/Uw8eOhlIxfGo00wFXrTewsVXBnaVVVGp1AN6LxRslLuz9iKXzcQWRrxM7e/DTD47hxtwypsYGI4GAS4GCc+CdKzfA6iv4T557GJWGG27LMAGvX4X59RIymTTK9aZfxyKwDmNIxBhO7uyL8NStjoPSaLko11tBDInwxJwY1ss178DCoF7iJ+DppbNX8e23L+HZYwewUXEFHQi68TfQNys1uC5HTyal5C8azMSJhaPlAmev30EaLXDOEY/FMDHUh6G+PLKpVDQb5hwzpSa+u9Be+scZ8Hcme5BwooHMlNF/FL5HZTQUTDf7Z7b0qKLys0j+SinHlJ7aOrFtP5vlpEkJMly3ytcZiI0j/vGtTfzu1Y1w6fDwYAqPF4awulnC0tomyv7BcZlUEr25DI7t2YFMqp299Ny6A6z7L8eKpxn4MUyOY4H+Pn1iGIXYFsaeOoK944NKY2/r+jj+4Dtv4h/+q2/ia7e5H2BZ5AVpx18+NlotNJot/KtzL3S0MQYcHSvgz/6zxzpeXO5Wd0H7ty7M4ct//E74ojJjbd6K5Sa++hvfQcxxvHqZb3jBajDRwGf2pPBbX/48kv4DpSobYYyhWm/im29dwE88diJ8tEPUb3vpK2XA/rXjODh9eA8GUt4fRFqui3tL67hyewHlag2cc6RTCYz0FTDYm8e7a038/LtL8NM0JB3gZ3flwy/r6DIwlf6oYrtUU+E3+R6VJVF4SV2iM0jq6HWc1kClb3Lqb/srM99NP+rexB9FM4AzBV8belQ91e62gQAObJWruHZ3AQM9ORyZHEfOf4FYtfyuNYSNXSbgivyFr7PfcrGEjXIVjx2dIvmTjYIx4Oc+9TE4L1/EH1y6SMopl9VKubOSA7lk9Chg8VqlY52+qw0XK6W6ko+tjaqR1+cODuGf/K2nleeLyfTTyThO7BnHO1fv4GOHJ0k4x6vw74K9LK/Umy0srBYxMN4PxhjisRgmxwYxKRwXVKnVsbi2iWt3F3BxoQYgFuII/zBCOK+Kb91ekAxP/cq+raJps1Vkg0tnBzaxKHysQZXRiILJbaqMShVBqWsZ3nYzTldn00+kbxPMbHC15UJ7U5l55yGdOrjTCsebF6fxlQf6kMhk4SJYygEuOK7cXUI2EUc+0emALdfFD85ewxcePREZE5NcDmM4unsMgBCwOEA+Gq8qTH2ssc34BHAhOsa8zXslsMCavLEfZkAs8uVrEy9B28GdI/ja6+dQLFfR408sYR/G8PuPj+CFszdwfHIM/fmM90ENeNldjAF3btxABi1MjnV+2BYA0slEGMRuZLaAuYW23AKcatyodl1R+V5wb9Of4kdVp8uuKB7EOtPqCkB0012nBF10VbVRzKmiry0PNgGj20zNFo9YR2VxQUk4DCn/y84AQ6PRQKPZCt9zo/C7rotXz13HgZ2jGB0okHSeGNmFP3/1LLg7BjjRd+beuDSDU/t3hX/J62ZMvOAQ3Y/xtQE6MqCjjrEgZuj/CqYqlBFHeRB4iXh2BIlQ1/5eIzXz6+h/6vRhfO318/jiUyejYwygj1dxJM/wick+Et/h00fwg/cug4NjanxYqfNqvYEzF29gMFkAhzcpZeP0Rxa2swKg2im/MAUtW5ofRZ0pywOIE0d1GYUpU5Hh5EgrM2LKqqgITcGr+JZpmmYq1Vpa1VemF8D/zv2D+O37BsL7Sq2Ol85cwhP3H0Qmmejgtdlq4YfvX8HxqZ0YHSiQNDjniMUcPHl8H37wwTU8/8ChEM/iuvdy8OPHhkh+xV9KvvaHIwIPR3TZ0xGr5OyLkx8K1c3spgnDFbPUCHHu7+vxKK+BzhjzYDnv+EsdRUsujDGkkwkcmxzDmet3cfrArhDO5Rw//OAGfurx+0g7Cnj/+AOH8eq563Bd3vF+IQCUKjV8952L+GcfP4b/0bcHcZx0y0GKf2qcdX1M9tCNP1L13Uxaqv0ymd+gODpgVR0FY4rk1AynUwqFl+qng1HxpeJHh9PUV3efSSXx9MlDeOnMZRTL0b2XZrOF77x9ASf2esGKwiXWjQ8UkIjFcHfZO4yu5bp4+dx1fPy+/Up+ZZwy/5zrln/MX9oyL1AEdeGv989hAWh3ulHJ6UaClcyPQDvMqlgUnjHlMlWkJf8LyrHJMdxZWkexXA3b3rg0gwcP7opkymI/8ffxE/uxUtzCjXtLEZqb5SpePnsVn3z4WPh1pG50pPIPXRZG4dXZQzd+Yepvw4/OH+W6MGCJa1DxV9XZZv0rFlXWQDEltuv4kWFUbbp2+VoHr4KT4an+qWQCzz94FC+/fwUrG947bY1mC99+8xw+dmQvRvoLVvQB4Ilje/H6xZtouS7evHwLJ/ftIL9jqOJdrmtnWEI2FQXyfhnvrPOvdZOP7V6JCB886Ilgucp93jhv/wM6r4VCmZWNfr2+DJ84eQDff/8aOOdY36pgZbOMfeND2n6iTT90eAqb5Qqu3fX2qTbLVbxx4QaeOXUYGekVHH2BRAAAIABJREFUJypbU/Gloilf2/D54yg6X/+wdB1VSiamdNshpEv1dALJxSYLU/WnorZqOUhFesoQbGciSm/JRByf/thxnLl6C/eW1vDi2xfw5P0HMegfimeSJ6hLxGN45MgefP2N81j1ncjWCakSnqMlPVgpvGTn30czGJ8pP5uhaaqW6yrdRvUWZE3BL0f4jIPIa5hlRah0LFPbrNtNvD2ZFCZH+nH+1jxePHMFnzx1yGi7sn2cPLAbtXoD716ewZsXp/H0yUMdkwud8aptYDs+KfdT2Wg3wUYFS8UOKrOzSSTkeoda91KMye3dZluqQbWBl+lRtE1r7mDATLRVM7AuZVetuyl6iXgcj993AH/84hs4tHsMvblMh7xUqi/j2jXch9cuzuChg7uNgZmqF3XTfp0G6pUh2dZettksFVT1wb24rxLJ+kJaQpWOT182edM9oGXr8IwxnNy3A989cwX7J4aQJvYfRZwqu9k5MoBz03cx3NejPGCQ4tO0RLJZQun8TpfJyTzZ+ISqXTVh6SZ8Vb0jMq7KIsR2SgCbICAHGV1AEulSggbXMm0bnCr+dHXytW5ZQc0qYilXa3jt3HX80s88h/nVDczMr2h5U/H36sWb+PKnH8FLZ6/Bdc3GpM94I5DtX5kljW2LwUEuqoyK4imA7cj6eJBVCZldB/Nihsg6Nt1V9q0b61K1jqHeHG4vrWnHXc7MA7il9U28e2UGX/r040jEY3jv2m1tRibqxrTqUPmjjF8XlET/lnHr+JPpqLNkNU0dHlVxqGhHKU01Q8kOrDJOqi2oUy2DVOmvLmhR7RS/VNEFQRXv1LWKl2Kpglc+uIYn7z+IVCKOx08cwNzKOi7OzCp1KuuHc46l9S1slms4uGMYpw/swhuXZ0geKRwyXDs4cCD4C1wQLMKggHZWE8YzAYbz8Il0SgbdMldVIs9hBbwFvIiZVsgfF3jy/jmSrVLOq3Ku4P6ls9fwuY8dw0hfD67PLpMOqfKXuZUNnLtxFx9/4DAch+HI5DgyqQTevnTT6BcBDpknnT9Q16p7Cle3v9TSj9K3ipYKDwUX/HOoaKdKS+V6+Z+qj6qfzCyVVZl4oYopnf6w8lL0KVgR99pmGa+eu45nTh2OfKLq0WP7sFWu4vz0PaVuRRou53j53A08c7/3V8H9E0NY2ypjRfiSjEpuSj8eTrT3gYJlnrz8YohmMwEM866D7iredTqj6jxSfhBiLLqHFQJL1yGMByfuq5nsjbKJq/eWMNKXR38+i0cOT+LM9TuoN5sdk7ecoTDGcHdxDRdnZvH0A4fCh1cZYzgyOYFCLoPXzl+PBHRdJiTj1umZkq8bH5Vxy7RV2ZHJpymd6exBhgv+OSJREVAVVSlFUoWKrkEfU2QVB1KmYRu0ZJlMzqySj5pF5GAky9Xi3uekWtzLFBbXinj9/HU89+BRJOLxDp08dGQKjHkvzqpmooDWm5dv4b69E+HGLWMMH7/vAH74wfVwaWjKIuRxaWczwpIrfJwhoixpmdiGdwg9UXyoxlpuC/fVIuMmpHjtCIn2Yw5BPR2ExGvZtmSbrDeaODt9Dw8dnAxhnn3gEF48c9VoC7fmV3Dp1iyeeeBQRC9Bv0O7xzDc24OXz15Fk3v24o1BNKBQ+pJxyb6i81PKl2Q/EfvIOpHrxTaKNhUDZJ+iYo2OH+OZ7jqBqT6qoqNjA2PTf7t0qHrZAHTGL+P4vSsb+OcXVv1+wIl8DC8/exwxx1H2PTa1A9OzS3j3yi2cPjRJ0lnZLGNtq4xHj+yJjEk2lcDBnSN4f/ouHti3kwz0Opl5sIwSzoVqFyLQMwmeReOKHBBsxkDUd5j1hX+VbDtzOzAFPECACZH5S8IoLd24iXwDwPfev4ZP3H/AQ+XDDvZkUcimcHN+FVNjA6SsM/PLuHF3Ec89eLSDlmhDB3aN4v1mEv1/eTNQIYZSMVz89C6k6VcfO+iZ5LGV/aPyXx1NXb2KP8qOyZefqZlDF1VVKSI1k8n4VGm1jDfoo+NLxC/T6BaPrA8d/3L/mstRavLQt3gsFnmnTSXzvh0juDW/jF94cRp33TRcBGdGee44v7aFib4ePFJzMZByIniO7xnHV1/7AAd2jCDvn7tuGoOA7/DVHN/R27+i0qR7Fq1TPaQpyxjQ1I1TyFMIIuEWE8KQBwmG+Z+kJ+zZZGf3VjaQSsQxJDxuEpTvVgr49ksL2DVcgwMvKAb7d0nm4u8MlPHs6SMd8lMrg2QqhVKLhzJlYp0ft1VNojqfk3FQOFUrDpVv6HDrYCheVXYp80r1jZtmQ0oZ3WQxHyaa2+ClDFDVx5aGjm/VUkJs85yNh86/Va7iRx9cQzIew3BfD/ryWfTmswi+lCXi3D06iHu8hq/fLgHBJrjgoTP1OqotmrfnHjiEF89cwU88dqIr2WZXNtARnRjatBnz5fF/EbTBy8aY/uVn3bVqwuhgPVSBFDkjmVY74/Nwm8dZ5qXVcvHK+Wn87FMnybF9Y7GGtzfjeHtzK8ocY+hNOvjdx/aSuDn3vuSztlnGanELK8USzhc5vNMaPLYd0I4q16m2Skx2qfNh0wpCzuxMwUk3vqYYoAvAcVEJcjFFZZtIbWLKhp5OEVRfHaxqdtXNHir8Kj78eTJ0nL5cBk/dvwP1RhNL65uYX93A5dtzaLneC7r5TBq9+QxG+3uRTScF55f2ZwD/D2C0weQzKUyO9uPi7QUc3T0aaVMZ2J/96Cy+8eZ19OcS4H6M9Ywyet3i3me+HCcG7h/DzDkLr1Ub3CY7EPuI/CXjDvqzPk8cAk2g1mwiHnOkPw5yjx//2uXA65du4vbiFHaP9FvZCwD86MI0Hjs6FS7f5UDgRocDYprpCEvjeqOJ+dUNrG2WsVmpgnOORCyG/p4chvp6cHD3GBZmy8CscFqDtKym+JP1ZZOlUEVlD3LbdugxRm+oq2zBxu+DYnW8jFjkSC/WU8KqIj0FJ7er+lECmwKgDKuiRwUunbIpnf3dPT14ajgTLuf6kl4qlUzEsWO4HzuG+0N8rsuxValio1TBhZv3UKnXsboBYWkWOIQ/04WO2zmw37+4jG+8v4npuWUc2LHmL4mEZQvzeAzuy8V7GOsB/uS/+JuoNt0wq+GCXEHgWlzfxP/10rv4pZ94OqwH2oEtnYiRhqczxkBncoDjnOM/fWQPvnhqZ4gffiACgH/xRy/gv/zpZ5BNJz34EL8P4/fZKlfwlT/9Hv7+Zx7Bm7ddrG41wkP+guDS1pFH+/KdJdy/N45/8ExfxwmhgPhVoM6MtNVy8fr568jHgVQigbGBXuydGEY+k4ZDHAj45FAG3/v4hJ+Ve6d8JJ2o3cl60/mQLhjIAUe2Z5UvUu0yT6rxlvtSQU/2LVlm+bfjeBldRFYpReXkFLwpgzG1q7ImXfYnt+tmfAqPDV8i/J5cAnty9Lt98sAyBhRyGRRyGewa8TZyhxdngbWtdtDyIIP0yq/ulO3aQglffXcBAMcHs/Pg/rKUgUWyMuYHwv/86RH80uePwWEM2aR67wIA0jEOtBqY6G0f9UwZ7e//8Douzxf9bym2TwF1HHTWsXYdC6+Bv3VqF/YP55FJdH59hnMOhzcxNdwT6l+ZxfVn8ZWf+xz+xR+9gBemcyg3vcPyPPG9IMP8LNHTsHf9g+sz+PmP7/ZPVI3aHQ8GrW0BYQBLxBw8enwKfUlHq8vgdyQdwyfS0aOzqaWbKTuklm0qf9BlvFTwUAUmlUw6nrsJTCqZO76ao3NmVbEJSjrFU8J2swS1rbPhXabTrT5M8Da6CidZhvZszryfRsvFC+9ewfGRPI7uHkMh2z69NPiQKve2VNrOyDxnBDiYsMGzb3xQ+bEE+TqdiKPqn+eu4/0b52bx3SuL8JmSnBsQl1AhjM9PUB7Y2Y8DIz0duAPHbLku6bQUP725DL7y5c/hra+8icq6+D1DTxtRzoLJCQIcC2neWlzDymYZYUrHmPDbfnjWpEtZJt1Eb7InKsMy+YOtLwb33fidCoeJL9sgGgasbgJEN0W3NOhGcaq6D8OXjFcV3bvVw4fR21a5ivXNUrtCQhOLOXj+1CGkmxW8c/U2NspVDPZkcXjXKFqun+ojmHVZGKDCTLHNJOmYqpJKxL0lrssjyxu5RBJ0BnQEqACICdyIzf5+mHaWjqAy220iFkfc/xBqwGCEq+DCS5/CIO66HHeW13D5zgIazRZ2jfQjn0kDmzVBjjadluui0WwCqej7grqiWgXY+qOYYX1U9LpZkaj4smmjYE39tc9hiR1slCKndhRReU+AwkvR63ZgVEWlQBU/lNHo+DKluio8AHDl9jzmVjfQn80hE6vC5S7i4YcWvNCTTXi/Y/0FjPZ5WcjaVgVX7i7g8p2lCD/Mz9A8v/L3LoQjZByCP92WQCoeQ7lWR07xuXpAOr20Y6uHd8QuodEH5uTjCBGoiIz0X75kOdrn7EcTVy5knTz4kwbnePHMFVQbDewe7sdTJ/Yhm0rC5Ry5S/eQjQeb+95vi7sAGBIO8Nr56zi+czg8uE+2DZP96GSg6hnr3MsS20R4Ck7XpuJB7iPbtymm2ARm+T6gEaeImoRXOaXMjKqvycGpNrFOpRzVjKSCURm+iFtnYDpcIm+6wWSMoVKr47Xz17F7dBAfP3kID9Rd/Ga5hgvT9/DwkSlxRQjGGPqT0QdQB3qyePTIFN65y/Ct89NCFuXT8G+8AIawkjG7pUCgh1w6iVLVC1hiveg0bhCvAoa5zwhj0eVhELwY8+GDzWxxpdU5dnXhg66UbkmnDP4nLZmj9tvWlcMYHj06hd5sdA+NAfiT58ZRb7WzNM6BK7fn0JvPYnywFyPpGK7cnsNL713G48f3I+m/hiXbUrd2qfKrblYwsq50tk3ZuC4uyO26YK3izyQ7Y8SHVCllUALriqqf7ByUQ4u/stJ0wZAqVD9qgEV4m8xOZWzdBO+Al+t3FzEzv4zHju9H1s9c+lIxXJtewFOHdqA3S36cmyztUzrF1EbiQXiO6eVzN5BsrWKsv4Cx/h4M9eYRjzl+BtJpVP35LIrlKkb72xveYvHzk2hgooaHSQ3BvV8lZn4yjZViCX35jFa3so45b2dm8HnkEXiPftAt5jDk06kOXMFkIdMe3D+ONy/cwPgu7+s4R/dMYHJ0ED98/yr27Rgmj0mW+dXZOuXUgWzUtXiv+jX5sa3PqNqogGcrFxW8g7qOB0epjlSGQGUMNsseU5EdXpzFqXRZN1OpYFT4VDLpcFGyyvipwa/WG3j9/HWMDfTiuQePRuR0XRfFchW9+SyJXyVz8HHQMB5wLoSuYC3EwgckJkf6AQ68c+02FtY2sbpZRr3RAgdHzHGQTSXQn89iuDePsYEerJcquHBrHqP93rlOiVgs/H6fyEN7ScjQ8aCpz5ffSdRgCCc/AiDKuVwsoT+fRaXeQLPVQq3hPYy5UixhZbOM1c0SVjfLKJaq2ChXUWs00Wy5WCn2g/P2S8jhWKCtD+brpxsbArz9vWQijq1yFflsGgCQy6Tw/ENHcWlmDi+duYzHT7SzLVkumSdVnaqvKRip7FUV7KiJVwdP6YrKqCifUK1wKBqcc/2Do6IAKkFU8DbZmU22ZpNV6fjQ8WRLhxrQoHSTUQXl5uwSrt9bxCPH9iEvf0oKwLW7i9i/c0SLx2bCAGNoPwaB9hLRj2j7J4bw2fujdERcm5WaFww2y5hd2UCt0cQff/8dvHF5BvVGE42Wi5jjIJdOoCeTxlBvHksbWwg//ipmUhH2GTozrzbc1buLaG6tYrXovTu5UaqiVK2jVKvj1sIqqvUmpudWEI95QbWQy2CwkMVgTw4Hd4ygN5dGby6NQjaDbCqBpsvxzG++gdm1WjSx8/WDMGx5fAXx0jaLA7ys6vzNe3jk2L4I7NGpCUyOD+Lls1cxNTGMfX62ZWOHNlmKqV4V9HSZjomm6Vq1ovqweBljnQ+OdpMq6tooxkxLRRlONXNsd6lqE3BNM51K4RQ/NZfjX17fQLXF/e/XAfsrKzjYl8azDx5Vvs5yZ3E1zLq6GY+QZWFFKMYMOUho/tgHxhgK2TQK2TQmRwdwav9O7Bsfwvfev4pf/MKTIVyj2cJmpYbNchUrm2XE3lohgpGMXN98a2EVo6k+TAz24sTUBPKZFHKpJHLpJP7ytQ+we7gfTxzfq8XRsV+josvQDlZo729RsLqxKOQyqNWbkc+5BSWXTuG5B4/i0q05/OC9K9gaGscHW67/HBqwP5/AT+/sfG9RRc+UEZngdcUWTlVUmdGHxRuU8K+E1DIoKLrlDQUj11HptHhNwVEpqVgoeBW/Jlw2PIsprQpG1A/nHJUWx29eWsNKPfwbFb75+ChO7OiJ8CziWVzbxHBfj3KJSvEblPCUTgZAyBjkEjilKkVXBe3eXBqrm+VIWzzmoD+fwUBPFruG+9GTvQIg+Dq0uJcGuo4HfLZpffbhI3hi7xCp55ViCQ/s22Gtn4AiFzbdO4sgu/BYg27Sopb9B3eP4srtORzfu5NMAo7umcDukQF8+dW7+NO1Nt2/MZ7FT+3IddBqq8i8haGzRcpuRflsfFols00dhVuHX4YX+e04yMIkhM3aW4VTB0cFCM7VJ4Tq0mLVml1H28SfSgbTzOFK98l4TLuOv3RrFsemJiI822Z1POKQukzY+w2eOBdpydci/p5MCluVGokzyGJ4uIfF25EiCBYBgwFuzttshjD6gLFSLGGwJ9fRLsKJkwvnXNgzU6qkTYP5wVyiK+uHynDGBnoxv1rsmERF+Hw2jbGhvrb84JFxEGnpaIqwKl1ROMR6FRxVKDpym6pdLlTM0AU38Tr8K6EpkKgCE5UlqJjQBZNulnQUbht+RFomJdvW6WComb3ZbHXABfyUKjUk43HEYzErnciB7+ee2oWp/hZ6c2nsGh4A595jBivFEmZXiziyewyuH9hczrF/JKd0eqo+l0mhWm8onQNA5CA6tN/yk+pYO82TgxZTn/wAAOulKvoLWbKNWpZzzpGIOfiXXzqGmv++ZKCD1y/N4OFDk+EfKzbKVZyfmccTx6Y6goismwC/nFHsHO7H3aU17Bzuj/QLAvr0vUXMzK/Dcz1PYNXxV1TWSwVQmTfxWpd56foFNOQ6qr+MR5XRmTJCse3/Ye+9w+worrTxt26+k5NGaZRzREICgQCRLMBgnAg20V6ztjFg4uewTosDay8YAzZgGy/YLBhjvGBswAQRTAYlJKGc82hG0uR8Q39/dLjV1edU9R3J3uf7Pb96npnbXX3qnPecOnXqVN++1dwY9d3Dki9SglRQ1BJOBWNKNzla6pzKTDjjyHS6gEwVXcqs6kEFFvd6XAgsGpJCRyYPC/Y3aAf2N+Htwwcwd/JolKaSPvp1O/djxviRRlwUJiEEosgiIfqxePYk3/VsrgRLVrbgmFHlbHsuk/P5gVM3kM0hGQ/unGrz8TGQlnyAdyNJuNxQSPdcAou/6S2E/RxWXAroXF/In0IAc8dU+njlLQttrY04dWqtr7460Ycx1fStBBULdTx1zHC8tHSd97tQF9fBtk6s3roHY4fX4cyJw9C5t8vZ7wyYXpnw8TEFmLCFCxQ6GrleNzGZsHF81WtqMqTzcQCDew7LNHB07UzRVcdHVYxyTkpxaqag8On0DBMMVb3K4xH85eThgbYd3b1YvmEnyktSmD2xAbFoFJlsDt29/ahwvhbX2ZEquXweL6/ajI8dPyNg02gkgmxe/8UK5aAUbTIe8z286btuuZsBuucuM+dYCH+dHyncYBY2mFK4OXp1Uuvu7fe+oZXLKTPH48m3VmNYTQXSibhxUpV5u9eqy0vQ1tWDqrISdPf2Y/mmnShLJ3H6sVMRi0YxCcD1kypJHrqJ1TRBq/hUOl0GpMuIOJtS1zhcuqRCh09tH9hxVAZqyni4EmY20g1+3cAKgyPsbGii12WZJnpdqShN49S5U3CwrROvrtiA0UNrIQQwsaGelWPi+876HTh2YgPSyeBLOm1wej7UgKRoS1MJ9A1kUV7CDV6fsMK62KX1mhBLR2eTQHU55nNcAnuYSVOta+/p8yYHuUQjEZwzfxqefW8dLlo0JxQvVf6cSaPw5potKEsn0T+QxfwpY1FKBEdKB10/cxO0jt400XK66IIdh4s7N2HW2Val8b352bRsCnudmvF09RQw3cBSMct13LmKQ0dnKhwGXYClbFBXWYbFx81AMhHDn15b7j3hHaZP5Pr9h9vRN5DF+GG1pK4UdlVvNaOk5FiWhdqKUjS1dbK4CvewnLQqwNNS1o1y4AIgLPKmu+Vkb/Eovy++qcj6tXf3oqo0RfZ7RUkKs8ePwJsfbiPtyGUQ7ueOxkP4YPNujKirwsmzJ6E0nTRipvzJVDjf5nhTfc7JCRsUOb1M/qfDx9kWgP2aLxUkV0wObcrMwkTiMB2lYpYHG3VO4eDaUXJUTCotN9gpXpSMdDKBj588x864Vm5AR3evwQIFPgOZLN5ca7/2i9KbkmfSm5LjHg+vqcCB1g6676AuCd2sSqEVbkCD8mn/qVveuMedPX0ocX7HSOHzxIbIdDt7+1FekmL1n9xQj/5sDrsPtpJYqNLc2oGXl6+HgMBVHzsFjYfaQ2Xo1PUwmXqY/qauFdP/HEYONyeTwmyipfjG5KgWdkljWrNy637Tco/iowI2teN4UHQqzzApbzHYOZuottuwsxGnHDMZsWgEmWwWyzbsRB4W5k0eg3Qygd5sHutbB5C3gDycl1JY9iMTyzfvwXFjxyAWDb4C3YeT6VbKJtQM52IdUVuJ7Y2H6Cwjb2F8sgcXnzMZ9VVl3rdvect9mYZF1lnOcTZn4W/L1gO5AVKHtq5eVJWmWXua+kQu3b2FXSfIJQiABdPH49evr8VZx6aRiEURgR1r7YeABSqTEdQko+jq7cfKTTuRTiVwxrxp3gtHOnv6kM3lzH3D2DqMXsXqH3aMcyVM+8HEkbA03m4NMgGgd1rqUy5qvbzkoNpRx1QgVYMMRcPRmVJmatDqAi+Fg8Kp2kfl2zeQQTwWsfcotyzEolGcOHMCOnv6sHTDDpSXpBCprscJT+9BNm8V7gs5Ky4I4JpIFieNQQCbjDudiKF3IIOUtNOBbpKh0nYhBOoqSvHO+h2krf7rhfdw0dxRuOyM2dq+o+S7/C6fW4+7nnodt33+PFSWpnyy27p7UV2WZrGGwe+W3oGMd1NdpXf5rG3L4Gs70vjazj2F+3CW5QX/m2ZW4dKaHvT0ZzBv6liUJBM+DBMb6rFtXzMmjxpmnNh1faHi0tVx45kr1Hg2yZP5UmOaSzrC6MtN6m4JbJFsUlKlDZPGqfXqAKfacINcNYKprXqui+oyf66juOyNCmwUdpXXB5t349jJYwM0FaVpLDpmMppaO/Dsuh2wrKi0tJLu+1juD46DOsj8aitKcbi9Gw1DqrR6yZ+5vIVVuzqQsywnsxBo785h28F+rN7T6WUcQggs27wLWw504adfWMjqKuPigvrEEUNw5vxjcP1Dr+Oy049FJBLx5Kzf1Yr2vgTe2tzq4YkIYOLQUtSWxQMyVT19PsT0jUzvfyO2d8E7PHC4DaOnDUd9dQXZvqG+Bn9fuRGTRg3zHglRbcL5GacHVTj8cuESEcqvORrV36ljavLg9NYFKU5+YLcGTjjXuabso5hCRV6TfF1b6lwX6VXcXOCmOoLLGCl+8nlPf7/3MgUK69DqCiycmYLYuAu+rXmlGd93C5vINIUQGFJRhoMdXRhZV6nFK9umP5vHVQ+tQUevvTVyIVwm8NIvVhT0g/1WnTG1lYHxrcswOdvu7YjhrV1JvPXwOik2F4L0g++sLmy8J4C7L5uO8+fU+2yrw2Dbhb8V4tmgUEMhxZihNb5gFQg+AOqry3HgcDtG1FX56DicvvYhJn2K1jSphpnAqXpd31FZLzceKGxqHdeWfHCUCkrUoAubRqrtdFkWlQ6aUlxutqaWBVRbXeam0ukGWxh+vTkLZ76+D429OVj5PCwrjV+N7Ma5w4M/N7EsC9lcHpmMfy91/3ZXAplcHplsDjHnRYfULFdZlsaW/Qd9101B1rIswFIwOddyFgCrEDQA4e2JHmZik+lUuXnA2xlV2GLgSoAoyAGc3VQB1j9V+ZZlvx8wEYux/mBvdWz/qFsCJhMBwn6Itau3D7GovdVOJOL37cMDeVy6OY9DvYeQTrQjIgQeO6Ee86uTgYlFl3mqYyfQRwj6JzVx6fqD8lvTuDMV3XiSZbG+J/Fxr8coB6KChipEPtcBMpUwUVs+p3jrIjl3jeoArnPDyqL0CQ5GC3t7stjbk4N7H2p7cxtWd7egs6cvoH8iHsO+fuFWuKMTkH6Tt7+lA6+sakM2Z/9y0YKFRCxmb7NSkkZlaQrRSAR9TuAL01+2I/mXThCF3aPsGOXo6kRP7ts9TgbX57YoJzBZhY31bN3kPgDUxyB08lyals4e9Gey2NnUgrauXrR196Krb8CzbywSRTwWxZaeiCQ0wArdPX3YvKcJeSfAZXJ5H5a+WAK7unPoyAnAsX1fjp+guUlRl42GGZO6AKDK0E1gshy1cLRcfHHpTPLUtr6XUKiAuIBkMjAFjlIqTNDgMi4uw1N1MAVbrgMo3Fx6Tc1qlC28c0DKkIB0Io5xw8tRlk4iIr3A0y1b2gcgVuz0z/I2CADA8NoKnDN/mA9fJptDe4/9vsPGlg509fVj+abdyOXc/EUgFY+hNJVASTKBqrI0Kp3tZKJRd2b20Np4LHcZWsAvIFQ4gSyHm8W5Psg7N+WEJelr+Xdfh3ADWeG1XUIIZHP25oft3b1o7epFT98Auvv6MZDLOc0EuvsG0J/JortvAEOqyjBp5BDfts9uiezvBdbtJexuY6ivLsexk+skiH5/3NXRB2xqBKy8Z6CICI4Xk410QYLKKHW8KawcPYeBy2LlQmXx1JjVZcSUfoGXUKgCqUI4EwO2AAAgAElEQVQJ1Cmm40nxCYOFow+rjwmnHBzdwukdRk7hs7DEcUtNeYn3TBBlT1FgBv9U7yyRrKADxmNR1FWUoq6isG1JR3cfzjt+unfuDtruvgG09/Ri76E2dPT0IZ/LwxICfRkLmVwe9urMCRceBmd3CClk6X60TNmH6yv3SwRbpi3Dzu7g2cOzixD4YOte5PqaAQhEIwKVJSlUlqZRX1WG0lQCpcmEb4+qDbubkEzEMH6Y/3eEgb6zK50g7a5PnYtCeG/34UoyEbfbikJD94fO6kDk7ML5H0WnTuhuG7mEGbthxiTVziSHas+1kfnLtDEqyqrEOqA6wBQfDiSXAanyON4mTFS2x8midODkucc6PWW6VFTg/nlD0J0t/CB6Xk0qYAe5bVUyiutnVmNH4yGMH16HbDaH9q5uDKupREQAc+uSAVnqsVPhO00l4kgl4qitKIVlVQXatHZn8MPnWwCRlbaCLywDhfPiCPtS4c3SuiDO9QM366pFOBmenM3NnzwKZ88aEqBViyuntasX00bXB/ir9m8ojeH6WdWwLCCbz6OptRNDqivQ3NqJspIU5tXx/QbYb/x+cP4Q9Octr68nOt9mcv3EjUWKVqanfFAuWr9Q6nX25zCyfUW0VWUVg9mXYYXNVuRrnHJhg0mY42KucbjDzmhh+YTBRdXHBPDxESU+LG7hgn9tMoJvzyjBpookFkyrg2VZeGftNpw0y5AhqEFbPmaWY6QOlp0fCCfTsu+fSVwtC4DlLXd0upgyUADeg7He93RuhgM4uy8X5AsBMtPRBYG27l5Ulqa1k5oQApMr47j7RHtL4+bWDrR2ApNH1aO7txKrt+3FSWPK2IxACIFUBLigoTQgQ6al7KWOFy5boXiZJmqucLjCxAAumaD4q+0oWurclRFxDeIykM9lYbo/CpgugKmRk5Nnkk0V6rqpjuJHBeKwfMLgVzHL8tS2APD++u04bupYCCEQiUQC7blPmYf7mi5VP47estythZ064dJYXrbl7a4gChlWWDycbNtX4KRRvjDrfCvpvvfGrouIoH2prNgteavw7kMVh1pcXo2H2zGs1t5hoTSdhBDwfkIl81H9nDrmxoJMxwUMyobqdZVP2LGky5w4mdQxlxHKAVj1eUoXKmuMyFFZPlaZcLOlLqVTjaTKMBVZKRmDLDeMfN2so+IxdQpVp2JU8XGzoy7Vl6/vPdiK0UNrvZ98yDS64KDqXVmaRnt3L+kYFB5Lum7nVu4OngJujVwijE3UYspK3Z/veHJd+3n/HF+Ca2c/b0ofTyclK5D7iMtohBDo6RtASbKwb9Wxk8dg+cadPh24PqewyDKpQvkXNxZkOSp/zsZcH6hjmhonugxJDZCmjI27RsUMIUTwx8+6wU8VtYNkRTh6To6uTjdzUUU3i8l1ukGv0pucS51BVF7cIKKwy/QbdzVi6uhhPpq8lTcOfFV2VWkKbd19LC4ZXz5vYfmWPRjI5iBg39h3kyrpA95zWpaFrt5+9A1kSJ7czK0eW5aFnv4BL2OzF6CFDM6lEe65AN5et93bulmX1difhRvfVOYhY1Lbu89ZAfb9v7KSJFo6urWTHHeNynDUoqMzYafam+xvsoNu3OomThNOHVa1LqI2BPjlkHyNAqMruggdpphodR3CzWTUrBeWZxh6l0bXSRQ/uX7T7gOYMLLetwy0LAvxaNT7+l/HS8ZYnk6hs9f/rJfc3sXa3deP/3lrFcrTKcSjEbjLPpeV5b4wQgh4z4UJgWQ8ir++txZ7Drb5MIW1Yy6fx1/e/RCNLZ3OOykKS1HAyeiE1N6yl4jzJ4/G88s3YNPe5oDOqsxsLoeY9I2hKduXsanfgs6fMhYrN+8K0OomUV2dbvIyFc4Xw2ZZxchUx1YxuEz8TG3J1wrrgkMxQcbUzjTzcsW0DAwrP4xsnROGwXAkQTmby2HvwVacOW9agC4WjSKTy/lmfVNJJ+Po7c/46lRbbtrbjFXb9+H8BTOQsyK48qQ+9Gfzvl0WLMtCfzaHptZODK+p9OpHVqdwwclj8PIHm9HY0o7jJo8ONdFYlv0w5/PLNuCsY6egtnYA8yZ0wLLs+02ZXB7bD7Rg/PBar07+nDK8AuNmD8V7G3bixRUbccYxkwKv2nJ1zeRyiEu7J5j8svAZpI1EIhheW+nt4R6Wl6o/1Q+qfYqdsOVsn+MzmLGsZs2mMVOsDGpJKWP1fprDKaCuZ03RVWfgwdbrMHC4jqQzjmbRYaPsvq83i4d3dkIAaOvsRlxU4MSchZKony4aiSCXy0Mk9A4vFypguSWTzeG1NVuRTsTwmUVzvfqvnzeBpX/lg80457ipPt0A4Ox5U7Fq2z48t3Q9zpo3BYkYOS96bdbtOoBtjYdw0SnHIBGPYUgVcPLkQgA41N6FzfsiWDh9XKCtrPOJ08dh/+F2/PmdNTh11kQMrS730Qkh0N7d5+0CwfGhMLppnkrbV1WH7y7fiSmj7G8r65JRfH5sOfnUv44/5xNhfFs38euW5SYsar3Mt5isSCeHC6JUQLQs5sFRaiCFmQHkm2OmdJNKhdV7Nyofua2pQ9Qor9JRTkLxVvFwNjLdQ6KwyjZzy+7uLL7zYYtdJwRKowLXz8qjRNlTqcrZN1zd0E7FNZAH3mjsRiZvL6nebwMyO7vsTAkWhpXEMDGZw9/XbMXC6WMxsrZSaytXRiwawUA2F+gn93jOhJEYVlOOv7y7FqfNnoghlWUB2nzewqurt6A8ncTHT5gZsJ9L39jSgeE1FaHsPqK2Ep9cOAtLVm5GfWUZJo4diR2dGW8Pq637O1GeTmFdaz8EgGHpGKqTkQAvv0/762SapS39+F1rDGg9DEBgemUcV44p916kwfmQafnoFmoM6oKCbgxx17hxoMqnMh6VXq3TJRyUPI6HK5P8LWGYtJFOm83K6ZSg2oRJmSnZJjoKKzdLUTx1M4GJh45vXn7ACPayZ9eBw0jXV6Jc2oN8SFU5tu9vxkjndVLczNfWn8MnX9qPnqzrEDFg537v+vyyLG6dCHz8hBlIJej94Fm7CKJOOh5WXYGPnzATLyzfgIkj6jDd+eJACHv30JdWbsKxExswznninJrEAOBAaydOHjFEj0UqiVgM5x0/HWt27Mf3X1qLexrT0lULAj0QohUCwM9OGILrZ1WTvNy+be3sRnV5iecn7V29aGxpR09fP7Y357y+sk1i9iHd0ozLbtSJlyvcGOJkhsWh8qLk6jCFOTaNQYDYrUF1Gs5YKnBdxkPN2CooU+QOMyvosgJVT6qYcFJ6UnbQ6UcVv0wXDAABRIVAKhnHtn3N6Ojpcx6StNus3roHQgiMqq9BVVmJj18Bo09BQP6az7ID37nHNWgzAK5vaspK0NrVi5ry4HsC3TaJWBTnnzAT767fiVdXbcHpx0zEzuZWrNyyB+fMn0a+uUaV1zuQQSoRC9iZm7Xd49njRmBBpgRobHaN5pnWcv5Zgvax/kwWe5pb0NTSjr3NrUgmYmjp6IYFoLqsBMNqK1EytAYN6AEaD8N5opXMrFRc1LhQ5cs85EL1j+lcNyZ0tg8zzsLw0l1XYwxVL9f5XqRqGuC6LIOjofjrMqBiZ58wvE1ZECeHw0TRU87H0avY5OsV8QhOG5JCDvbzSCVRgVG1lagaXhNoY1kWxgytw57mFqzdvg/uQ+fCCUYlqQQSZeXw76MFL1hBwPftYzF2B4BRQ6qw52CrL2CRSwkAC6ePxa7mVvz4j69g5thhuODkY1i+sh2zuTxikYh2ItP1RSQaLRjFgi8bAoC2jm4s39jmPY7hlngsitFDa3HC9AlYm96HscNqUeFszyzLG1WawalD0s721cCE0hiECNf/uiwnTCal2kEnS1fvFm51I7e3l8hh7vmZ5bm03BimgllMbUQpx0XoMJFRrqf4qcZQ6VQ88mBVeYSRS/GjaKhgzGUgFH8ddt0Am1WZwKunj2QnEH8be5+ryrKRPhq3XU9fPzY2tfsf8HRZOj8OzBP21GVZMv7ailJsI/Z3p2zbO5DBmh37cc78qdiy7yB2H2zFaOWbNao/e/oHUOLsva7albOzXG9JmVVgixhh/1h61vgGpJJx0uaA/aKPZCJO2uWChjJc0FCmxUVh42xKZSU6X+BoVBmmzEkdx1QxBSJT/OB4meTJtDG1kiOmGuuU4/hQyql0lBLFpJeDka/WheWj1nEdEEZ/eQbjePtpg+3l85JUEmOH1SIi2gHvB4EoLA2Ff3tlHS8Ku/tTH24ycY8bWzrw9vodOHPOJFSXlWDOhJF4ddUWNB7uwPFTxviSHpXXvkNt3hcBlA04ue5nHijo7SlQOK+tKEXSWW5yA74/k0EiTm/4p9JyesjHYQa8zDds1mWaECneFFZTcNXFAMqHOf3UyVrlSwVX/289BlE4Q3Cgde11hqMKN5DCpKJqO5MzqEWXoXGOwOHW4VL56IIjNbls39eMfD7vLIvgC1YAyM1/KYzsICNwye1Xbd+HD7buxSdPnIXqMvvGdUQIfGTuZFSWpvHX99aiP5PztZNtuLu5FaPrqwPXKXuo8i3LUgKy5ehvuUTYtrcJbV09Pp8lA6DBTpT+XBahs5dLr9LqBrZ7TAVwWb5qWyroqzJVOkp/3arLPdYFc7WNahO5bVHvJVSLDES3rFLbqKB1SlGKUPw4WlUe1U5Hrxrf/eQ6W8eHolF5mvSjaKkO33+oDUuWrUMsGnF+gygK0Uk4g9byZ1iq/XU2cq9VlqTQ0eP/uY8Q9gss/rZsA/J5C+cePz3wIKcQAlNH1WPRrPH4n7dW4XBnD2mT/mwOyXiMHAQqRsoXfAHL098jwrjhddiytxmvrtzg/bxH5mU5AZ7yA8pe1J9qGxN+btCb6FQ5qr3dTy5D0mHXjfMwiQIX1CgMuuDmewmFLrWVBXHnVOTWBbKwQYTDoytUAJDxcbMGN2NywYLjoQvW1CwXNjt0r/flLWREBO39WcRjUcQjQCIi0N7Vi/fWb8PIIdVYfNwMDOSB782LI5u3v8HafeAQxg2vgwCwZc8BnDW9UquD7Btu2dGRwU3vNiNnAW3dAvEdTUjEY96N5zOHRDG2ez/OmDsZ9ZVlgQAvn9eUl+Kzp87Fc0vXA6WVeOJQ3HtmKiKAPQej+Gv/AUSEwOKGElw0vpz1Owr/jOoErhqfQN6yn13b3dyKEXXVyMN+ZGTOkBIcP6wWmWwOS9dvRyaXw/ypY1GaSqJlII+8ZaEjB7QO5FAaiyAR4ScgVy53Xe1nKgMqZvxx8riJVcXBZTaUPMp3Od05Ok4X05jy6ZbP5y3OkDohVIZBGVM3GKkAKMvlAiQX7XWOq8uIdMGNK2GCThicFD4dfvfzvDcb8VpTj/eqq6+MKcHHYh1IxGOYN8V+sSrF8+0Pt+CkWZMAAO+u3YYpo4ehpqLUKF8uqw/349gnd9k37IWUuTk3hy4YDjx6zjgvM+L4qHb744f7ccl73QVWSrnlmGrcsaDOOMBkWXnLwqsrNuDUOVMQj0XxztqtWDBtPKLR4FbUANDbP4Cl63cgHxH4/O44dvcUlqu/W1CPz40NvtKL86cwQc2UBFD1Oltycjh+ponS5J+qLB2vsHQ6Gm9JqKaAVOTVzWq6jEIXxWWAqlxd8AybnVHZnCyH0pnreE6e3KGUHB1OCp/uuvvZl7PQmwe6cxY6sxYOdfXi2CljsGD6eO9Nw6agO3/qGKzYtFPrjFR9RK0S7p8AhIXhtVVISd+qcXxU248ZWuPcY5J5Fv6EQSfq2pY9TRg7rNZbklaWptHR00vSW5aFdDKBU+dOwZyJo72Xeth6icKO8kSAovxJh5OjC9MP1MSrs6+On8lHiqEzjfOwdBSNq2tEPqEGpnpNXh6oKSB1TcdTBsjJ47Iijp6SYdLLxFsnT5c9yscmO6j2M9XbjyM4N5EtYERNJUpTwYcw1ZLLFbalicdiGDO0Flv38bscUMX3TY0jv/A0ph+z6hOUPu6xd79JhWHZeqo7i3J9704gmWwOu5sPY8LIeu9aZWkaHc4WO7olTEkqiZjyG0g3UJsyAw5jmHpKH04GNTa4saUbj9T44+RyNDr+uhJ2bLoYfdvLhI3I1KzPzTCmmTXsNW62LmamCput6XiH0Y9qY5oBdVktVW/P/cKZ/YmshyjZXM63TAOASaOGYnfTYWSyOePsWMAEKaNyUx+4lcgruNUMlMpEAXi7m1LPS0HYS98wfe/WLdu4A/Mmj/VdLy9No727J9CO9hdXWWl219pF7y+uHah6io+Ngb+XStEXkykXQ1dMthym6JaiOtv4phAqq6Eyh7CgwoBWO4frLJNMasYpps3RoJPpVflh7gEUI+P+Y4egPZNH3nl7zaiSQldy+vcP2A9AyvKEEJg9YRRWbt6FBdPHs31uAejq6cOGXY3Y1DYA+zctbsrhUUL95tEtYfom72ZrzMMWe5pa8PcPDmNEbRXGDq9DPBZlJ6bu3n7kcnnUVPj3VI9FIxiQHqOQbSHrnogAr58xApm85X2ZMDId3LJGbq8eU8Xk32pdGB+meHNYOJqjMRYoXhx9MTJlPjG1wj3mAFJATIEmzPKOM5zcXm4bBis3+KhzE05TJ3BBiqqjzrkBrdrFvT6jMmG0s8qvL5MJPCRpWRbqKsuwafcBtHf3oqIk5V3P5nI42NqJ7Y0Hkc3mUFaSwqzxI1HdJ4B1O+0URLaDc+zumcVho1J9tx3cV+LIx04ZO6wGp86pRePhNizbuBOZbBZl6RTGDq9DTXmpk4jZtnz7w604c/60gN3cbaZNk5oQAmNLYgH/U/tE7auwNHIW4dpDzcJUXqY69RoXBOW2nDyZnpJnSm5MPHVLT9XfZRkxmUlYQ8j06rF6Hibb0UXhMLK4oMrx4TCZznW4dfI5Xahi0o8K5tQ11WkBIJPJISIiZLvjpo3DW2s24+RZk7C7qQUHWtoB2D+OPm7qOCTihQwuOjCAlLCAeAQR2DEll7cQj0QgBHDocCt2N8UwRnrvn8k+vf0ZLNuwA8loAhYs5CzYWzPDjot5WN6ScERdNUbU2Q+Tdvb0YWfjIazbsQ9RZ0O9XD6P0UNrvC8fZJnRSAS5fJ70d5PfhKnnApLODqbxUmxWpPML+ZzyEYqewqoLOrr2KkZTCci1pFbUrGCKeFSdCbxp9qUGXth6+Rp3rtZxHR82eIfNuEw8OTkUn2L49ecsbO/OoLmlA/l8Hg1DqjCuNI5YxLZfT98Atuxtwuqte5BOJrBw5gQMq630DXi5dPdn8Jflm3HqnMne+whXbdmNqaOHoSSVQDICbNy6C+UlKUwfO8LYFwda2rF66x4smDkJHfkILAt4d902LJgxAZaTae1ubkXSyuLEScHfTbo2yuby2NvcgmfeWYVZ40ehsiyNCSPrUeG8pLapL4vG3izWbNuLWRNGoSwmMKk84cPCZUbU9aN9jaPVjb3ByC1mTBeb3R2JbEovt3gBKy9tDE7NBjrjqW10gqlZRC6cbBUHZzCTDC6gUHpydRxWSg7XhuPH4ZLrdDx01zd0ZDB3yR5YFrxHA1afVoeD+5uQyeZQmk5gUsNQVJam8dKydTjr+Jm+RwhUWX97dw3OnD8dSSnr6uzpw9Z9zZg7abRXt2VvE/YfasOpc6awTrhxdyNaOrqxYNp4RJxvDrp6+7Fp9wHMmzLGp8vrqzZh1vgG1FaWkf4HACs27ULDkGrU11Sgs7sX2/YdREdPLyJC4KmeNO7bl7HphcAZ9Wm8dOqI0L5VbDALMwY4u3D+qcqizjnenPzBju0wdqGwmPTT4Y/JjSlDq5+yENO5y4fqNFOQUHly0Z7DrbYzzUjqpymomAImhTPMzMLVUc6gGxRyXc6yMJB3mQIQFvYfasNJ08Z5zye59MdOHoMVG3fiuGnjArYCgHfWbsX8qeN8m/1ZloWK0nTgPX2TRw1DbWUZnnt3Dc6cNw3pZMLXH8s27EAqGceJMyb4dNl54BDGDq8N6HfqnCl49p3VOPv4mb4lqiuzu68fPf39GOrsTlpZVoJjp4yBZVnIWxae/6AJWSsDQAB5IMsEHq7ofFDmY5qU5HNqjOjoqUL5HjXxqfJUWWGCsk5f05hQ23D6cWMHcN5LqA4UDiSXVag07p+unVonBxW5vXxMGYTjxwU2lUblwc0InK5UHWUDHW6dLah2utmakpmXT5zfEc4cNxIJ5REHwL5n1TeQQWdP4e06rrzt+w+iojTtBQQOp1xqK8pwxrHT8PaHW9Dc2gHA3g/+paXrMGpoDWZPGBVo39rRjZryUrK/PjJ/Ol5ftQn5fNDHlm7YgflTxgUwCCEQjUR8O7YClu/9h2H6xOXF+SdFK59zReal1ofBRtHqcKrHOj3CXlcxUD5K8aPOdXpHVMFUAy4AmRRSaeVP9ToVIDhjmPhRdCpPk37cua6jiw1gJgdQ67iApPKi5CUjAokIELfTakQ0Npg3pfAEvFvaOnuw68BhzBw3krXPkKpyHGzrDPBNJ+M4fe40rN+5Hys27cIrKzbglDmTMby2KiA7l8uTmab7l0rEMXX0cKzYvNOn94GWdlSVlSCdjJPtLMtCXNg2SEYEUtEI4hF9RhDGL3Q2V2nk8zC81BLGXzh+uhIWs4rfxJ+ziU6+LikB4P8tYZg1r1q4ttQ1CiiXyZjayfjUAa1bL6t66bBwcij9OKNTtuT043CGwUPZzr2esYDG3mzhTc4ARpfEENXotXrrHtRWlGLkkGpkc3ksWbYOi4+bgXgs+BtF97x/IIOVm3fjhBnjffZxj7fsbcK7a7dh7LBaLJozhcR7oKUd7V29mDpmuNZeH2zZjfKSFCaOrIdlWXjh/bU4+/gZgWAnt23P5NA2kHeecRVIRQSGJOkdVymZXF0Yel07rnATFTdOwvgghScs7jBtw9osTB117nvNFxVsiim62cTUjls3c4OYcgKdPJk/F+A4HqaAp+LnApvaXjezcLy5ftHNinFhByi1vay7Wv8fzXEsWd2KZLwDVt7CF8cNx0edHwxT2C3LQiIew0AmS2JYsWkXhACuOPtEb+ub0+ZORSzqfy5qT3MLZowbadRpzsRRuOv9bYh2xdHV04sBUYmyw/04ZUiatW1lPIqKmP+xDqqfuXqZl26scNcGO764/g5z20LHj5oAubFnGhdh7MWNN64/KEwxtQNUxbmorAJTwaltKeFqO25gcp2rw0rhU9voHIgyIhf9dbaRaTiZKg2lE8VLxkE5H8dTrafwt2fzaM0CyOUAC+h3fpjC9bF7HI0K5PJ575GIbC6HV5ZvwPRxI7yXjY6oq0J5SQqvLF+PhbMmenulW5b9iEVJMkE6sqr3e/ky/Gl1C9wdRJuiXTi5LsXqpvuUacNMEmHHDWVvigfnu9TkyNVTPibz5vBQ9JQ9VFqVDzfxUzSmAMtd9/bD0kV8znE44apyuplSFwDlel3HhYnMpsBpcgTTDMrJUuuojuAGvyrDxE/Gops1KcxqyVuAu+87hEX+jk8d3O0DOeyIlWPPlkMYVlOBfD6Pnu3bcNqcyShLJ33tK0rTOHP+dLy6YgNi9UPRGksjk8tha08M4lAfFtWlAljVvsh5JrFxyrekuECvDiRucpXbUX3P2ZAbqCqNbnLlJkiKB+WbXBChcKq+wmGn6nTByoSL4s2Nf5kmxnUQNRhUYKZimt110do9N2VlHD6dcam6Yq6bcA4Gr8qLa88FPlP/qO1MAdZ+Ok8AlgUI4fvhLzVYhBBY35HBlR92A0IA6AIAtH9yOsoTMVJOPBbF4uNn4Mal+/GLne1wf0B9bq4Npy4q3MPi7Ov79hNAlAiqatEFJpO/hqnXjQ+qD4r1b11SQbXTrQR044+yty6w6BIa0yRJTUocb/Id4sUEJUrBsIXLNooJJIORE6Z9sfoUQxtmtuHOB6u7yZHV8oOZNbiuP4e8ZX/9P7Wi8O0bhyev/PYPAOLR4E1tuU1ECFSWpgFReIwiT/z4mcI4oTSG+dVJ5J1HFOQfgOvKkdgTCJ+l6uQOlo6yYRi+xbbT0evGZLHXim0f2K1hMB1oAnM0+BwJtqOFY7AYigk6YYJrWBwcXZgl7MK6lNrMWPIW7IzM2W0v7BtOnGdr4O76QO32QJXbj6ktfPMZjJX/sBJmAFL0Ya4NNhjKbSn+/4zxw91W0ZViMcWKUSTsADDxkItu4OjW2dx52GJKPdXljvvJORR338HFbrKRyVGp1J6yg4pT5aFipDBT9RQelUYIoCTmfOsHICYQ2NpK1QUASmIC1YmovZe7ACrj9PbFahGwMzT3hLs/xekS1neOdII4knaDvabShZGtuz9HXdNNxBwvaoxx8qhgyz6HZQoknDDdGptzJJ0SOjrKOJzB1OMw8jn+3HVKBiVT5aVrK8vQBTKdU5psSunG2YzDLddZcLaYgRO0QvYph0vnXyY/1E1sOl11NtXJMg1OnRyT75gwyTLlogs2uv4PE0B0E6fOVlwx+aFvt4YjLaYsgaM31emuh80IdG2LnRUHO5MOtvwzcB6NvihWZjF8wso6GlnO0e7fo9l/xeocxo5HUooZ82FoTbYiX1UfNltS6zhe3KyqyjBlcSq/MDOJzEtnGB0m9ZzLDDgddBgpPSh8utmOk01hKMZZTMGKOw87iYQNSrrC+ZkuA+JwUTqY6NzC+T+FjeKvG8zFDnSZjpvcOXqK1pQgcHan6HXXTXRCiKObYcmFCjj/qBmMkx3mehhagL85WozcI8FzNG32z84QXZnAP/cm8P+LpVi7/L9sx8FgJ/d0lws1O7j1ajtT9OdmOi4KU9kLF+F1wYMLmhyPwTiNDh+FQdWRk0/Z3jT4w8zyXFZtsoUu6+aw63yFsx2H25R1U3h056pOuj7iSpjsXacLVXT+oPLVZZAmm3J9Mxg/DjN2ddkjR+/LGOUN/CjCYoupU8J2mi44Dabo9BlMcCwGRxj+unZhBudgbF4MBq6umH4ZrDxOrtOggeoAACAASURBVM5vigkOHI2pjc4ndIPY1K+mgGHCF2aC4fTgrodNZo6WT3GTduBRmWIUpIravthzHV9uFg3bvphrOpyDDZrFljCDJUw77pyaZcNgUG1RTB/KhZJrGoCma6puFF8hwr300zezG7DqMiXuOteewq5rL+viDvYwvsNlnZTOVB0ln7KzDreMmcocVT0Cb37Wpc4yc50xOEfgDMDJKMahVJ5hccl6m9pRhubacDiLzUhUubrZWseDOnfxc3YcDC/1mKJziyuX8wHTIKDkq/x0A0YXsMPUmfzZFBR1/Ci+lEz1PMwkROHlglaY4gYWDguFVW0vf6r0vn61iJGjGwxhAolMp6OnBl8x1yglKdkm/roAE0YvEw9Oftg6iobSl+JD2aIY/IO1IVfC2Juj4XQyYRmsD4elNdmyGJ6Dwc8FqcHatRi8R0Jr4kHhj8hpl5ri6ZYSunSWEmRKn+UOl+Vwg1XlQeFVeav4KH241JTCw2GnBjkXvMLoquKmZkWVDzVT6rI6GTtHT/WRLJ/ir+PByVf1UeXoeOmwmPTlMJt4cX3Btdf5Hkev8tL1AdeHJttw2Lk+U4suXsh1lM6UPEou+ap6maGqpEyrCtYFIgq4SsPJ4IIRxY8zhGoMalbS6aLrODWYqPQcXl1WQ7XjsLrXKMeQSzFZgErPFVV3ro/DBEL5OjfDuvQcJs4GakCUZZuCBhcMOL0oel3fc5NLMYFSruP0o/qJoqfk6/pPtauOVpWhk6XyFcJZEqoDJUxqTQUcuT5MYOAUoM51wUaHJUxbnb4qT8oOplRcx09Ha7IDVcIGo7B0YXmECTJqO53tKYycn1L83UL1EzcxhAnoHCaVhtM5bLuwPlusHYrVpxifLUZP3djV+ZUvw1JBcjMEZwAOiK6YjK06NhdEdJhUPLq2nL7cjEvNphwvnQyZBzcrcbMQhZfCLcuh+Kj9TWFS9dT1nQmvzu90dbJsNSOQ6yinN/lD2D7h7Mr1dVj+MnZZH93EQNnBpBdnF5N+XKH8Sg2sJvvrfNP9jKjM5cIFAE45KhUNGwhUZdTUVe04nZG4AW/SgXJ2qh1lK7WYAonMmwvCVOfpAgNlC5N+FG/K1hx/biKh9ObsRmU7FA1VONuZeLj6cZmWzJfzYSr4Uvrrgq7cjgoeOttw/aTK4jJ1ro7CSI099Vi1r04HU6zh6COUYFkI5eDcsa6T1I7RBQbKwNxsTilOORwVaHQBUi5csKAGAIWFakM5FGUntU7Vy0Sj4tENGtVeFB4uMOiCXRhs8nXO2VU+Jt+U8XC+RGFUZVPBSx3IFG75mLMJhVnFp6NV9VR1pPRScVF24GRw/WsKgpS9ODxcIBdCeqyBm/2oQa5Timsjg5KdKIyD6XirBiq2mPQ7Unlh+Rf7WaxcU/1g2obFcjRky9cBs+2LxRam7ZHYNIysMONCPgfMAeZIfCUMzWB9oFh/dou3JAw7KMMwl2emYpycS2Op1FuVR0Vt0zKDkq/K1c3GulSdw6s7L5a+mKL2p842uhlQ5RdWto5ezWIoehN+dXY34eGwUf7KZdhh+HPnqkyXv+xzlGwqU+SwmK6b9FBpjtQnuKzR1EaWT+44ykV9VRgVJdU0lAtanDwdDYePwyVfDxM0Kb2ozuJSYJWHykuVpWLjAgVHH0Z3dRDodNVltpTdOHpOV12fqPxV3ioPk14UljBZv8m2FF7qOoWdwqGbHLiJz+Q3YWxFjVEdBsoOnD0pLDoeYfzaO7ekq1wmIRddgOMCF2XwMDzClrBBV9WRM5YpA6Rw6mxnCiLc5KAblCabc7Ip/LpgFUbOYPWjbMUVk55h2oW9HsZfB1uKGQuDlR1Gp8HwMo2No90nFN0/bD+sf2YJ2+n/SEf8R/I8Ev5HgkeXbXG8j5b+/2g7hpFh0j8sn7A4wvIZTBD+R2D5R/WRjm9EJaTSXuqYExSGjqPXyS5GPlDcGnkw8orB4p6H4U/ZgsquiuFFnYdpTy1nZF3COPTRvBYGfzG2kW1J8eb0V3lyy9AwesglTPBU6WTsXIBVdaN0VdvKkz3XnvMNnY46vdxz3crFF7DUDlIbc50nX6cEUU5EtdMBla+rvCkjq+3UjIvCrLsWtgPYVFbov0LmHEYnh8LF9Z2MTW3P2SbMwOIGM8WTwxZmgJuCO5dB6yYAUyDmrqvBjsIEBL98CkOnyqHkmQKwqvuRYpULd3uBCpaUPpx83bkPpyWdqZ0Vdvmka1dsCdP+SGWYeB1N/keKh5s1B8vrf0uv/82iBrT/L9nBpMs/W2dOzmDlq+0CGZZMFDYTkc/VmVs3A1NFFxSLLcWmpYPJNnR8im0HmB970MlU6zleOj7FlrC8TLOpWqcem/CFyQrC+nCYbIzDoPo9VRe2hKHX9al7fTC+aPI1jo4bvyac6jWOLsYJpBrrlodqFKeWHNx1Ls2UP3WzBDXgTcpTuhR7T6bY7CVsBqtOGNxyR7WLal8Kr+pouns0uj6m2ptuGehme66/VRoZi1qvC/w6Hqp/65aEVB/pJpliVh5hBz+nh4mfjlcYXw6L3xQbdPJ1x8BR+pbQ1BlhOqsYOUcaHGQawOwYg1mick4Q1jmKka9rC4Rz/DDOZJJlCkYc7dHwjyPhGbavjgaGI+3/MMHe1GawfQXwz84dTd21eI9GwBpsCaPUYHgMFsfRCqz/G6XYgXC05RUrN0wwPdJC2aQ/k0V3Xz96+gbQP5BBMhFHaSqBklQSyXhs0EFusLTF2nGw/Vysj/+zx0JYecaANdgMI0wZTLv/2d6Jfd3ZQP2VkytQnYwWjQEAVhzsw1sHegP1ZzWUYFp1clA85bJ2fzseX7GHvPbpOSNx7KjqI5bR2tmDXzz5MgYyQduYSkQI1FSUYmhNJUbX12DG+JGoKisJ3b6jpxf3PLEE/YOQLYRARWkaw2sq0VBfjRnjRqKusuyoDZZcPo812/bihfc+xCsr1mPb/oPo7u1Hd18/+gYySCXiKE0lUZZOYvyIepw5bxrOWTATx0wchUgk8I4WX1m2YQf+8tYHgfqIELj6k6djRF2Vrz7sWHr+/Q/xzodbA9fSyQSuv/AjKC9JwbIs3P/nV9F4uD1AJwBcsvgETB87QiuLK3nLwm+fexM7Gg+R189ZMAsnz540KN66EiaBickzHbeGpmKaSh+GhuKna0dh+sXaNrzR2AMIAViwewfAR0eXojoZDX0/Rcby6v4efP39Q4DlMBQWYAk8fPqwQMAKy1MuP3xhPZ5YucfmbVk2Zofkg72teO4rp7D3R8LKaO/qwe2//xu6+/o93j4bWbD/CReDkPSFdywiAnWVZTj7+Jm45bNn45iJo1j5Lsaunn7c/tjz6Orpl3jBLwtSfYGZH4sQqCorwSmzJ+H6ixbjzHnTtLam7CTje23lRtz627/gvXXbkJGDqac70NM3gJ7efhxsE9ix/xBeWbEe//7Q0zhxxgTc+oVP4LS5U1n5E0bW4w8vv4/t+w8WLjgm3bi7EY/fejUikYjR32Wee5pbcPkPfoPWzu7A9Zs/cxZK00mPR3lJGtfd9XvFxrb8t9duxfM/vRnJeEw7JtSsy7XbNT97tDD5SX4yoq4K111wplYfykfD1HE+L/dzRK7kCHU3FXVFBRdmsMvtWHqhfBpkU3IsS/3WxgkkkAaxREcZmpoNVLmbmjvx7NpGSYZwmQACeHFDE9bub/fxUPGrtuGu2QTC4+0FLo9cClKWc64UK2/hYGsHHn3xXSz48o9w3V2/R1dvfwCfelyodPkKSS4kpxcFuT4MNn1bZzeeeXsVzr75TnzsG/dgd3OLzwd1k6hbGg+349Lv/xqLb/4p3ly1CZlMroDJxSUUjFJgz2RyeGPVZiy+6U5c9oMHcKClw8ffxVBTUYrffOPziLqZmDspWMCTr6/AYy+/7wsGpnGUy+dx9U//G60dXba9vD9gzsRR+P5Vn/L12KWLF+CTpxyr2NMur63ciEdefKeoMWdZFrp6+3HjPY9hYEAJ8ACiEYH7b7kCQ6srvDYyL25s6ZbDarCi4o1cIpwRuYjoMubAyueqEhw9V1Q+hTaOoxVx+03NDAgKaCMgUcI446/e3I6e/pwdSDzcBQfL5S3c/doWj5/Kg+Kv1vlkC+nADcDSWPWp6v65M7RwaW3CgUwW9//5VZx+/e042NZJ2i0o2yocu/yAQhCFJENm59HboPKWhb+9uxonfvk2rN66x5MlOzg1Cb6+ahOO/+IP8PgrS5HPS3qFtkPhPJfP4w8vv4/jv/gDvLVmiw+DK/f0uVNx82fOcvgVdM/n8vjafU9gd1OLz046f/nNM2/ghfc/LARTYf+lknH89ltXoSyd9LWLRiK4+/pLMLS2wo/dKd954ClvySjLVcelzPPHjz6Htdv3BoeCAK762CKcv/CYQHBR+0XWSS26oE3FELU+Il+kjCofU0GHciK5qIqZ6jk+/uI6oDMlarIfVQfK2A4gJQBaAT7ckpmSBQDNnf14dNmuAl7Lcgal5fGHZeFPH+zBntZe1h6qvWSZBKGjh4RVDe5U5iPXe5mC/bdi405c8cPfoLd/QN8v3lLUbSs81f1YpBNB4SlkFo2H23Dhd+7DvoOtnt6ck7++ahM+8c2fY29zi9KfzuB37WBJsgL4pMzGubC3uRUf+/rdePvDQtCS++G7nz8fx04e4+crBA4cbsfN9z6OTDbnMxM1iW/e04Tv/OYpWHm3feHa96/6JOZMGh0YZ0IIjB5ag59cfREi0Qjc7M79a2ppx7cfeBJUUQOMEAIrN+/CXX98CQV/KNhqyuhhuO1LF7D39dQAGDYhcT+plQxFr7+rqBHAgS2Wl1oXjpfU1l0ChcApXw/wF4UZTV0uccGPRefwf/j9nTjcNVDIJrzBKU2FQqCjL4MH391B6uB2YhgHgMIasNsl4lEk4jEkYs5nPGofO+fxeLRgA6ed3yYWXlq2Dnc/scSHL4ipkCFBCESjArWV5aitKkNtpfNXJZ+Xo7aiDCXphIJfFD4BbN3XjFvu+yNyuTyr9p7mFlz5o/9Ce3ePhFvCBQtDayrw2Y8swF3XfxaPfu9LePaOG/Hov38JP/vqJbj4jONQX10hZViSLYT9xcKl338Ae53AKZfykjTuv+UKlJWk/HKFhaffWInHlrynvdczkM3hxnsew+H2Tqn/BGBZOGPeNNxw4UdYvYUQuGzxCfj4SXMcu7v4bdyPvPgOXl+1KbCUV/tuIJPFtT97FH0DGfj730IyHsN9N12OusqyAHaZJ1WvJilunTrOuSCn1sVUoaEHBtGOAnc0eJHFS+HD4VV1o/k72QabvNCdQpW+bB6/fHObwkvh7fEReOjdHbjx9EmoSsdD4NQVaXYUAjPGj8QLP70Z0ah+burpG8DKTbvwwDN/x5Jl60medz7+Aq4450Q0DKlhRPuxThhZj7fv/5ZRdiabx+6mw/jDy+/jV395DT29/QFeT/59OW66+CwsmD7eV28HdOBLtz+MPc0tUAwMAKitKMd3P38+rjxnIarKStgMtqWjGw8+9yZu++9n0dHdG+C1p7kF19z5CJ667VrEov5vpI+fNg7/dvl5+PZvnoIbbCAE8nkLX7v/CZxx7DSMGlrjk+f6+YPPvoEXln4YxF1Zjl/ecgWSibhdy/hCPBbF3ddfgrc/3IqDbZ0FHpaFXN7CDfc8hvd+/R2kkwmWz71PvYL31293mvr1vu6CM3HGvGna+FBMRqWr41ZobolwgUWNyLo/io5aSqltqHMVA3nNkmYAKXVXaeVPNe0kU1B16cToFMYmT36wFztbuqVlh912XG0pThhb4196WBb2tvU63yTqeVPXFcCObWyFYtEohtZUYGi1/29YTaXvfNzwOlx4+nz87Y6b8YsbL3NuJMtrRAuHO7rx+MtLA32jGNBrF41EUFVeguryUlSV2Z/usXteVVaC+upyzJsyBj+99mK8fNf/QVV5qSTbLtlcHo8qN5Hd48eWvIcXl65VcNhl4ayJWPab7+L6Cz/ie1SDsl9NRSm+dsk5WPrAdzFrQoPfng7f595ZjT+9tjzQF0II3PzZs7HomMmS/e3Pg22duOZnjyBP+PKWPU349gNPOWKEJy8iBG6/5iJMahhK+rNqhzHD6nDHNRf7u8PBsGbbXtz1xBLSdgCwec8B/OC3f0VwfQzMntCA71/1SZudCN6/NsUBboxz/mvi53trDmcMnw2YSEoJpj5N9DoMXp277HDPfbGMD1baIi/VTKSWPo21LOCu1zYrfOyTaxdNwE1nTPbPYk62eN8b29CXLSx7wmZXdNDS60HZw7IsRCMC13zqDHzx/EVqvAIAPPP2KuTyeZqPvJRmfEi2HeUbJ86ciFu/8Ak/H+f6Kys2IpPL+ej7BjK49bdPw6+s7RvHTxuH5++4CWOH12ltKfMTQmDyqKF45e6vYcroYX4MFpDP5/Gjh59BT/+AR+/ySMZj+M03Po/K0rSHwYX17Dur8du/veWTlcnm8OWfPoy2rp5ArLjw9Pn43DknBe4NqbhlG155zkKcf9Ic5yJ8/fefv/8bNu0+EBhbA9ksbrjnMXspLc83loVUIo6H/u0LKHEyM90Y5epkG1H2lttxY1QeZ+SPn91j10jcjXHdJwc6bDvtjXjL++e7Z0Bh5YJVAKd378AqLDc1eriFCuivbm7GB3vaArwr03F8bsFYnDtjOCYOKZNWHPbBh/vb8dKGA1qZxsDr04NeWpr6KhIR+Ppl56KiNC3DAwCs3bEPXT19JF//t4TF31pw++rys09ErXu/RLqftG1fE3r7MwAKdnjm7VXYvu+gwslCKpnAQ//2BZSXpHw+oPM3+dqQqnLcf8sViMdjBQzO3/qd+/HK8vWB9gAwedQw3H7NRQUbSDb55i//hB2NhzxZv3r6Nby2ciM8n3PkjB5ag7uvvwTRaCSA22S/X9x4GYZUlUt+AEBY6Ojuxdd/+SdknfuArk0effFdvLh0HbzbFc59KwiB73zO/jLBdH9JHnfU/V412JruCbv11EQXkQXJAUotslCZllKAAkYtqTinoQzhJ3T+efXBpRplAM44ZCHaq1ipgG5Z9mMKlsvDbWYBlx83GnVlSZQlY/jCCWNReB6o8HnP37fA/jY+GNDDTQ4C3iMUAZX0DiLXjx1Wi9nuQ6PSFxstHd1o6+ql+yXw3ACBTnFGqo9ryksxZmhtIWNz/HYgm0NnT5+vzeMvL3W/z5UyFIGrP3Eapo8dQeqrZlScD5w6Zwo+vUh6zkkqf3x1GbsK+MJ5p0iZjuW1P9TWhRvueQwD2Sw27mrEd//rz5Ld7BKJCNx/8xUYXlsVCrdqv9FDa/CfX7nQOfePj+feXY0/v7HCo93b3OosR60CnZNhnTJ7Mm7+zFk+v+ZspmZHXKCiaORj0yQihAguCeVz17G4VFB3TVcopw2ztpVOfOk2xZ/DxMn15dBW4Vi1AdUJsr3W7GvHy5uafIMHAKLRCK5bNNFrd+WCsagsSUjybJGvbzmIlXtaSezUpBEsFrzHCuRaZpmt2k2uH1ZT6VyQbQN09/XTsuXMl+Ct6kFlqwX9oI43j7cru7Wzx3nUwPLRpZNx3HDxYmNWovqdWqKRCG68+CzEo+pPviy8sWqT/asCiZf7F41EcO9Nl9n2k7NOWHju3TV44K+v49qfPWovwyBfB7788dNw7omzA34l49XpJYTA5WctxPknHSPxtv/yeQvf+NX/oKWjC/l8Ht/41Z9woKU9QFdZXoL7b7kc6WSCxeDaTJ2sdeOfw03p6tarn+xNdyoCchGSaycHPVUpaimlW9v6rkuprkPI4uLkUgZyvySUnw3icKqd6Nbf98ZW9GdyNgOrgO+j04dh8tByj8+IyhQunNPgDyzC/h3XXa9tZjNS44Tg+h3RPSp2arDK9Z3u0k/O2ARQkkrwWLyxSc+4VBu1vr27137gUr6nAiAaiaIsnfTabNy1Hwfbu7x7Li7tGcdOw+ihtb4+p5yf808Z1/ypYzFz/Eh/P1nA3oOt2HngMDthj6qvwd03XCI9BW93ipW3cOM9f8CrKzfYdrUsuM+rTRszHD+5+kKf3XRJA6dfLBrB3ddfai8NpawJAHbuP4gf/u4ZPPPOajz+yvt+28GW98N//RRmjBvpw6EGKZ0/mjIu3SRBxQBZXkwFJAuQr3FpHgVapxB1jZtxKXl2pRNRrMK6+83GXmzvyATahymb2gYKvDygtP6yHirOPa29eGLlXmk5aXuKEALXnzZJeaJB4NpFE/Dw+zuRzVtSkBF48oN9uO38HoyrLWXTZQ4HQtBxg1Tuh5aObqzauluyhQ3Q/YaPFuL9C+DQyZMxWZaFx5a853w9b/lsOXJIFVLSV/wfbt9r8xLSDANg8XEzHLfglyZUIJBxuMexaBRnzp+OD7bsBuQZzQLWbt+Lmc7Apvz9otPm44X3PsTvnn/b51u5XM65XeDys5BOJvFf3/wXVJSmA7x0vsfRjhteh//8ykX415/81v520rWRELj3qVfw2MvvuTFU7jx89IRZuPoTp4ebHCV5at9Stqc+dRkjhSFGKU0FJRmMWq+2oWZsbhaXCwc+QCt8lgYsC//6xgF/nfqtEVscXt64sBTW/OBSy4Pv7kB7b0YSaTv23NFVWDSxLqDTnIYqnDKhDq9t8d80HsjmcO/rW/HTT80OdDw16AP6qMFXpSB0Uvk99NybaJJ/Q+eImTFuBMrTKd6Z3XoitVcxUH29YtMu3PrQXwo8rEL/zBrf4G0BY1kWdjQeJiHMHF/IDtTMhCs6jLPGN6Bwv7EQRHc3tZCTucsrEong9msuxltrtmDrvibIWardoMDvm5edixNnTGAxUoHApNcVZy/En99YiWfeXgV5PGRzOTS3djq+LlwmqKsqx303X4FYNBLgSSU1XCKjBlAOO2c3Kva4dIEfP6sps5pyyvRcqlrMmpaTqy3KEsB2bPma/CenxJbTTk7vhZ+XzEMVq7FFW28GD727o3C/x3I+BfCVUyYg4Tw8qbb/6mmTCrSS0P9euguHugdIWUbbEOBNA0Eub67Zgh/99zMFW0lT8XknHoNIhAlGynE+b+/k0NVr/3X29KGzpy9wfrCtE2u27sH3HvwzFt/0Uzu7smR+dv/YP/QtyGzt6CrIlehryks9GLrMXS5UJuv6p720cumFJ6etq8fjxWUJQ6rKcd/Nl9tLQ8+ePslYOHMi/s8l5wQGp3xMjSkqu5HbRSMC9950GWoqSqVxYBV83nv0QgBC4K6vXmJ8BESVw+GUl7Pq0pbrE+r2japrLEzUo6Ifl86pUVhVRgbNzU6mJSe57HHrBAozh6WcU0+xy9mahQBvblmh6vynlXuxt62nkN04kBuq0rhgTgM5u1iWhXNnDMOEIWXYdqjbZQYI4FBXPx55fxduOmOST44py/NsIc+eQKAvqZl62/6DePhvb+HuPy2xH11wMwrHRJWlaVzykQVGh3btuXVfMyZd8k0Drf1QaHdvPzK5nGQDAbmzJjUMxUWnz/fJzrg/1VHwZHL+58R0Sw/dksU9DtrZvp7Ph8sMOnr6nBin+p+tZ3dfP7K5HNnWxShj0Y0ZdfyNHlqLO665GFf95LfS5F7IWl1/vej043DJ4gUkBspGVKFwcys1jh/VV3KQi6kMijkPA8CkFFe4WcS5ikKQcY0v1ZHBK7hUKRC5hxaooGXCnc1b+PnrW1BwyEKw+NyCsaguKfxWTuWTiEZw9ckT8LU/r7bbSNd/9dY2fPnk8ShNxsi2JCavzv7csHM/pl/+HRa7jdZCe1cv2rp67B/qWoX23s4SAL564UcwZlhtoZ0aBORMV9i7HRxq6wqu1IV07IqS631rciCVjOPnN16KSufemSs3lfD9sswrbdJeUroBYMxWnRL4mY5zWJIq/NRF9ldZ1t7mFlx/9++9p9z9xbbX6q178O8PPY07r/ssIsykTemjy1JkXa88x14aPvvOapfIR9MwpBr33HApos7eXYOxVbGxQJcA6Pw8cNNdNQQXuYsJUpQRTOC1aby77JEGeDzCYRDKZ7DkLSDnLXssZfAEU3IV4/PrD2Bdo3u/p9C4LBnDVQvHsXLd9lcsGIP/eGkDWnv8XxpsOdiFv6zZj0vmj6KaB7D5mdsf/QNZbNnb5A/cFL0cPNxAL2UEi46ZjH+7/NwQE46S3boHvuDkYpCwqJmHU1FfU44Hvv55nH38zIJqjv/VV1eQ+mzbfxBnEQObGuhc1iIf7zhwyIfJPRxeW+nj46F3fCSby+Hau34f3BVUsS0A3PvkqzjruBk4Z8EsHw/T0smkgxD2YxY/v+FSvP3h1sDGgJGIwM9vvAzDaioCvAdjKy6Tp/DL9gqzkgGYHUepZaAKRDaYqpAKhjrmwIZqK2THsTv/6bNGYkw5PeOaym83deDONdKv8L0BC1ZXue6uVzdLGRw8h/zk7BEYW1PCtvcGXlkSn5032v6xNODjde8bW3Hh3AbEo/yNTB9vORh4AVgeHEo647MrHFpL4gXMGj8Kj/37l1GSShp9oMBTClJ2pT+wOLzly3Iwqy4vxacWHYtb/+XjaKinf2w9ceRQvzxHxrINO3D1J07z8OkGkerzVP2KTTslkIUyedSwgAy5PPjsm9INb+Fl8CIifGaHZSGbzeIrdz6C93/9XdRX24+/mJaGar3uePTQWjTUV9v3/TwXEEgl4pg/dSypB9fX1ERAyVZxUjGE4qOzaUwX7bisJ8w61rSuV2XponHgWmBQAhMr45hUEQ84HTW4VZqhaWoveDNuy7KwbHcr3th6sJC9SDNnU2c/rnsiuOc3VXa1KFviOjLf33kYb28/hNMmDSFnOwqf/14FlBglZZCBrMuSCC3EYzFcsngBfnrtZ5wbzzI8epKRsXtY3CWmnA15ct029sc5J8zCVR9bhJNnT/J2tuR8ZPaEBsRjMWSyWRS+lbXw9w82om8g4z34KPPQZQce4FoNJgAAEcBJREFUZKl/O3v68N667X6QsFCaSmLamOGkjwHA+p378a0HnnTqJd0F8PVLz8WLS9di1ZbdPpvsajyEG+55DI/d+mV/LGeyHSg0br1lEc8YQvIF7/5VMJiovHWZHnVdtge3cjKNdR1dICUJm5px4GXHCMvDlDoGBoc7uARNr2tvXHoqA4gKwLJh73nN/imND5fTeMnGJizZ2KQoK8mQB3AAg800nwd+/vctOHXSkOD3BWRbqc47VAKFr86CP5AJpJMJnHXcDNxyydlYOHNi4eFHQiZrPwAN9dW476bLA5u+bXf2t5JvNLuYtu8/iOOnjSs8Zc/IEkJgUsNQjKyvxk73ZQmOPXc0HsLfP9iIj54wm/U/bvCr9EuWr8P+g60Bux0zcTRqK8pIPx/IZPHlOx5Ga2cPJMYA7N0jvvf58/GpRcfitK/+xNl/qoD9ideW4ryFs3HF2QsDmLjgaNKBLZq+NAUqTlYxSY1aVDtSdDETcTGBi0v1OBlhCpnxuRlE4STQhtLB2CFKhqTqpp5vPdiFp9fsk3CggIVamgH+Oi8wCSIDKuj37NpGbGrqxLRh/r20SVtazj9HTF11OT5zxvGIGByoqqwEdZVlGD+yHidMH4/q8lLv8QVu5uXl26U8ncK5J85GNBIJtM1ZFm75xeMOXNceApt3N+Gi796PF+68GdXS4wmqTMuykEzEcPbxM/Hrp19zspdCJvO9B5/G4uNmes8U6fyOy7D6BjL48SPPSRjh9cv5J83x9vlS297xhxe8LZU9o1hAWUkKv7zlSpSkkjh+2jh8/bJznW1dHL5O19/088excOZETBhZT/o/58dc1hjIgomJMuz4N52r9WFWUaZrciG/JZRLmExJt4xU17CmElZBCaEvtdWloao+btoqEbpMvGO+Q4BfvrkNPQPuV/EChW1t5U+1rRTAvHtLTKblqJfN5XHPa1vwq0vmmR1GeP8AAA1D7F/+qxvO+XXhb5JywZGk95aiCNCqsq6/8CPY29yCn/3xpYC+S9dvx6Xf/zWevO06lBDLOln+lWcvxIPPvmHvQmAV7L18w07c8djz+KbzRQF1/8c0EO/4wwtYsXGXKxDu+rYsncLFZxxH2mvZhh344e/+qgQFu59/8K+fwuwJDZ78b1/xMTz/7odYtmEHZF853N6FL9/xMJ69/UbvrTdhlktUgCrQWUof+X2Tahs2aMl13H0orj2XXMi08vWIfMKVI71uogmb2haWhAEGRcmRP03LKo5fc1efs1+7SygDE0QAEtKfS+NrTBwXeD26bBeaOvpYJy0Uy9dULdQ9J10ary6BtUVSjftS1pURjUTwH1+6ABedfpyTHfnpXnh/La698xFkczm2n4QQOGHmBJzuvopL5iOA7//2L3hsyXve81KqTgCdfQPAIy++i9sefkbRxT655CMLMG64/5cLgP0byC/e/rD9fkaF3+lzp+K6TxdejyWEQCIewwNf/xzKSpIB7K+s2ICf/2mJz2ZyX+h8WK4L2M09J2wut+X4U+fcJ1VHZXK6Ma9eD7WneyhnZQobFAbBv1g+7rkuPQ4rW6X7/bLdaO7slwjsf+l4FDOHVzh/ldJx+D/3uSuZefdADg+8vR1qCab7UoZD3g/nfxalnnOzrVrns4Fl+TJeir97nEzE8cDXP2e/lFNtYgG/e/5t3PrQX+y33zD87J05L0YyHvPLtSz0D2TxLz9+CDfc8xiaWjsCPCgdmlo78NW7f4+rfvIQBuSXRzis66sr8J3PnR/w67xl4dYHn8aabXsKdnBwVJWV4FdfuxIxYgl5zMRR+O7nPx6QA8vCDx9+Bss37vT5sdpevaYeB84ty00Utf1E8dPVBVYrDBZu+cjJUUtMdUBOgJreUSmgzMOUhlNGDbP8dIi9VZV0oG3PzaTBQUfjkjH3DOTw67e2wbvpIATcr6yvWTQBP/n4LD1+Q/n+8+vxoxfW+5dYwsIDb2/HjadPQnkq7sPmt6UlpfzBYgriqp1U/9D1vffwLhG0uD6tKivB47dejdOvvx1b9sqbF9q8fvLo3zCsthLXfuqMwEzs4jhm4ih893Pn4zu/+XNhKSYAWBYy2RzufeoVPPn6cly6+AR8bOExmDZmOIZUlSMSiSCft9Dc1oENOxvx3Lur8diS9+znptRbBcKW+dNrL/Z2gpBt9NLStbj/6dekPij0xY+/fAEmNQwlx4QQAl+94Ew8/94a/H3lRp/Mrt4+fOmOh/Hmfd9EWToVsDmVxXBLqkIjBxfhHpxvUDIo3lwGJfPn4oncnipufeCxBkqQKQXU3eegjilwumUJAU469v752usMJ5dgh/LBzi3PrN2Pzc1d8C/rgLJUHF85eYI3k3LyuE50yzWnTMCdr2xCb8ad4e3re9t68ceVe/GvzsOoZICWU36mmPrChJW3q5vd6ftQlT9ySDWe/vFXsejaH+NwRzfk0ZTL5/F/7vsjhtdU4tOnzmP78WuXfhTLNu60Xx3vBnq4gVOg8XA77nz8Rfzsjy8hGY8hlYgjnYyjt38AfQNZ9Geytg28eztu0IMbO3H1J07DZWedGNDhUHsXrrnzEftNyZ4dbVuct3A2vnDeKaTu7nE6mcB9N1+BhVffhvauHnhBH8CqLbvxvQefxp3XfoZdrXDJhF+ecg/LwIMrpmBG8dDdb6NodD4XGFlhlnCmNrq0jwJtSnGDPBwvcmZRDlNY7MFCz2JA4QZ4gN4CLpzbgPF1ZdAVY4YHYFhFCpfOHwNvxEjvqLv39S3oz+bYSULFb5Kv1psmGTMvC/77PuZiWRamjx2B//nRtSh19ruSGfQPZPEv//EQ3li9mZ3k4rEofvftq+wn4pUYKp9bloW+/gG0dfWg8VAb2rp60dev/Mjca2PrIiLAZYtPwN3XX+L9dMYtuXweN/78D9jhPlrhZncA6msqcO9NlyPh7DDB6Q4A08eOwG1fugDC/cWGgBdY7nliCV5err7JyN9etQdbhPTpm+fotrqsJ0yyY8JlwqzKN76q/khL2HW3DFClV68FPXJwuALrbu8wGP3d8vb2w3hvZ0sgUCbjUVx/6kQIceR2E0LgulMnIhYJZiwf7m/Hko1NgfTcpwP1AlNNORr97Mn2HusI38zV5dQ5U/CrW65EIh6Db9li2Q9wfubff4l1O/b7RUrYq8pK8NR/XId/u+I858UJrh2I+zZypiEkOvlbZ8v+wfftX7kYv/3WVYjHoj68APDEq8vwhyXvyYAASyASEbjjmoswlrg5T+luWRa+/IlTcZb7EyQPt73rxZfueJi8D1dsclHoH/+yUHcPzCRD5z/F+FaYLD+iDlp1IKs31XR/FL0KJAxfqt7Hx5L+JMfW4TIa0LJ8vLjys1c3o0BUwLN46lAc01Cl1VPFQWF0z2eNqMTiqUPlFgDsm7u/+PtWZPN5mrebGRAP1nL2kWcxkw11tvVnvfQA0PUzAFy6+ATc+oVPBt8wLCw0tXTgU9/6BfYdbGWxpxNx3PbFT+P1e7+JsxfMtJ+Vkm0COFmQjD2YFcaiEVxw2ny8/ctv4ZbPnu0FKxnrrgOHccM9j8FbSrp6CuDTi+bh0sUnFuXXsWgUv7rlysLzZx4eCzsbD+GWXzyObC4faO/aQNdn0olkU+lQ4iEX3dh0j9UsKIzOJDZNe/fT+zqKy2hox9SnisXWczxVZxRCYFJlHJ2Z4BuAU1H91+9UB7r09eko5talAm1qUxGf/JaeAfRnczhjcr0KHN9YPNUZq37enGxTiQjgax+Zgv6s+jS4Pd4OtPdhZFXaq0sl4zh1ztTCk9NOmdhQD8FkodR9BOqa6gOqbsl4DKfOmYpe59VXbhk9tMaTrerN9ZUQwNcuPQedvX14f13wW1EAePyVpbj5M2eR19wyb8oYPHv7DXhn7TY88uI7eGX5+sKyzc2unITKe45XCEwYWY/Fx83A5z96EuZNHes95U8NtCdeXWpv7qeURDyGn994aWAjPG5wymXMsFrce9NlePDZNwO0zW2d+HDbHsydPCbgWzrftwmABdPGY0il/ydWyYR9P48K/l5TzT1O3TlXqHbqrQgZj+8+ed75zriYG24qHdWOouHAUEpQbQF7ZwXKLFEBkhdXJ8vOWxaIb84REQhs90EZ0mdQRZ56jZqROL1V/XW2090joSYCE0YOG6cvZRuujtJLPtfJVdvqrst8BzJZ7G5uwaotu9Hc2on27h509/ajNJVEVXkJhtZUYs7EUWior0EiFg3lS2H0KWZccPKoEiY4cP3K+ViY5aXJzip/ziZhbKXKBQBhEZqHBa8DpQLn2oUJkOp5sYNWvX4k+HQYVDpZxpEEe117Tp4Jb7H2ChOAOOxhy5EM1iORGUaPMHqF8SvdJO22DSsrbD9ypZixFxZHWBtQNGFsTgasf1YZjFOYeBTLZ7AD92iUozUIjqRdWMfn2h0p1mICn2l21/mSqR+L8aNiAoqJ95EGfi7Ih8m6w1wb7Jh08YTOnELi8QWsYjOewZawBjvaAaIYXEcaCP//Er78M+z6v9mf/2zZgwnIYZemR5pBh80GudWA70l3qqHcOIwAqh23ZqXo/m8xV7bbOAwD7UX//5v3SQEzOxedoCugaETzGFIkRRdt5zP2LtzgQnvs1nALMR896tWqwZT8dK85m7G+mZiSrZS0TIeLs3sVPTwsP1yckZctfO7O0+lpcDFdyu9k051pwoQyuNQE5eqy8dnRECvqn89TU3390J0FrUmEpkDTSs60Mkwu7T+htbhTYieflQ+qCX8S92Y1+pvza+2m4nbTgNLFnm8uoLYGNri2MW3zpdX3zecOa9tbmL743xpm51MdW+lQN0LiS1iOjJv6nK00LWxorRy77dlUMfcq5lNv09RdLJob3j1jGJm8i7mz12Bg9Blzx894Dt35oS4gtdQkmWKNfGoaYj4o/eib+qxqKcUGY4LYm+lf5cvbrzUkofncTQhs1Eu8TdI2rw1NU9xObzJ4wqYrRvWKgLxqdG9W05QVLoeTPXM6lV33upL0PcHwdKkYOPwNvdlfV/YfV1MDbZ25Gm7OpV1YB0mW/mnO7ISTfvapWZ39lMFnGHA2eSAddU49biKagXfTAPqdbj+HwTU5RVe+Mn7m35RtbvRminTNPelU8djoVPmQph/MJ5bHDCezMXNCNcp2TXmHI/mPfuOZq5ipnGkwpLxkNapwqxpLMq+GhUnnCoUtlSBu/Gz0qUKeK00Tk84CySYd1pBQVzM9Io0dlGt+7CLAglQ+u0TEwlFySHeXCepEzCwP8ExcUUxdqMddNC4H2Rmz4mc6VezVZcEuA4xPajoTsxocWJzUmSTfmE7lN9OZGpmLH9Lu+37/9zIzEKpDI8Aph59RbxMU1OtoU0+6wRVWpb+ZrtQek69p2G76RL1KNyYk81HFD+VnorEYK99UY0I/zjOUSQ2d6WGLxUHFDfcqjipH2NmpZotYVFNP54t62RkqnSweDLPKHZcjLB6qN7DmhT7j+mHAmbHpgAoqu2nTbeZuVBdwlbzpQJMfeIswGVcobLlDc40beVLxM5wtXsTHik/hTBicPdQx966gEr9rzGwle1iQ2CDSRTBpqbGxfHFn2dQl80H5xfYnJyamplYmdnfRT/+YvRdP+2sNTeK3PBOEeu54lE32+YkfSj/Ski8og7zbpvI/129hTE1umxO/gUfl4DdxbepCXSYsjw+Pk3G5i3xpYmLDTKrPSXv7GRbeeoeGBiadybrPrMNj8Nh6Yk/RUNdGDx4OxoXZTYeAvPgdcTH8is/p3NAbrApj49+Gn/nncjLFyulQed/kD36xXHHYka7OgMUPcahzUZc6fsapaX5mTUhhQn5mU+3v++7/+Fm9kjRLdXB0oNXxTSyKp8HHxnXH9ymuzfqGvk/8STrda89Gx3X9WwRKxyd5zWxufHS8Sd+WX/nZ2GG12tadm8CUnW2s/sz3Q/YumkZdlDv7J6PvE/tOlu2nnmaaU7bwNnGviJOecCJNYU30g6mRU/YwcdticfumqTT5o/JCFYfas7zCGGFM2lpo7DP55P88W8brzm2DRdlV/KzRJRlGU7l5Xdf1F/RJgcN5UzRhAAAAAElFTkSuQmCC;fillColor=#B2C9AB;strokeColor=#788AA3;fontColor=#46495D;" vertex="1" parent="1">
          <mxGeometry x="736.21" y="454" width="77.58" height="60" as="geometry" />
        </mxCell>
        <mxCell id="gX3DpapFzDHd5gNG7aPb-88" value="" style="shape=image;verticalLabelPosition=bottom;verticalAlign=top;aspect=fixed;imageAspect=0;image=data:image/png,iVBORw0KGgoAAAANSUhEUgAAASwAAADoCAYAAABVc9ljAAAgAElEQVR4nOy9d7BlR3of9utzc3j35TjhzZscgcEMgEXGYgFs0u6KcaWy5ZXFtWipyCItOoiyLZVEk+aSrCLLrJJdsi2askiLohl2axOx2F3sYpHDAIPJ6c2b9HK8791872n/ccLt0/frcB+wsl3FRg3uOd1ff6m/7+uv+53Th7muyyEVxhgAgHMOxpjVb9AvuJbv5TaKpggbFLmPSFeG0dGg8Ov6UbKo+tjIJsuiqjPB6PAHsDr96fiyHSOdLm34VNmPqe+PE17mj8JFwVLwqn4q+eU6G9rdjpOu2MCrZAl4l2Eo25LhdfLJcGEbV3AoG76uUE4i99XVUQNH0RCF6ZZXlXHo6nTyqXjplh8dXR28DVxQTAGN0r3t2JjGfju6COpE3lWGb0PLRicyLZ2DqWjZ2LENTjkA2PgWJZNNEmBjUyoaKrjt6FY3zmI/ZcD66/IfpnQzMfx1+esilv+/2s6H4dsJEIi/8jV1r4Kh/lG4dW0211RfkwyqOlU/VZ0Njza4qYxCN3+Y5On2msJjo79uZd4uT7b8mWygG1tWjbOOJ1t4E682MKrMzATfzXio+lE6MvFOFdXS06R7zjniOgQBEGOsq/RSvJfbgjpT6kvhl+FFGqpUU2wTFbKdCK/jcTv7TSod6IxShAnGxcSPzdKEoq9aspr2Rig5VP1sgoKsMwqfzB8FT9XJelQtw+S+Or3q/ERnr5S+uw0ApiW0Sg6V/VK6pPRMxQmRN1lXqnGh+BbbGbXprupsozxT0SlGp3QVbZNj2A66DayNHlQDpoM1wQQ0u9WDDYxN0KR4MRUdDp2zUnCqsVQ543Z4tg0SuonFZvIxBRIV77LeTL5JBUYb2zbB6YrNmJvGlKoT7+O64EBFxW6yE4o5ql4nsCqay3UmnlRKU/VTDbhNVmPqr+ORko/CbcO7jqZqxlNlGlQmQ+FWZToiDhVvuoCk4kcno0pmSr+6TK5bHeraVDqh6qnsj5JFzmxs7FPVbsocdeMt80bJp5JFBddR77oup4yAMhAT3HayAFVkt80GbPDbZlumGWI7sCaauv42urXRCWDO0Gxk+zDw3Yy9rp9p4tHpSSyqmV4XUGz4t+FPx4+sC518NhOHjR4ovnUyqxIRmXcZh66PbrKKyCwHLJsorBOWJKJRpo3RyLRMvJkMz1RsZmzbWX278HK/7fZX8WCb+W0H7qPkydZBZXwmJ1fxvd1+3cipk3s7ZbvZUTftH4Z2tzR0OP8/81jDj0uhHyWe7RjZRwH3UQatbvj6qGWU+wDmCeTHJbMu0wnqfxwB+sOWboPuR4H/x1m6tcO4bVonIwjqdSmejEuVTYkwKqNSGZoqPdXxaJP6UvC69NY2qNgYl8yvSbe6sTP116X9KhjTvVxvO+6mohpjSkaKB1EeWUZKFpVcMj0Rr84fVGNnm1nqZDdlorbwskzd6EE3hjpaOt5kGEcECv7JjFDEqXaVM+uMRUeLMiyds8rXujadHKIMlMGISlUFFZUeTcGRwiXLTsFRspmKbEQUfrmN+qUCbDe8ibqUcahklu1LDj6qsVFd6/ii5KDomYoqWMlF5/g6u5JpiDZMtYk4ZXuWfZXyJ5Mf2/igDo6s4wJFXRQ1paI2M6SuUMKbIrbIh1yvm/FV9FT9TDyZ8KoyGVN/G1zdXtvI1O1YdAMny2DST7dw3fD7YYvN2FLw3bZvR7Zux5Wyf53uu8Gvw62TkezHvWI1u9jWUe1Uqmrq+2GKKjWWYQD1zGNDQ+wv09bRVdHZTl8bfDayyJOArS4C2K2mi/lqC5xzuByIMYZ9+Tgpj3i/Xm+h1ORwGOAwIB1z0JtwrGh3W7Zjw9vB/VGMyUfBh3j/46ZrU7bLQ5jlqU5rMEVPm2IzU6siazf9KLpB6TZT6GYGE/FTNLvNqmxnYJ0xqmZoW77kPmI/CpdY/u+7JXzpzUUAHBxAIe7g7uf3IBXT8/crZ1fwv94oevgBPDqUxotPT0Tk246sNnZA4Zbxmfqq9EH1F+tssmmbfpR8Il86PrvNunSFmgh08sg0bPw/rhJO5YAyHHVP9ZGJU0ypBKHabflR4VUVlTGq+un4MtGjjMPEn0oemxlU5WxUEeFUMsr0XM5RE+a/qusFLplPudRbHOWW0K8V3bcLZ1cJh0lWXZ1Oj93i+jC82PBkw6etfVI+Y8JlmxHJ9qDzfRWfJp7iH2b5ErSr+qhwU9F2O46kS8HlNh1tCk43oKoZSBeEdbqwxa3Tg6wTG92rZjLGGL42W8ZcpenXAyd6U3h8KG2UB5x7aRIYAtTUWHT25fA6cu//kv5lPazUWvjDmU3E/GWkA4Yv7sphOBWL6MlmDEz82di4blxMvMiFske5P0XPVCf7iirRoGTXTeCmjNN2ArfhPS4bhU1UNDHQbbagU4ZMX8eHPBPb4DDJKpZu+bB1EB2/pplTlaGZZFHBBb+/fXkNr6/UQvhf2F/AY4Mp40wI4d71OARjjtAc1VW5WsfCWhEA84Mdg8PMs/x8tYX/6uwKgkAXY8AjgymMpOMROFGP8oRE4bUZV11/GdaUUVD3NhO8TRuFy8YPxDYd7yobtUl+VD5iihlxSlibWcakKBVOU50tLGWA1MykMlQTLlUJ2nQGJOJT4VVdq+QyZYk6XVLjaBx3oJ30tH+0PD09nMG/PppBKh7DaH8P1taLeOfiDTx+fD/J2/LGFt65PIN/ct8UvtxyUGs0ce3eIp44MEjqRaxrhelbAAA4hkyHyhhEfeiyBirjsLVfnc2psqlufFAFoxtzm8zOxu9NWaiNzPIYqDJLzoXjZShGVU5CXasUTzFrUoJuIETebBx3O4OtksXEp0hP1UesV/GrKqpxkftRY6LL/Ci5uRCsQIw7pdfxTBwHWlt47Mh+OA4DRjJYWs/im69/gGdPH0EmlQz7Xr49h+WNLXzy4WNwhCD/w5VZPDKY0mYGANDkbb7EoKrTg6xDcXKxtV+VfuXxkPuKcLYwIp8yXdEOKBkpXBSO6JjrJ0ddMKHaqcxL5tcUqOX6OCUoJbRNu6wQkZjKcMTBUClCpqeDpYxBRUdn0HKmZOLThiedoZqKDoeunpJd9Svi6okBvXHAYQ5ccKQYHczlcXZdjljMCe9H+gv45EPH8P0zl3Bsagd2DPXhlXPXMdLfgydOHOjQUyaVRKXWQDad1PIe4y4mkgzJZByuy9FoNpGJ6R80NelQ1aayE+raBo6yYVsYWQY5COjodWPLusBj4ksX9MVCBU4ZXuY5LgLbXMv38kwgp3mqfnL01ClXl8WYYEUaKmVQg22K9LqArhoIUyZH3atwmmZDsTRcjtV6y8Pj142kYmCE/gJa/31/Cacf2YNcOgnOge+9exGlai9yaTr7AYBSpYZcJtnBTyIew6cePo5Xzl3DN1//AF94/CQmhvoiPAY4do8O4PbCCg7tHlMas+tyLNy4gUuf3IdCLgPOOb7z9gUcyMc7xkTWQ9PlAPOyMYcxJFh0bKgi27QonwpONXGK15TtUvCmSVjuT41NNzzpaOpwyTAiXxRPKlwqf+ecmzMsyuFM2YRqELrNRnQzgmomU9GggqXKIWz4U92r6nS8UcZqi0PHTyDbK0sVfP6VOXDe3pa6+/lJ9CdjJP25lQ0Usmnk0kl/vIHHTuzH6+dv4JlThxFzHJLmpVtzOLpngjT8hdUiqrUGnj19BOdu3EV/Tw6ZVKIDx0hfAdfuLuLw5DgpDwC8dWkax6d2oCebDmFOHZzEO5dn8PCRKeW4/pubRXzl0hoYAxgYTvQm8aePjSKmsRVKr6pigjGNqS0dEU6VUQX3cp0py5KLTRBT2bPcTxU/VHQovJEz3cXO4nXwT7xX9aMUopuJVDhto7KKF7lQQdWUhVG4KT7lImacNrh0vFK4qKKTv8U5Sk2OctNFxX/miUv9Avyu6+L89F3ct39XhGYuncLxqR147dx1pQylag25TKqD/8u353Dlzjw+cfoIDuwcxVMnD+KH71/G7PJ6hwzecpKj5bqkXqZnl5BJJTEx1B/pN9SbR7PZQrFUUepltd7CjVID17cauLZZx+1ys4OGaXxsxr/bYrI7HR9UOxWouqFv4kumZUtHB6vyFVlOx8ZJqaILKLqsQ5dWyjiolFCElZ1NDq4Uz3K7SeFU6k61qfiR5bFZBphwUZOISr+c8/Zf+ATer99dhOsHBRH3uel7ODa1AzHHidDhnGNssBcj/T24fHtOORby9Q/fvwJw4Mn7DoR/xcukkvjkQ8dwd2kVZ67e6tDBYCGPlY2tDr0sr2/i1vwK7t+/C3JhjOH04T1498qtSJ9AB2ubZdxZXIOXXzKA+Y9PoHPsVRkApW/dGIr3Yr2OHuVXsi+oJm+KvimTUtmOzcRqCjwUnM1ELsLJ+OJyR5GwTdDqpp6CsxGQ+qXg5YE1FZWxBW0qHlS86u7ltNgGl1ynajfha8vSXhPmMym88sE1uJwjlYjj4K4xpFMJLK1v4r59O5X4Du4aw4/OXsVwbw8Ge/Nh2/TsEvZNjIT3lVod3z9zCR87sjcCJ/L00OEp3FlcxXfeuoBnTh9GIhYD5xxT40M4N30Pw309Yb9avYn3rt3GJ04fUdpHKhHH6EABN+eWMT7Yixv3FrG0vgkA6MtnMdRfAObWoXpUg+JR5RdUIDHpn5p0KXqqyUoOLiraqkSC4k13TcHr7N22TQVn8iUA6tMa5HWork3sT7Wp+sr1FJO6jIRas8s0dfR0eFUDZ0OT6iPrUkVfhjHB29wv1128vFRBcauMWq2O3SMDeH40gzjzYGv1Bq7cWcD33rmIo1MT2D06iJ3D/chnUiS+ma0mfvmFq9i3YxgOvExldnkNO4f6EHMcHE43MVFfxWMn9iObam/Cy/YR/JaqNfzgzGU0ByfwF7MtuJxjbrWI4f4CXO4tX5fWt/DfnB7BZ6b6SBuoN5pYXCvi1vwKXjt/HY8e34+Du0bDoMcYw+ViHec36rgwM4tDk+MYSMbw/GiGHFsbezFlLapAYjuJ2fqSiEuGUdFXZXWqNhWMyed1KwuVb6r45Zyrv5qjEtgmczHBdoNHhx+wz+Y+LK2Pko5uoGyCEWDOiCkaS+ubWNss4+Cu0Q6eZpfXsbKxhRP7dmJhrYi7i2vYqlSRSiQwMdyHHX4wAoDXF6t44mt32vQYAzgPf//eVBL/23OT4bLShk/OOb7y2m38dxdrEN7SQTsP4vjDZ8bwpQOFsO/yxhbuLq1hY6uMZDyOkf4e7B4dxNpmCXcWV3H60J4Ovbmc4/Xz1/HY8f1dTUwfRfmo7ejDFF2AowIKBff/Rul4cFQXCYNiE2kpXAFcN9mZ3K4qFD4dvzq8XUd9hZyqfjK/KgOR+9vMruK9DJNKxNFoNjv6tFwX52/ew3MPHgVjDGMDvRgb6AUAVOsNzC6v440LN9ByOXqyaaw5+YAQhLebvaAFhuHefOSpc7FQ4wIAjuNg9+gAcHEe4dIVENZtDJVaAxdnZrG6WYLrehvtU+ND6M21syQAGB3oxaVb8yjX6h0ZXqvlIh6Ldeif4u/D2ItqfGwya7mPTEOVycjFlH0FuGwCt8y/TcZpk4VSfFE8BzTIxxp0dVSbSFzlPKp7uajaP4r6butURm2CDe6pgK4LLlQ/FY0fLVWw0XBDf96bT+BIoe2cFN/JRBz1RquDhw+u38GJvTs6HlcAgHQygb0Tw5gaHwIHsFmu4tyVJf8AGYbIRpCP12GdJyvoCgv7wc+u6D6zKxsY2TWCQ7vHEI/FSJigPH5iH37w3hU8/9CxSH2z1UI8Rr/bGNxzzuFyjteWq6i6PHxm60hPAmOZ6LuKIg5bW9fZ1XbsTFVM9m5j3zoeTBmjDU4bWJGe8sFRVaFgTBHfZl3cbSTWzUjdzEY263Gq6GYTVXBSwZnkpWB+6b1lvL9eQxAx/tHBXvzuySFtv2QijlqjEakrVWsolqs4eWC3lg/Ac9reXAZ7xocA3O2QLciMHBbFYZsVOAEOsPayUHihcffYUGQjXlU450jE4xgf7MPM3LLPr0ev2XKtbLPhcvzdtxYxXWo/+vCHDw3jS3t6tLZKySXDmGzd1g+D0g29bjI0ii8RlvLfbuJJt74AAM52o6yu3TbL2g49Gb9N1mLDS3BtYywmPj9M1mYzgzLG4Eb2d4AY64SRS8xxUG/6T7z7S/O3Lk7jocNT1mMGAO1dTy79MoD5D/dBPQ6qYM5YkLFxgMlrQi/rsSkB7qN7JnDt7gJarfYzXcVSBf09WVIu+V7e3VXxrWvXLXVUfNv6hYkfCldXY0HwZWu/Nls43foCgOhzWIERq4qqTe5HwVHt8q8Op64+qKPqxWIyJnkmsZVXB9stHlscoQv61bVaA+LfT1R447H2Rvi95XUMFPLIptsvJdvwE4KEoEy4tht/kk6kjkXrOOsIICIuCp/jMJzYtxPvX78dwq4WSxgo5JV8cM5RLFXwo7NXUa7VEe6ncR5mjjrZ5Hqb4GPyHRWv28WlgqfqdX5L9ddlbLqxsuXRkStV61LRmWXGVTOLyiCooKDCaRN0dDOTTkHyspKiIfJFBWbVvU3Qo2hR/wI48T4TY8jEGJIOR8oB6rUaXnrvMi7OzHbw3HQ5WrydoQQ0z03fxYm9O40TTmew5IGiBKUFwMCFW3N499odkv/gWpb75vwKXr9000ckIGMMQcZFaZLKNER+h/oKWC3XsFisoNTkmN0oA/Ek1mstrNddNIQH6kuVGl49dx0Xbs7iwcN7sLOQxkgqjr44x1AqhrRDP7cn2pFKZp0+TSWgQeGTx03lAyq6Kt5NPMv2ayOT6KeqQKjiMWgLP0IhN5oIq5xcxmUrjA2dbuhScCoY1VJQhUP+NcFQuFR8qmSTYTebHEvFEhbXiji4awyZGEM6xjC7vI4LN+9hpL+A+/ftxEaD4+Sf30Kp4e3dNJstpBLei8/NZhPP7irg3z071sGnjrdSk2NmswGXA29dvY0ju0eRTibhwntsYCIbx+riEm4urOBzDx9DTJWa+HR++MF1uJzjwSN7sVx1/QP8vNn0u+9dwadPHwZjQCHhIC2tfXV8Msbwry9v4FdeWwDg/SWy2XKF0ySAP/rEGD45kcbbl6bBGMPJA7vDF7zLLe9jGq9fuIFHju1DJsbCZ9dU46KzDWpcdcXW3m3621zr8AQ05b4iL9uNHVS7ise4CCgyZSo22Ymuj8qxdQKY+JGzLZXgVKSnlE+1q34pWcR7G70ERZaXwldIMNxa38CRsQH0CccC7xjynplaWCvie+9eAktnsVxpRc5MR7MF+JvZK7WWcWKQdZlPODg+4Dn1DKvhsYmeDj3syk9gx2ABf/KDM/jsw0fRn8904KrWG/jGmxdwYmoCB3cMgzGGnmQsQmsgAYxl4xHcKv1R7XWXoxjum/vpVMv1ohVjeOfaHeRWgEeO7kMmlYjwl4t7uNKMoydOf7OPGj/TvcomZP6pexuZdbSpPjb+LsLpeNT5q+xLVJuKTnAdOdNdJqgioEtzdTOMKbXVRX5KCTaOZsufaWbQzaYqXejqxL66TE/H6/pWGcf37iBlHO0vYPTBo7ixsgWXz4UO6gMGPch9GZmmylE4jz7CIMIzxjBYyOGLT5/Et9++hL3jQzg+ORbC3F1ex2sXb+L5U4fQ5z9HJWekjDGk4jFU6w2kEnFtdiHalch7+JdHzhBu5IfdOQ5PTuCZ/YWOMRHpJOMxtFzv+S3Kbqmisz2qv41f6OxNFXR0+HU2Kd5TejfhUtm0KftUZYFBW+RMdxWjctFFWLFdNQuYIrxq5lLBylmNTR+xLyWTqa8tPyo4FWx3uujEJ18Xchnv9M9gr4YHHT0nZkRfHc9Ae/w2K1Xk053nX4k8J+NxfP6R43j32h288O5lPHvyIN69dgfFSg0/9fh9keepvCAY1cfk6ABuLa7h0M6RCB1VkfXl/TB4T877/XzxAW+ZqNJ/cO09DtJETIK15UVXZ4tP5VO2GRaV1XXLXzdtOt5N8Dp6yq9V2iD8MISB7e9tbYeHbvra4NPx3g0/pplRR8tLmjr7t1wXs8vrOHv9Dt6+PIOW+Oc1BkB46FOzvWTkeXF9EyPSc1EUPw5jeOjgbhzaOYJ//AdfR8t18clThzoe/pQdCgAmBnsxu7KxbVtxGPMUxTk8uX08DADnuHhrDq+fv473rt3C1Tvz2ChVOmglYjHUG02rsfpxFFVGKf7+h+DHBq/timO7Ja7KflSpmypToiK+TtG2yzEqLZTvTQGwm9RWBUPx2u1a3cQ7YwznNmr4tQtriDHvSzAJh+H3Tg6iX9rb8ZzbOxXh5uwy1ra811U4PCcdGyhgcmwQ/SMxOGduA5HXXYIUg4Wv0OjGkrIRALi9uIaHDk126IOymYW1Tbx15Rb+0U8+jbeu3MaVu4s4tHNEuRUQ/GZTSf/xAjUNnW04obwBguhYHdw1hof25lCpNVCq1jAzt4yNUhlB7uk4DPMrG6g1mjh5IN0RZL96r4S/uLvlLY0BHOxJ4FcP92n5UtWp2qixUC3n5KBP2ahuBaHzE1t8tktNFf86HuMUgIyAMmYZkaxck5AUnIoPqs20zBTrKEWogoY86PIyRSeTjJ8yPEoHYv1itYU/u1sK7x0Av368HznGsbZZwsz8CmoNbxf53I27SCUSmBofwsHdY+Ff40TapXJLIAhEnvVk7Rei+/KZDtlVYx/Ub1Xr4ZIwoEfp+t1rdzC/tomfevx+JOIx7Bzqw+uXZvDimSv4xMkDcAjdBHhiDtBy6T+UUOMhjlel3sD5mVkAsYjM4jWH90BtTzaNnmwaYwO9EVwu51grlvDOlRm8dekmWq7rZ7YezW+vJ/BvF3iI7/GhNP7x4b6OdylNk6VuuSXe67J3nY2raOsmJVWgUU1uKtom3JS9qXjqyLBUDk4FC1PUVGVRKgGpDMmUNVE8mnhR1VGDqJPZtl43K8p88DaC0LnevnQT4+kY+ntyuH//LqSTCe8lXsfBg4f3kPoIcCcc4NRQChX/T/TrpSp6sim43HuS+76RJF4+fwO7R/pxcu8ObZCP6lrwfYXem66LF965jInBAj770JGI7I8e2YPbS2v481fO4jMPHgmPspF1AwCZZKLjRWZRt5TOr95bxPvX7+HhPbvxYNnLgBwGFMsV9GbTiDsOHAaMpOl3EsOAyRgGevPIZ1J47Pj+Did78YNlYGEjHD1H6E/hM2VLtnYq6kCWXeVLKhsRcYr0urF1quhk0cku25MIt61Nd0pI8V6V0VBK7ZaGaXal8KpoUPWm4G07E+ruqYyNLJyBOcDDR/dih/TS7dLGJob7Oh8nCLv69yOZOF75m957gi3XxV+9cxl/4+E9UTJ8HO/fuIevv3EBz58+hEwyQRqLWFdrNJAU/nInl+WNEl46ew1PHJ/CuH/yg6yT3cP9GOzJ4a/euYRT+3dh7/hgBx7GGMYHCphf3QzbdbqrN5t46ex15NJJ/OxTJ8EYw98+3Mb71pVbmBwZwGi//p1EEbeXLdE0HcdBmHKhfYopNRYybpUcpnubvra4VXh1bTa+pWqziRk6mnERWDRMVZQO2lXZieraJgrbzBiqrEXVT1enUpgpc6R0ppKNCoCy7CLMWDqGL+7KocWBzUoNDoCs9LAk5xyLa0XsHh000hfxV2oNZIUPP4h8ndy3A5OjA/j6G+fx0MHdmBrznHyh6J1PxZj/D97e2Z2lNfTkctgoN3x78Rw7m3Rw7uYsbi2u4XMfOxb50ARV8pkUfvLx+/DqhZu4vbSGp47vQ4tz1Jveg64MQH9PHjdml7BruN/ng/lBISrD7MoGXrkwjSeP78VYf4Ec6+HePJY2tjoCliproJxIhD1ZiOPzvS7Gh/rhco6DPckOGGoS1dmfCGMzwZtoUTSpSUiHU0fLRk6bdh1PwX3kPCxTNLZZ0qgyFErp3URzKqrrMjRVtKYM0RRYdLgo5Yvpv4ovVeZ2vDeFf//oGACg1mjitXPXIhvuAY5ao4lUIkGOgUwn+K3UG8gkE0q99ecz+OnH78crF6dxY24Fjx7Zi5/8n95FsRKcoeXjhrev5DiAw24CfhCb6EvhF5/KY7Anh88+fLRjH0clc8xx8OTxvZieX8Gf/eh9VGOD+L0XboU0OfeWl8nYLMQTbYIA+iufnsLOfBWlah0/+dh9SMQ7//oYlMGeHG4vrSnHRVVc1yWXdaPFRfyfT+xEXz6r7W+bRemyF1tbt4EzZUnbpSWP73ayRx1cx6fqTRFdVKxtxFfBm9bdKngZt27Nq4KT+aToUmtqFe9yuwqnbT0ApBJxDPX14M7iKnYO90fams0WEvGYEa/I21alhrzwVRtKBscBnjq+D3eX1/Hnr36AjXId5Ybb3rCWH8D0IwpjQJy5uG/PQewc7uvgQ9SPiue9Y4MY7s3j1/78A6yXmyEdBo9GibntMfODFQC8evEWfvnT+7FvfEg5IQQlmYih3hD+EKHQm9iPMYZYzPH2F4W6UrWGVssNg5XJXk1FlY3oxtfGNnXZIiWzKtEQedPh0MlnsgETr06gENm4qU4mxsV+sgJVBqTrZzv4Kt5NEZ6Sk3IwHR7b2amb/mI5tmcHLs3MQlKZ906cY/96CABslKrozaW1PASy7hruxxceOe49LOn/F2RSCO+9mOL1Z+jJpCLBSsWHqo4xhkI2jRNTEz7uNp32j59iBTGTczx0aBf2TwxrM4jgXzwWQ6MVDVi6FUIYyJkD140GkNfOXcfDR/cq5dIFCBXt4J8pAKhkFe+picJUVH1VgdPEgy3PYr2OTpyK6qaiy15s+8nXJtqmrMmmqGiY6lQzjYqGCqc829ngYgw4NDmOy7fncMT/uKjX2ObTlr+NcgV7xzr3vahZmHPvG4F+AuUHKiHjgZ9ctVkBE3gyyaWD8dr80xl4kNh5UcoPm+CM+5mdfr9VLjGHoeWqTxFR8c+Yvyz0Hx1ZWC1iuK8HSX/5aUufoi8/aJ8AACAASURBVKHL9OW+ppWDiQ9bWtvBYcvDhynhAX62M7V8TylVFz1V16plpIqOnLXpZFDVifyKfKtmXNmpKVlVgyXPmt0M6u4R7/PtwcdFWRApJLyqIBmUYEkotun4CldfYWBi4GDgvB26grOivJNG6WWMaaxleJcL9f6hgEGgCqKieO2gcxy1GazCbkT55f79PTmsb5VDuHPTd3F8744O/an4EPF3kxXb+CdFx+SHKl3p6lU8inhV+lPxqMNF8RWnOnZ7ryKoqqfWqdRssR1apn4mfLb9VAZvqjOt46kg3HQ5jhyYwssXZvDQkSk0Gg0gHkfN9Z77iTHAgRpvcO1y7r1XqKAn9/cmBcDLbIJAwdspVbhEDOiYlyeUHmTYSNwNsjYpuwv5B6AaUp0t2Ex2TQ5s1VtwORDL5nBlcQNuKouZhRWkevtRdRnyse5tbrtBi7pXyaHDZ8MjVW8btHTw2+UvKFanNYj1IhGVw8l4RFjVpqZ4T+Ey4ZAVoJJnu7hUs7AJj1znAvj2bAlbTReB+93Xl+z4gISI98xyDU99fQ4t1wV767rfDjive9e/dLwfv/2xIS1fQZsKxuXeF2Uq9QbmVjcxv1rEQrGCZqv9deggz/H2wL1lmycfAzgPMyzdmKnGXNRvcNAgBwcLszk/doUBDN6ePOM4PzOHb8bWMVTIY3yggKHeHBKxmLekRbQwxpBLJ1GuNZCTntKXefr2nRJ+5sXZUN9eljkdLoN/r76BXzjWR9oGALQ48N3FCmotHj6fdbo/hXHhmTrV1oOqTdaVrGNZVhmPXFS8q+B0PqvDpZqkTKsCGafywVGRCNVZxYTpWofDNrMzZTeqepvorwpOFM8mnijd1Zsufvm95cjHDX7tWD/+6bEBEh9jDC3O0WhxuH5g8DGG15yQV75vtFqo1ppYWN/E6mYZK8USNkpVj0fmPdEdcxxkUgmMDRRw+sBONLiDX/+rN8CbPCQpEGjryA9cQfJmsqmwH2HAgLckbC9B/fDAxN0ytP9gCYaTeyfwmQfHsFwsYW61iKv3FtFsuWi2vNdowDiS8TgGCzkMFXJgjGFhfRNTowNGu2vIZ1ELimhyvd4rTRd//+1F3C37548xhj97bBQ/vTNPwqt0pro3wZvqtwNnmyHZZIrd8BbAkhlWNwh1GVZwb4qqOhoqo1ZlSyJOEy+q4KTLOnVy67KGoJ4jOOkl9EpslCq4Nb+CTCqBTCqJTCoZ+QtguGekmAEZvM9XbZa9L+CsbVVQLFexVamhxdtnAN9aXMXkovd0+Yk9E+jNpbX6WNmqBw0hpZAPxnwZWBhHgq6mbFqcoJTjyP1ACBYGpmATPlQcQwTXcG8eI309JP1ao4mVYgnLxRJWNsu4dm8JE4O9YUDLpZLoyabRl8ugN5dGIZv2XrOJqNyX2afPeZTnRquFSrWOcq2OWr2J9XrT++iHYAYO9LarykTkQmWulC1TMJR9qmxWpKUbW5UdqfxfRUfkgeKJzLA+TOl2VugWH1Wvy94+qvtuAreOZw7e/uKNDxb3nX99q4K5lQ1UanXUG03vKF8OfLAZIvB+w2TDu785t4wXzyyhJ+s52mAhiz1jA+jJpMJvDZaqdeRSSTwsnK6gkwEQN92jmQ0YCzMgCL/iYX46nZiu3SAe+gGiTScqd6AT70hlvT2kEnFMDPZiYrAX4wMFXJ9dxqNH9vhycpRrDRTLVWyUKrg5v4qNcgXvrLgAC5ZvLLphxoEbc0t4jS0D3HvtKZ1MIJv2Jpx4PIZ8Ng3HqQBoP0ah0lE3tkb1s7Fdna/raHbLr0kW26yMgovLkZhCYoIxtXVbdNnSdnH8uPt1U7IxhmzMc/qm62KkkMXkWJ+SrjtfAS743wHkwqa3fyDdgR3D+PSDg0q9MeadXJAWnnK3GUeOIGiJmZRvC1yIm14NGNPvg+hoddZxiE3Mp83D5CqAY+EfElSZdtAWlGwqgUqtHpnps6kEsqkExvp7Qhzu3TIwfVdkIJQfjGFybAiPHe9X0tlscoxnNr2Pt8bjcDmQjtGZjm4vR60ju2sKbzf+peLDxLsqy7PhSe4X0I/LwHJHHQFduwmvjEfEpVOASdmmQValtjZGRPFK4ZaLiDsbYzj7qV2hM37v3Yv41MFeLb6Wy4WlGIBg/8p/Etwh+sg8rhRLGCrkIvUmXSViDB/b14eK/5cyzjlK1TrWtioY7S/A5V4AcTnH4voWBrMOiYfSvQwj8pOOA4WUi9G+ghc4fNrrpSqS8RgS8XhY7wLIEGeFBXSoZUUmmUCl3jBmBuEdQ3Tv0C+NltvRT+zfEwf+j/0O+vKDmBjqAwcQJ5bNKt2IcOK9KkCp6lRLNpOPUPxQ8lJ+owtWsqymLCzozxjr/AiFCoGqUP10zqtzbl1QEdtleroga8ufKtVVrcEpfJTTUDiTArrJ4T4srGxgYqgvxBXgb7kuLs3M4a2b6wDi0nKoPeOLm92qALxSLOHQzhHt2Mp89mUT+N9/7kQE39tXb+PirXl86blTkfqljS386h98HcvFQxju7dxUtqW7VanhvQvv4E//4VM4KByLDAD//ofvYbS/Bx+/r/OYF8r4VTQdx4l8w1EF6zD4mVWQS3Jh/w6Ynl3Gy2wFpw5NoiebJvGsrBVxYmoi8l6laB+mQKILqqpiCii6MTEFcVMCI8LJdHR8Uf0o3HGdU9oIpGJeNYtSAUmkKRcqUptoqmYrkwzUTKcKQOLMqBoQXeAKypHJcXz/zGWMD/ZGcM8ur+PizCwO7R7DZx7Yj1eby2j5/uJy7n9SC5hdKWJfIaGkEdyvbXmH9FG8UXypZJtbLWKkL9+BY7g3j//2bz+Pf/pvvoXf+vLn0ZuL0hL5UU0A9WYLv/7vvoP/6JnTOLBjuANmpC+PlWJJOzOrJg2KnnwtyzSUjuHBAkchk0I2lQgfTQjO1vrs/h58bEcab16cRjaVxP37dyGZiIc45lc3MNzf0/FohcynqBc585Ll1Mmlk9WkCx1OXQCV4Uw2ZcJhGtOOA/xkwrqor0rD5czHFJh0WQx1r1teqNptBp2SSwy0IpwchCkcMi6ZVtDWk01js1xFIZdBqVrDO5duopDL4BOnjoTf0Pvap3aQAfkHH1Swt7+9qasaO5dv7zkpsXDOsbi+iQf27YzIEFxPjQ5iBgN45He+i5G+vL/BHDh4e3PcEera7cDqZhnzqw18+XNDpDMPFnK4fGehQ386h1K1xYJvFDrRQCHq5VCPg1/dWcVPPHYAMcfpGMMA59MnD2GluIWXz17F+GAvju6ZAOcc1+4s4JFj+7Q8qrIW1SQvyiT7mdxXbqfGV7ZzFQ9iH5VPUdc2OHSJhjyecblCBtJlCKa+OsFUQdImmpv4kKO8GDRNWY9NVqQKPio5ZDxyED+xdyfevTKDbDqJYrmKR47uRTpJn1slz7xPHt+Lv3j1HMb7C0jEY6Ts3rU+M6V0Qxn38kYJo8LBgRHZASxVOC4vV3F5udre92FMfe0RCldcYAyr5XqHzgDv+Ju1rUqHjDp9q2w0l06iXK2jkOtcygW4vvf+NTxz//5wOafLDAYLeTx7+gjuLK7ixbcvYHJsCLGYg2QiHulL2Ymtv1F11PhRmY5JH6LsJj/sJmbIfIo0usEf1Cu/mqNjyBZenrHEegpWpGNLzwaOwm+DT6c4WQ65joKh+OGcY3ljE6+dv47hvgI+fvIQMqmksW/QFo/F8PH79uG77101yMOVPKl0Q8FulKra44wjW0OMtYOS6jq4F98NVOi9L5/F+lYlvLddqlAll0lhq1oj2xhjuHxnAaN9eQz05Lqyxd2jg3juwWN47+otrBVLKEpf4bF1zm7Kdn2nG5wfJS5VZmZTun6swURku20q+io4Hb8iLWq26FZJ3fTtBn+xXMU7l25idKCAv/fZJzC3soHdowMdvMtjIMsz3JtHf082/BINzYt57GxKvdlEMtH5QdGgcM6Fv6iJpR04I1UEqEPYGWMM+XQSlXpDu13QQVVhs4VsGsVyFeMDnR9RrdabODczjy8+dVK7lFdnNhwj/QU8ef9BvHHxBmKOg9MHJ8NsS6anK7qxt+1n6ku1fZS+Glyr8OpWLHIJNSinaTICEUaGs53pqCWHnKWo1tqqVJUaTFPQVKW8NoZvSpd1vAWw9WYTZ6/dQbXewBP3H0Aq4S3/zk3fRct1w4c9VfxT8nzs0CT+4tWz2D3cj2w6ua29BxMsADSaLSTj8Q54r4/rZVhMDk4iDklfhPocpt7jaBGPElD2IhYqsPTm0piZX+2QnXOOb79zEZ958DAhX+cSmaJ5/d4i9u0YQTzm4Mn7DmKjVMGr565jsDeP41M7wn1JkSblUzqbE9tVdqbL5lTLMhMdE79Umw0fKr+XS+TLBqZIR0U+naCU4KoIq2szXYv3NjNFN7OJCUanj42Giy+8Mo+6y8GY97zUL45wDFWLeODgJAal56ImRwdxe2EVe8YGI/hM48K5dwrD86cO4YV3L+MnHjsRwVtrNJHy97c4V5+vL/YRYYPrZsuF47DIRjWtSzFQ+RlXJIgJqVXwQGoAw+kg0c2YqYK16Mi92TSK5UpEVgA4Oz2LvWNDyGdS2kxXR/v2wgqePX00hC9k03jm1GHcW17HS+9dxs1EAV8txuDAC87jmTj+l1ND5LiKcsi6UE1eJl5VE1aQjFD4TbRNfJnubXXcsemui7ymoCQzQ0VM20GhDE3FI1WnE14106hmdYqObiYI2usu8OZqFfWW76SM4xd29eLZ4zvJLfC9O0bw0plL2DM2aJRfloVzjoYbQ9VN4Vvv3cbescHwr3KL65uo8ySmF8thHWPAQD6BfCr6NZ4AFxUkt6o1ZP39NXJG5cJrR0GgaiMNEAUYgwZfN0E173jVRtS1KnuQeZUD1GKxhkbLnziY91Do4mYdK1uNsK5cq+PC7SV87pFj4QdpZT3r6ALA8vomBnt7SPidw/2YGOzF75xbwLfm2mdr7cvTGatKNlNR8WryhW7rqEJlZNspygyLclJd0DDNbDIeXZpoiqi6aC7D6PrJvNtkVKoMorsAJrxe4j+V3t+TI4888ZGhN5fF2mYZA372pZNTpA8Af/nuPH7rm7N+sjLt4YaQ77DbbZoAfuNnDuFnHhoj8VK0tyr1yIZ7x/hy/2gYpX6ZELjC/wn7WF6W5bDOyTAYi3Qy7n+AI650DGpMfumPLuLMzIZAG+Aux6996zWhn8fD//BXr+L1f/Y4+nMJbXZLLZXOTd/Dk/cfUNqF4zjozWcBlMJY7YA+NVXGb+ODttmTTleqet0kLeO00ZXMtxwrqAzXERUhX6sYlCO4KqLLuKhsS6eAgB/dzCq2UXRN8KpMkaKvw0W1h4sj35kBYHZ5jdRrMCAnD+zCB9fvkDAUP+Jgtlz/dRXOvWsXaLoI64MjV5otF02X3guiZAr+rZcqGOjJRuDl0g7QIZDwD0SGJdQzJlzSvAz0ZLFcLGlncWpMPJk5Gi5Hs8XRaLpoud5xP/Wmi0aTo9Fy0XSBepML7NN/wZb1BgDVegOJeAzxWIxsB4BiqYJLt+Yj/IpvKujsWbxX/VPBybqylYnCayo6v9DRpVZ3MnzneoBASrWZGLap6zZlpPiSZx9bHrodBB0uVXsu7uC/PtyHVvuEF+xON/Dddy7hoSN7vGxLHpBYDI7jfcZLfBZLR689IQT3XuAIdosASm4exg7b8VpYK4av3dQaTWxWvONsZlc2MLtSxOxqEcvFkhCUuPDbziLbe1YQYNuQf/idt3B8ohfjgwXsGOzDQE8W+UwKuVQSg4UcVool7PRfZdLpRbQv18+emH8sTJu79qmpwflbnj3p9UHZ7vnpezi+d0dHv2DyuXDzHlaKJfzM0R3IL9XAufcu5FCS/vq0SSYVH7p+3cLLspjKdvxZRY8qHZ/5khHq0tSPolApIpUK6lJz1dJPhqPwUPzIxZYPuS4XY/iN4wMd9Y3mEN68OI1cJoUHDuzuwHHq0CTeu3oLjwqfRjfRBILlGLxMhfkZbRC9wLxjWsLYwTqefG/r0/tgxdpmGYvrW7izvI65lSJeuTANxoCXz92A43hfyenPZzHa34OJgQLu2zuB33/vbaxUKxJnAt12dEBIjLXbHQZ86vRh9MRdzK5s4IfnrmN5YwublRrqjRauzy7jlQvTuG9qAmP9BUwM9mLHYAEDPTn05zMd3yQUbYSDgUVsQ2KTt21IXpZSRWx3OcdmpYreXKZDp1uVGl6/cAMHdo7i2JQX0J4cy5P7PartF1t7t+HXxoZlOpT96/xpuz5j8tHIpruJgEqRcn9KYF3RKcaUFckDacq2qFlGteamBkeVXlPpLKUTxhiSiTieuO8A7i2v49tvnsNjx/ejL58NYXPpFKr1RuQRB9VyWqThx6W2HsR+QpITlOn5ZXz19UXcW97AwtomNivV8C+BuXQKA/ksxgcKmBgs4MSecRQrVXzhkeM4tnss8qf5oDRarvfp9nAjXSDIAEBmwg9W4Tnx3tjtHO7FoZGeDhk5gB+du4GLtxfw2YeOYHZ1A3MrRVy+s4DljS1slKtoNFtwHIZ0IoGhQg7jgwVMjgygVK2HZ3kprZFFWVeNIVVu3lvEXulTY5xzXLh5D8sbW3j6/oNISW8vqPCbtmJUdqnzHZXtmuSjfNMGJ8W/SXbK52SYjgxLznRM2Y8q2uuYoJiiAo8p6sv8quC2A2PqY+JFJ08QVHcO92N8oBevnruOXCaJUwcnQ5jDu8dxcWYWJ/bu7KCv0mGQYckuKfghhGM7sbBaxP0Tg3jm/v0YH+hFLp1EzHEQczoDMefeme8jvXnvo6IK2dt/JQw5BsLjcMRloWzM7cVrwH/HxAlgfKCAMzfuYnJ0ALtH+iGXYP+u0WxhcX0TsytF3F1ex2alHmaa8mMUESX5LItfABJ1H+FHGIeZ+RV84vSR8L5creOVD67h4O52VhXgsM2MdBOm2G6bfel8W+fHOp5tMkKqzkYPlHxkhiUXXZajyirEe1U9xaiOli4Y6vimIrUpJaV+VYNJyW+acYJ+sZiDp04exOzyGl546zwePrIX35hv4cp6A7cXtrB3dbn94jCAbNzBzx/pRS7OOvC5cgLDgOA5JybW+Xs1T53Yh+cfGLWecUu1OrLp9scyOvUq/VVVDExMZsz/5WKbt8ckZjdyGerNYXmj1KHPoMQYg8M4kvEYpsYGMeU/0/Zv330bC1tbPhWB9w7dtNmlstn/+eIGposNuAjO6QLqrRYW1+L4TmsZ//zUIG7encP86gaeOXU48nS7jEu3YrCxZxVe1QqIKqp206rEhm8bGUz8yf3igDoK26SQqiCkyipMmYwONwUjF1V/aiah5KZmHl1glIOnLpjKuhDxjw/2YbivgLcuTeP3zzXx7pYDgAFzwdPYXvbUn4rhP97fg5z/mfpqo4lbC6uYWVjF5TtFn4aYLghZBND+XBYTY4niuSqp1OpNZFPtgEXpJPpYQ5BZQeIpuA9+eDsFFAIINWP35jLYqtQiurPJpoNDAD2SDGDtPa2Q2yDjYsC33r6Isf489o4NYrQvD8fxPlX/JzeKeGWu0pZJCMqDa+t4jC/ixK5hfOLUkQ4ddZOxUTLZZjJiUdmvapxNcKr4YOJFl3zo9CDzQR7gZyJmMwvY3JsisuleB0Mp2SY7tLlXDTQ1e5hmOxE2EY/h8RMHMHT7DrAZOEUIicDhF9c3cXV6FavFMlLJOCZHBvD0fftxYekOXrhcFv8mCB5+d8anEyy3QL9krJI7+NxX3N+7Ih0QYqyi7IlFfiL1vngMhkdY4H1wQ2w3jQ3g20CEV3+Pj7UX0OJq9vMfO4b1rTKm55bx9tXbiMccjPYX0Gi2orJJwfqx4/sxko++HK7izcaebfrZ+K5tH5M/mfjrNmOywSnek481mKJo8KtyRpslky5jU0VjEacu6qvwUdeqvrqZxmZGEZeRuv0Aih/OgjQjyDzasjZaLcyubOChPWPoy2XhOMKs7P9fTHAQoolmN0GGZZIz4KnqP6wpyx/pw/0MS+Q94EPM/JiQmUgZYSC6ykYCSF32KssBRB9rgKAvxlgY0hGZdICRvnx4WGG90cS91SLqjRWFLEAsFu9YAqq2FygeqTqqv05uFV4dfp3eTCseyrZtZO5mlSTCd3z52TZzkoVUwZqyim7gbWFsIr5p5rHNsGxmKttrzjlc19s09msFX/acIxV3cPrALgykYx14XO47ZISl9n3768ne9b3ldQDDRv4YY6jVG8j4f+WSjSmc/WIM3/gHT6DWdL1TUf0Axv1fXR33fxmA0UJar3/o/xIs83jp9gIW1jfRzvCYoIdQS2G9QwxpMhHHnpF+9GZLwEalPZEIvy3XRb3Zgpt0Os7Qkid6ajKT21X9g2KzcpCLrd6oe1u/s/FvVdBSxZLQxqgMQbcmVpXt9KGKLmvRwanWwXJQ3Q5uCieVoQXlvfU6zm/Uw8eOhlIxfGo00wFXrTewsVXBnaVVVGp1AN6LxRslLuz9iKXzcQWRrxM7e/DTD47hxtwypsYGI4GAS4GCc+CdKzfA6iv4T557GJWGG27LMAGvX4X59RIymTTK9aZfxyKwDmNIxBhO7uyL8NStjoPSaLko11tBDInwxJwY1ss178DCoF7iJ+DppbNX8e23L+HZYwewUXEFHQi68TfQNys1uC5HTyal5C8azMSJhaPlAmev30EaLXDOEY/FMDHUh6G+PLKpVDQb5hwzpSa+u9Be+scZ8Hcme5BwooHMlNF/FL5HZTQUTDf7Z7b0qKLys0j+SinHlJ7aOrFtP5vlpEkJMly3ytcZiI0j/vGtTfzu1Y1w6fDwYAqPF4awulnC0tomyv7BcZlUEr25DI7t2YFMqp299Ny6A6z7L8eKpxn4MUyOY4H+Pn1iGIXYFsaeOoK944NKY2/r+jj+4Dtv4h/+q2/ia7e5H2BZ5AVpx18+NlotNJot/KtzL3S0MQYcHSvgz/6zxzpeXO5Wd0H7ty7M4ct//E74ojJjbd6K5Sa++hvfQcxxvHqZb3jBajDRwGf2pPBbX/48kv4DpSobYYyhWm/im29dwE88diJ8tEPUb3vpK2XA/rXjODh9eA8GUt4fRFqui3tL67hyewHlag2cc6RTCYz0FTDYm8e7a038/LtL8NM0JB3gZ3flwy/r6DIwlf6oYrtUU+E3+R6VJVF4SV2iM0jq6HWc1kClb3Lqb/srM99NP+rexB9FM4AzBV8belQ91e62gQAObJWruHZ3AQM9ORyZHEfOf4FYtfyuNYSNXSbgivyFr7PfcrGEjXIVjx2dIvmTjYIx4Oc+9TE4L1/EH1y6SMopl9VKubOSA7lk9Chg8VqlY52+qw0XK6W6ko+tjaqR1+cODuGf/K2nleeLyfTTyThO7BnHO1fv4GOHJ0k4x6vw74K9LK/Umy0srBYxMN4PxhjisRgmxwYxKRwXVKnVsbi2iWt3F3BxoQYgFuII/zBCOK+Kb91ekAxP/cq+raJps1Vkg0tnBzaxKHysQZXRiILJbaqMShVBqWsZ3nYzTldn00+kbxPMbHC15UJ7U5l55yGdOrjTCsebF6fxlQf6kMhk4SJYygEuOK7cXUI2EUc+0emALdfFD85ewxcePREZE5NcDmM4unsMgBCwOEA+Gq8qTH2ssc34BHAhOsa8zXslsMCavLEfZkAs8uVrEy9B28GdI/ja6+dQLFfR408sYR/G8PuPj+CFszdwfHIM/fmM90ENeNldjAF3btxABi1MjnV+2BYA0slEGMRuZLaAuYW23AKcatyodl1R+V5wb9Of4kdVp8uuKB7EOtPqCkB0012nBF10VbVRzKmiry0PNgGj20zNFo9YR2VxQUk4DCn/y84AQ6PRQKPZCt9zo/C7rotXz13HgZ2jGB0okHSeGNmFP3/1LLg7BjjRd+beuDSDU/t3hX/J62ZMvOAQ3Y/xtQE6MqCjjrEgZuj/CqYqlBFHeRB4iXh2BIlQ1/5eIzXz6+h/6vRhfO318/jiUyejYwygj1dxJM/wick+Et/h00fwg/cug4NjanxYqfNqvYEzF29gMFkAhzcpZeP0Rxa2swKg2im/MAUtW5ofRZ0pywOIE0d1GYUpU5Hh5EgrM2LKqqgITcGr+JZpmmYq1Vpa1VemF8D/zv2D+O37BsL7Sq2Ol85cwhP3H0Qmmejgtdlq4YfvX8HxqZ0YHSiQNDjniMUcPHl8H37wwTU8/8ChEM/iuvdy8OPHhkh+xV9KvvaHIwIPR3TZ0xGr5OyLkx8K1c3spgnDFbPUCHHu7+vxKK+BzhjzYDnv+EsdRUsujDGkkwkcmxzDmet3cfrArhDO5Rw//OAGfurx+0g7Cnj/+AOH8eq563Bd3vF+IQCUKjV8952L+GcfP4b/0bcHcZx0y0GKf2qcdX1M9tCNP1L13Uxaqv0ymd+gODpgVR0FY4rk1AynUwqFl+qng1HxpeJHh9PUV3efSSXx9MlDeOnMZRTL0b2XZrOF77x9ASf2esGKwiXWjQ8UkIjFcHfZO4yu5bp4+dx1fPy+/Up+ZZwy/5zrln/MX9oyL1AEdeGv989hAWh3ulHJ6UaClcyPQDvMqlgUnjHlMlWkJf8LyrHJMdxZWkexXA3b3rg0gwcP7opkymI/8ffxE/uxUtzCjXtLEZqb5SpePnsVn3z4WPh1pG50pPIPXRZG4dXZQzd+Yepvw4/OH+W6MGCJa1DxV9XZZv0rFlXWQDEltuv4kWFUbbp2+VoHr4KT4an+qWQCzz94FC+/fwUrG947bY1mC99+8xw+dmQvRvoLVvQB4Ilje/H6xZtouS7evHwLJ/ftIL9jqOJdrmtnWEI2FQXyfhnvrPOvdZOP7V6JCB886Ilgucp93jhv/wM6r4VCmZWNfr2+DJ84eQDff/8aOOdY36pgZbOMfeND2n6iTT90eAqb5Qqu3fX2qTbLVbxx4QaeOXUYGekVHH2BRAAAIABJREFUJypbU/Gloilf2/D54yg6X/+wdB1VSiamdNshpEv1dALJxSYLU/WnorZqOUhFesoQbGciSm/JRByf/thxnLl6C/eW1vDi2xfw5P0HMegfimeSJ6hLxGN45MgefP2N81j1ncjWCakSnqMlPVgpvGTn30czGJ8pP5uhaaqW6yrdRvUWZE3BL0f4jIPIa5hlRah0LFPbrNtNvD2ZFCZH+nH+1jxePHMFnzx1yGi7sn2cPLAbtXoD716ewZsXp/H0yUMdkwud8aptYDs+KfdT2Wg3wUYFS8UOKrOzSSTkeoda91KMye3dZluqQbWBl+lRtE1r7mDATLRVM7AuZVetuyl6iXgcj993AH/84hs4tHsMvblMh7xUqi/j2jXch9cuzuChg7uNgZmqF3XTfp0G6pUh2dZettksFVT1wb24rxLJ+kJaQpWOT182edM9oGXr8IwxnNy3A989cwX7J4aQJvYfRZwqu9k5MoBz03cx3NejPGCQ4tO0RLJZQun8TpfJyTzZ+ISqXTVh6SZ8Vb0jMq7KIsR2SgCbICAHGV1AEulSggbXMm0bnCr+dHXytW5ZQc0qYilXa3jt3HX80s88h/nVDczMr2h5U/H36sWb+PKnH8FLZ6/Bdc3GpM94I5DtX5kljW2LwUEuqoyK4imA7cj6eJBVCZldB/Nihsg6Nt1V9q0b61K1jqHeHG4vrWnHXc7MA7il9U28e2UGX/r040jEY3jv2m1tRibqxrTqUPmjjF8XlET/lnHr+JPpqLNkNU0dHlVxqGhHKU01Q8kOrDJOqi2oUy2DVOmvLmhR7RS/VNEFQRXv1LWKl2Kpglc+uIYn7z+IVCKOx08cwNzKOi7OzCp1KuuHc46l9S1slms4uGMYpw/swhuXZ0geKRwyXDs4cCD4C1wQLMKggHZWE8YzAYbz8Il0SgbdMldVIs9hBbwFvIiZVsgfF3jy/jmSrVLOq3Ku4P6ls9fwuY8dw0hfD67PLpMOqfKXuZUNnLtxFx9/4DAch+HI5DgyqQTevnTT6BcBDpknnT9Q16p7Cle3v9TSj9K3ipYKDwUX/HOoaKdKS+V6+Z+qj6qfzCyVVZl4oYopnf6w8lL0KVgR99pmGa+eu45nTh2OfKLq0WP7sFWu4vz0PaVuRRou53j53A08c7/3V8H9E0NY2ypjRfiSjEpuSj8eTrT3gYJlnrz8YohmMwEM866D7iredTqj6jxSfhBiLLqHFQJL1yGMByfuq5nsjbKJq/eWMNKXR38+i0cOT+LM9TuoN5sdk7ecoTDGcHdxDRdnZvH0A4fCh1cZYzgyOYFCLoPXzl+PBHRdJiTj1umZkq8bH5Vxy7RV2ZHJpymd6exBhgv+OSJREVAVVSlFUoWKrkEfU2QVB1KmYRu0ZJlMzqySj5pF5GAky9Xi3uekWtzLFBbXinj9/HU89+BRJOLxDp08dGQKjHkvzqpmooDWm5dv4b69E+HGLWMMH7/vAH74wfVwaWjKIuRxaWczwpIrfJwhoixpmdiGdwg9UXyoxlpuC/fVIuMmpHjtCIn2Yw5BPR2ExGvZtmSbrDeaODt9Dw8dnAxhnn3gEF48c9VoC7fmV3Dp1iyeeeBQRC9Bv0O7xzDc24OXz15Fk3v24o1BNKBQ+pJxyb6i81PKl2Q/EfvIOpHrxTaKNhUDZJ+iYo2OH+OZ7jqBqT6qoqNjA2PTf7t0qHrZAHTGL+P4vSsb+OcXVv1+wIl8DC8/exwxx1H2PTa1A9OzS3j3yi2cPjRJ0lnZLGNtq4xHj+yJjEk2lcDBnSN4f/ouHti3kwz0Opl5sIwSzoVqFyLQMwmeReOKHBBsxkDUd5j1hX+VbDtzOzAFPECACZH5S8IoLd24iXwDwPfev4ZP3H/AQ+XDDvZkUcimcHN+FVNjA6SsM/PLuHF3Ec89eLSDlmhDB3aN4v1mEv1/eTNQIYZSMVz89C6k6VcfO+iZ5LGV/aPyXx1NXb2KP8qOyZefqZlDF1VVKSI1k8n4VGm1jDfoo+NLxC/T6BaPrA8d/3L/mstRavLQt3gsFnmnTSXzvh0juDW/jF94cRp33TRcBGdGee44v7aFib4ePFJzMZByIniO7xnHV1/7AAd2jCDvn7tuGoOA7/DVHN/R27+i0qR7Fq1TPaQpyxjQ1I1TyFMIIuEWE8KQBwmG+Z+kJ+zZZGf3VjaQSsQxJDxuEpTvVgr49ksL2DVcgwMvKAb7d0nm4u8MlPHs6SMd8lMrg2QqhVKLhzJlYp0ft1VNojqfk3FQOFUrDpVv6HDrYCheVXYp80r1jZtmQ0oZ3WQxHyaa2+ClDFDVx5aGjm/VUkJs85yNh86/Va7iRx9cQzIew3BfD/ryWfTmswi+lCXi3D06iHu8hq/fLgHBJrjgoTP1OqotmrfnHjiEF89cwU88dqIr2WZXNtARnRjatBnz5fF/EbTBy8aY/uVn3bVqwuhgPVSBFDkjmVY74/Nwm8dZ5qXVcvHK+Wn87FMnybF9Y7GGtzfjeHtzK8ocY+hNOvjdx/aSuDn3vuSztlnGanELK8USzhc5vNMaPLYd0I4q16m2Skx2qfNh0wpCzuxMwUk3vqYYoAvAcVEJcjFFZZtIbWLKhp5OEVRfHaxqdtXNHir8Kj78eTJ0nL5cBk/dvwP1RhNL65uYX93A5dtzaLneC7r5TBq9+QxG+3uRTScF55f2ZwD/D2C0weQzKUyO9uPi7QUc3T0aaVMZ2J/96Cy+8eZ19OcS4H6M9Ywyet3i3me+HCcG7h/DzDkLr1Ub3CY7EPuI/CXjDvqzPk8cAk2g1mwiHnOkPw5yjx//2uXA65du4vbiFHaP9FvZCwD86MI0Hjs6FS7f5UDgRocDYprpCEvjeqOJ+dUNrG2WsVmpgnOORCyG/p4chvp6cHD3GBZmy8CscFqDtKym+JP1ZZOlUEVlD3LbdugxRm+oq2zBxu+DYnW8jFjkSC/WU8KqIj0FJ7er+lECmwKgDKuiRwUunbIpnf3dPT14ajgTLuf6kl4qlUzEsWO4HzuG+0N8rsuxValio1TBhZv3UKnXsboBYWkWOIQ/04WO2zmw37+4jG+8v4npuWUc2LHmL4mEZQvzeAzuy8V7GOsB/uS/+JuoNt0wq+GCXEHgWlzfxP/10rv4pZ94OqwH2oEtnYiRhqczxkBncoDjnOM/fWQPvnhqZ4gffiACgH/xRy/gv/zpZ5BNJz34EL8P4/fZKlfwlT/9Hv7+Zx7Bm7ddrG41wkP+guDS1pFH+/KdJdy/N45/8ExfxwmhgPhVoM6MtNVy8fr568jHgVQigbGBXuydGEY+k4ZDHAj45FAG3/v4hJ+Ve6d8JJ2o3cl60/mQLhjIAUe2Z5UvUu0yT6rxlvtSQU/2LVlm+bfjeBldRFYpReXkFLwpgzG1q7ImXfYnt+tmfAqPDV8i/J5cAnty9Lt98sAyBhRyGRRyGewa8TZyhxdngbWtdtDyIIP0yq/ulO3aQglffXcBAMcHs/Pg/rKUgUWyMuYHwv/86RH80uePwWEM2aR67wIA0jEOtBqY6G0f9UwZ7e//8Douzxf9bym2TwF1HHTWsXYdC6+Bv3VqF/YP55FJdH59hnMOhzcxNdwT6l+ZxfVn8ZWf+xz+xR+9gBemcyg3vcPyPPG9IMP8LNHTsHf9g+sz+PmP7/ZPVI3aHQ8GrW0BYQBLxBw8enwKfUlHq8vgdyQdwyfS0aOzqaWbKTuklm0qf9BlvFTwUAUmlUw6nrsJTCqZO76ao3NmVbEJSjrFU8J2swS1rbPhXabTrT5M8Da6CidZhvZszryfRsvFC+9ewfGRPI7uHkMh2z69NPiQKve2VNrOyDxnBDiYsMGzb3xQ+bEE+TqdiKPqn+eu4/0b52bx3SuL8JmSnBsQl1AhjM9PUB7Y2Y8DIz0duAPHbLku6bQUP725DL7y5c/hra+8icq6+D1DTxtRzoLJCQIcC2neWlzDymYZYUrHmPDbfnjWpEtZJt1Eb7InKsMy+YOtLwb33fidCoeJL9sgGgasbgJEN0W3NOhGcaq6D8OXjFcV3bvVw4fR21a5ivXNUrtCQhOLOXj+1CGkmxW8c/U2NspVDPZkcXjXKFqun+ojmHVZGKDCTLHNJOmYqpJKxL0lrssjyxu5RBJ0BnQEqACICdyIzf5+mHaWjqAy220iFkfc/xBqwGCEq+DCS5/CIO66HHeW13D5zgIazRZ2jfQjn0kDmzVBjjadluui0WwCqej7grqiWgXY+qOYYX1U9LpZkaj4smmjYE39tc9hiR1slCKndhRReU+AwkvR63ZgVEWlQBU/lNHo+DKluio8AHDl9jzmVjfQn80hE6vC5S7i4YcWvNCTTXi/Y/0FjPZ5WcjaVgVX7i7g8p2lCD/Mz9A8v/L3LoQjZByCP92WQCoeQ7lWR07xuXpAOr20Y6uHd8QuodEH5uTjCBGoiIz0X75kOdrn7EcTVy5knTz4kwbnePHMFVQbDewe7sdTJ/Yhm0rC5Ry5S/eQjQeb+95vi7sAGBIO8Nr56zi+czg8uE+2DZP96GSg6hnr3MsS20R4Ck7XpuJB7iPbtymm2ARm+T6gEaeImoRXOaXMjKqvycGpNrFOpRzVjKSCURm+iFtnYDpcIm+6wWSMoVKr47Xz17F7dBAfP3kID9Rd/Ga5hgvT9/DwkSlxRQjGGPqT0QdQB3qyePTIFN65y/Ct89NCFuXT8G+8AIawkjG7pUCgh1w6iVLVC1hiveg0bhCvAoa5zwhj0eVhELwY8+GDzWxxpdU5dnXhg66UbkmnDP4nLZmj9tvWlcMYHj06hd5sdA+NAfiT58ZRb7WzNM6BK7fn0JvPYnywFyPpGK7cnsNL713G48f3I+m/hiXbUrd2qfKrblYwsq50tk3ZuC4uyO26YK3izyQ7Y8SHVCllUALriqqf7ByUQ4u/stJ0wZAqVD9qgEV4m8xOZWzdBO+Al+t3FzEzv4zHju9H1s9c+lIxXJtewFOHdqA3S36cmyztUzrF1EbiQXiO6eVzN5BsrWKsv4Cx/h4M9eYRjzl+BtJpVP35LIrlKkb72xveYvHzk2hgooaHSQ3BvV8lZn4yjZViCX35jFa3so45b2dm8HnkEXiPftAt5jDk06kOXMFkIdMe3D+ONy/cwPgu7+s4R/dMYHJ0ED98/yr27Rgmj0mW+dXZOuXUgWzUtXiv+jX5sa3PqNqogGcrFxW8g7qOB0epjlSGQGUMNsseU5EdXpzFqXRZN1OpYFT4VDLpcFGyyvipwa/WG3j9/HWMDfTiuQePRuR0XRfFchW9+SyJXyVz8HHQMB5wLoSuYC3EwgckJkf6AQ68c+02FtY2sbpZRr3RAgdHzHGQTSXQn89iuDePsYEerJcquHBrHqP93rlOiVgs/H6fyEN7ScjQ8aCpz5ffSdRgCCc/AiDKuVwsoT+fRaXeQLPVQq3hPYy5UixhZbOM1c0SVjfLKJaq2ChXUWs00Wy5WCn2g/P2S8jhWKCtD+brpxsbArz9vWQijq1yFflsGgCQy6Tw/ENHcWlmDi+duYzHT7SzLVkumSdVnaqvKRip7FUV7KiJVwdP6YrKqCifUK1wKBqcc/2Do6IAKkFU8DbZmU22ZpNV6fjQ8WRLhxrQoHSTUQXl5uwSrt9bxCPH9iEvf0oKwLW7i9i/c0SLx2bCAGNoPwaB9hLRj2j7J4bw2fujdERcm5WaFww2y5hd2UCt0cQff/8dvHF5BvVGE42Wi5jjIJdOoCeTxlBvHksbWwg//ipmUhH2GTozrzbc1buLaG6tYrXovTu5UaqiVK2jVKvj1sIqqvUmpudWEI95QbWQy2CwkMVgTw4Hd4ygN5dGby6NQjaDbCqBpsvxzG++gdm1WjSx8/WDMGx5fAXx0jaLA7ys6vzNe3jk2L4I7NGpCUyOD+Lls1cxNTGMfX62ZWOHNlmKqV4V9HSZjomm6Vq1ovqweBljnQ+OdpMq6tooxkxLRRlONXNsd6lqE3BNM51K4RQ/NZfjX17fQLXF/e/XAfsrKzjYl8azDx5Vvs5yZ3E1zLq6GY+QZWFFKMYMOUho/tgHxhgK2TQK2TQmRwdwav9O7Bsfwvfev4pf/MKTIVyj2cJmpYbNchUrm2XE3lohgpGMXN98a2EVo6k+TAz24sTUBPKZFHKpJHLpJP7ytQ+we7gfTxzfq8XRsV+josvQDlZo729RsLqxKOQyqNWbkc+5BSWXTuG5B4/i0q05/OC9K9gaGscHW67/HBqwP5/AT+/sfG9RRc+UEZngdcUWTlVUmdGHxRuU8K+E1DIoKLrlDQUj11HptHhNwVEpqVgoeBW/Jlw2PIsprQpG1A/nHJUWx29eWsNKPfwbFb75+ChO7OiJ8CziWVzbxHBfj3KJSvEblPCUTgZAyBjkEjilKkVXBe3eXBqrm+VIWzzmoD+fwUBPFruG+9GTvQIg+Dq0uJcGuo4HfLZpffbhI3hi7xCp55ViCQ/s22Gtn4AiFzbdO4sgu/BYg27Sopb9B3eP4srtORzfu5NMAo7umcDukQF8+dW7+NO1Nt2/MZ7FT+3IddBqq8i8haGzRcpuRflsfFols00dhVuHX4YX+e04yMIkhM3aW4VTB0cFCM7VJ4Tq0mLVml1H28SfSgbTzOFK98l4TLuOv3RrFsemJiI822Z1POKQukzY+w2eOBdpydci/p5MCluVGokzyGJ4uIfF25EiCBYBgwFuzttshjD6gLFSLGGwJ9fRLsKJkwvnXNgzU6qkTYP5wVyiK+uHynDGBnoxv1rsmERF+Hw2jbGhvrb84JFxEGnpaIqwKl1ROMR6FRxVKDpym6pdLlTM0AU38Tr8K6EpkKgCE5UlqJjQBZNulnQUbht+RFomJdvW6WComb3ZbHXABfyUKjUk43HEYzErnciB7+ee2oWp/hZ6c2nsGh4A595jBivFEmZXiziyewyuH9hczrF/JKd0eqo+l0mhWm8onQNA5CA6tN/yk+pYO82TgxZTn/wAAOulKvoLWbKNWpZzzpGIOfiXXzqGmv++ZKCD1y/N4OFDk+EfKzbKVZyfmccTx6Y6goismwC/nFHsHO7H3aU17Bzuj/QLAvr0vUXMzK/Dcz1PYNXxV1TWSwVQmTfxWpd56foFNOQ6qr+MR5XRmTJCse3/Ye+9w+worrTxt26+k5NGaZRzREICgQCRLMBgnAg20V6ztjFg4uewTosDay8YAzZgGy/YLBhjvGBswAQRTAYlJKGc82hG0uR8Q39/dLjV1edU9R3J3uf7Pb96npnbXX3qnPecOnXqVN++1dwY9d3Dki9SglRQ1BJOBWNKNzla6pzKTDjjyHS6gEwVXcqs6kEFFvd6XAgsGpJCRyYPC/Y3aAf2N+Htwwcwd/JolKaSPvp1O/djxviRRlwUJiEEosgiIfqxePYk3/VsrgRLVrbgmFHlbHsuk/P5gVM3kM0hGQ/unGrz8TGQlnyAdyNJuNxQSPdcAou/6S2E/RxWXAroXF/In0IAc8dU+njlLQttrY04dWqtr7460Ycx1fStBBULdTx1zHC8tHSd97tQF9fBtk6s3roHY4fX4cyJw9C5t8vZ7wyYXpnw8TEFmLCFCxQ6GrleNzGZsHF81WtqMqTzcQCDew7LNHB07UzRVcdHVYxyTkpxaqag8On0DBMMVb3K4xH85eThgbYd3b1YvmEnyktSmD2xAbFoFJlsDt29/ahwvhbX2ZEquXweL6/ajI8dPyNg02gkgmxe/8UK5aAUbTIe8z286btuuZsBuucuM+dYCH+dHyncYBY2mFK4OXp1Uuvu7fe+oZXLKTPH48m3VmNYTQXSibhxUpV5u9eqy0vQ1tWDqrISdPf2Y/mmnShLJ3H6sVMRi0YxCcD1kypJHrqJ1TRBq/hUOl0GpMuIOJtS1zhcuqRCh09tH9hxVAZqyni4EmY20g1+3cAKgyPsbGii12WZJnpdqShN49S5U3CwrROvrtiA0UNrIQQwsaGelWPi+876HTh2YgPSyeBLOm1wej7UgKRoS1MJ9A1kUV7CDV6fsMK62KX1mhBLR2eTQHU55nNcAnuYSVOta+/p8yYHuUQjEZwzfxqefW8dLlo0JxQvVf6cSaPw5potKEsn0T+QxfwpY1FKBEdKB10/cxO0jt400XK66IIdh4s7N2HW2Val8b352bRsCnudmvF09RQw3cBSMct13LmKQ0dnKhwGXYClbFBXWYbFx81AMhHDn15b7j3hHaZP5Pr9h9vRN5DF+GG1pK4UdlVvNaOk5FiWhdqKUjS1dbK4CvewnLQqwNNS1o1y4AIgLPKmu+Vkb/Eovy++qcj6tXf3oqo0RfZ7RUkKs8ePwJsfbiPtyGUQ7ueOxkP4YPNujKirwsmzJ6E0nTRipvzJVDjf5nhTfc7JCRsUOb1M/qfDx9kWgP2aLxUkV0wObcrMwkTiMB2lYpYHG3VO4eDaUXJUTCotN9gpXpSMdDKBj588x864Vm5AR3evwQIFPgOZLN5ca7/2i9KbkmfSm5LjHg+vqcCB1g6676AuCd2sSqEVbkCD8mn/qVveuMedPX0ocX7HSOHzxIbIdDt7+1FekmL1n9xQj/5sDrsPtpJYqNLc2oGXl6+HgMBVHzsFjYfaQ2Xo1PUwmXqY/qauFdP/HEYONyeTwmyipfjG5KgWdkljWrNy637Tco/iowI2teN4UHQqzzApbzHYOZuottuwsxGnHDMZsWgEmWwWyzbsRB4W5k0eg3Qygd5sHutbB5C3gDycl1JY9iMTyzfvwXFjxyAWDb4C3YeT6VbKJtQM52IdUVuJ7Y2H6Cwjb2F8sgcXnzMZ9VVl3rdvect9mYZF1lnOcTZn4W/L1gO5AVKHtq5eVJWmWXua+kQu3b2FXSfIJQiABdPH49evr8VZx6aRiEURgR1r7YeABSqTEdQko+jq7cfKTTuRTiVwxrxp3gtHOnv6kM3lzH3D2DqMXsXqH3aMcyVM+8HEkbA03m4NMgGgd1rqUy5qvbzkoNpRx1QgVYMMRcPRmVJmatDqAi+Fg8Kp2kfl2zeQQTwWsfcotyzEolGcOHMCOnv6sHTDDpSXpBCprscJT+9BNm8V7gs5Ky4I4JpIFieNQQCbjDudiKF3IIOUtNOBbpKh0nYhBOoqSvHO+h2krf7rhfdw0dxRuOyM2dq+o+S7/C6fW4+7nnodt33+PFSWpnyy27p7UV2WZrGGwe+W3oGMd1NdpXf5rG3L4Gs70vjazj2F+3CW5QX/m2ZW4dKaHvT0ZzBv6liUJBM+DBMb6rFtXzMmjxpmnNh1faHi0tVx45kr1Hg2yZP5UmOaSzrC6MtN6m4JbJFsUlKlDZPGqfXqAKfacINcNYKprXqui+oyf66juOyNCmwUdpXXB5t349jJYwM0FaVpLDpmMppaO/Dsuh2wrKi0tJLu+1juD46DOsj8aitKcbi9Gw1DqrR6yZ+5vIVVuzqQsywnsxBo785h28F+rN7T6WUcQggs27wLWw504adfWMjqKuPigvrEEUNw5vxjcP1Dr+Oy049FJBLx5Kzf1Yr2vgTe2tzq4YkIYOLQUtSWxQMyVT19PsT0jUzvfyO2d8E7PHC4DaOnDUd9dQXZvqG+Bn9fuRGTRg3zHglRbcL5GacHVTj8cuESEcqvORrV36ljavLg9NYFKU5+YLcGTjjXuabso5hCRV6TfF1b6lwX6VXcXOCmOoLLGCl+8nlPf7/3MgUK69DqCiycmYLYuAu+rXmlGd93C5vINIUQGFJRhoMdXRhZV6nFK9umP5vHVQ+tQUevvTVyIVwm8NIvVhT0g/1WnTG1lYHxrcswOdvu7YjhrV1JvPXwOik2F4L0g++sLmy8J4C7L5uO8+fU+2yrw2Dbhb8V4tmgUEMhxZihNb5gFQg+AOqry3HgcDtG1FX56DicvvYhJn2K1jSphpnAqXpd31FZLzceKGxqHdeWfHCUCkrUoAubRqrtdFkWlQ6aUlxutqaWBVRbXeam0ukGWxh+vTkLZ76+D429OVj5PCwrjV+N7Ma5w4M/N7EsC9lcHpmMfy91/3ZXAplcHplsDjHnRYfULFdZlsaW/Qd9101B1rIswFIwOddyFgCrEDQA4e2JHmZik+lUuXnA2xlV2GLgSoAoyAGc3VQB1j9V+ZZlvx8wEYux/mBvdWz/qFsCJhMBwn6Itau3D7GovdVOJOL37cMDeVy6OY9DvYeQTrQjIgQeO6Ee86uTgYlFl3mqYyfQRwj6JzVx6fqD8lvTuDMV3XiSZbG+J/Fxr8coB6KChipEPtcBMpUwUVs+p3jrIjl3jeoArnPDyqL0CQ5GC3t7stjbk4N7H2p7cxtWd7egs6cvoH8iHsO+fuFWuKMTkH6Tt7+lA6+sakM2Z/9y0YKFRCxmb7NSkkZlaQrRSAR9TuAL01+2I/mXThCF3aPsGOXo6kRP7ts9TgbX57YoJzBZhY31bN3kPgDUxyB08lyals4e9Gey2NnUgrauXrR196Krb8CzbywSRTwWxZaeiCQ0wArdPX3YvKcJeSfAZXJ5H5a+WAK7unPoyAnAsX1fjp+guUlRl42GGZO6AKDK0E1gshy1cLRcfHHpTPLUtr6XUKiAuIBkMjAFjlIqTNDgMi4uw1N1MAVbrgMo3Fx6Tc1qlC28c0DKkIB0Io5xw8tRlk4iIr3A0y1b2gcgVuz0z/I2CADA8NoKnDN/mA9fJptDe4/9vsPGlg509fVj+abdyOXc/EUgFY+hNJVASTKBqrI0Kp3tZKJRd2b20Np4LHcZWsAvIFQ4gSyHm8W5Psg7N+WEJelr+Xdfh3ADWeG1XUIIZHP25oft3b1o7epFT98Auvv6MZDLOc0EuvsG0J/JortvAEOqyjBp5BDfts9uiezvBdbtJexuY6ivLsexk+skiH5/3NXRB2xqBKy8Z6CICI4Xk410QYLKKHW8KawcPYeBy2LlQmXx1JjVZcSUfoGXUKgCqUI4EwO2AAAgAElEQVQJ1Cmm40nxCYOFow+rjwmnHBzdwukdRk7hs7DEcUtNeYn3TBBlT1FgBv9U7yyRrKADxmNR1FWUoq6isG1JR3cfzjt+unfuDtruvgG09/Ri76E2dPT0IZ/LwxICfRkLmVwe9urMCRceBmd3CClk6X60TNmH6yv3SwRbpi3Dzu7g2cOzixD4YOte5PqaAQhEIwKVJSlUlqZRX1WG0lQCpcmEb4+qDbubkEzEMH6Y/3eEgb6zK50g7a5PnYtCeG/34UoyEbfbikJD94fO6kDk7ML5H0WnTuhuG7mEGbthxiTVziSHas+1kfnLtDEqyqrEOqA6wBQfDiSXAanyON4mTFS2x8midODkucc6PWW6VFTg/nlD0J0t/CB6Xk0qYAe5bVUyiutnVmNH4yGMH16HbDaH9q5uDKupREQAc+uSAVnqsVPhO00l4kgl4qitKIVlVQXatHZn8MPnWwCRlbaCLywDhfPiCPtS4c3SuiDO9QM366pFOBmenM3NnzwKZ88aEqBViyuntasX00bXB/ir9m8ojeH6WdWwLCCbz6OptRNDqivQ3NqJspIU5tXx/QbYb/x+cP4Q9Octr68nOt9mcv3EjUWKVqanfFAuWr9Q6nX25zCyfUW0VWUVg9mXYYXNVuRrnHJhg0mY42KucbjDzmhh+YTBRdXHBPDxESU+LG7hgn9tMoJvzyjBpookFkyrg2VZeGftNpw0y5AhqEFbPmaWY6QOlp0fCCfTsu+fSVwtC4DlLXd0upgyUADeg7He93RuhgM4uy8X5AsBMtPRBYG27l5Ulqa1k5oQApMr47j7RHtL4+bWDrR2ApNH1aO7txKrt+3FSWPK2IxACIFUBLigoTQgQ6al7KWOFy5boXiZJmqucLjCxAAumaD4q+0oWurclRFxDeIykM9lYbo/CpgugKmRk5Nnkk0V6rqpjuJHBeKwfMLgVzHL8tS2APD++u04bupYCCEQiUQC7blPmYf7mi5VP47estythZ064dJYXrbl7a4gChlWWDycbNtX4KRRvjDrfCvpvvfGrouIoH2prNgteavw7kMVh1pcXo2H2zGs1t5hoTSdhBDwfkIl81H9nDrmxoJMxwUMyobqdZVP2LGky5w4mdQxlxHKAVj1eUoXKmuMyFFZPlaZcLOlLqVTjaTKMBVZKRmDLDeMfN2so+IxdQpVp2JU8XGzoy7Vl6/vPdiK0UNrvZ98yDS64KDqXVmaRnt3L+kYFB5Lum7nVu4OngJujVwijE3UYspK3Z/veHJd+3n/HF+Ca2c/b0ofTyclK5D7iMtohBDo6RtASbKwb9Wxk8dg+cadPh24PqewyDKpQvkXNxZkOSp/zsZcH6hjmhonugxJDZCmjI27RsUMIUTwx8+6wU8VtYNkRTh6To6uTjdzUUU3i8l1ukGv0pucS51BVF7cIKKwy/QbdzVi6uhhPpq8lTcOfFV2VWkKbd19LC4ZXz5vYfmWPRjI5iBg39h3kyrpA95zWpaFrt5+9A1kSJ7czK0eW5aFnv4BL2OzF6CFDM6lEe65AN5et93bulmX1difhRvfVOYhY1Lbu89ZAfb9v7KSJFo6urWTHHeNynDUoqMzYafam+xvsoNu3OomThNOHVa1LqI2BPjlkHyNAqMruggdpphodR3CzWTUrBeWZxh6l0bXSRQ/uX7T7gOYMLLetwy0LAvxaNT7+l/HS8ZYnk6hs9f/rJfc3sXa3deP/3lrFcrTKcSjEbjLPpeV5b4wQgh4z4UJgWQ8ir++txZ7Drb5MIW1Yy6fx1/e/RCNLZ3OOykKS1HAyeiE1N6yl4jzJ4/G88s3YNPe5oDOqsxsLoeY9I2hKduXsanfgs6fMhYrN+8K0OomUV2dbvIyFc4Xw2ZZxchUx1YxuEz8TG3J1wrrgkMxQcbUzjTzcsW0DAwrP4xsnROGwXAkQTmby2HvwVacOW9agC4WjSKTy/lmfVNJJ+Po7c/46lRbbtrbjFXb9+H8BTOQsyK48qQ+9Gfzvl0WLMtCfzaHptZODK+p9OpHVqdwwclj8PIHm9HY0o7jJo8ONdFYlv0w5/PLNuCsY6egtnYA8yZ0wLLs+02ZXB7bD7Rg/PBar07+nDK8AuNmD8V7G3bixRUbccYxkwKv2nJ1zeRyiEu7J5j8svAZpI1EIhheW+nt4R6Wl6o/1Q+qfYqdsOVsn+MzmLGsZs2mMVOsDGpJKWP1fprDKaCuZ03RVWfgwdbrMHC4jqQzjmbRYaPsvq83i4d3dkIAaOvsRlxU4MSchZKony4aiSCXy0Mk9A4vFypguSWTzeG1NVuRTsTwmUVzvfqvnzeBpX/lg80457ipPt0A4Ox5U7Fq2z48t3Q9zpo3BYkYOS96bdbtOoBtjYdw0SnHIBGPYUgVcPLkQgA41N6FzfsiWDh9XKCtrPOJ08dh/+F2/PmdNTh11kQMrS730Qkh0N7d5+0CwfGhMLppnkrbV1WH7y7fiSmj7G8r65JRfH5sOfnUv44/5xNhfFs38euW5SYsar3Mt5isSCeHC6JUQLQs5sFRaiCFmQHkm2OmdJNKhdV7Nyofua2pQ9Qor9JRTkLxVvFwNjLdQ6KwyjZzy+7uLL7zYYtdJwRKowLXz8qjRNlTqcrZN1zd0E7FNZAH3mjsRiZvL6nebwMyO7vsTAkWhpXEMDGZw9/XbMXC6WMxsrZSaytXRiwawUA2F+gn93jOhJEYVlOOv7y7FqfNnoghlWUB2nzewqurt6A8ncTHT5gZsJ9L39jSgeE1FaHsPqK2Ep9cOAtLVm5GfWUZJo4diR2dGW8Pq637O1GeTmFdaz8EgGHpGKqTkQAvv0/762SapS39+F1rDGg9DEBgemUcV44p916kwfmQafnoFmoM6oKCbgxx17hxoMqnMh6VXq3TJRyUPI6HK5P8LWGYtJFOm83K6ZSg2oRJmSnZJjoKKzdLUTx1M4GJh45vXn7ACPayZ9eBw0jXV6Jc2oN8SFU5tu9vxkjndVLczNfWn8MnX9qPnqzrEDFg537v+vyyLG6dCHz8hBlIJej94Fm7CKJOOh5WXYGPnzATLyzfgIkj6jDd+eJACHv30JdWbsKxExswznninJrEAOBAaydOHjFEj0UqiVgM5x0/HWt27Mf3X1qLexrT0lULAj0QohUCwM9OGILrZ1WTvNy+be3sRnV5iecn7V29aGxpR09fP7Y357y+sk1i9iHd0ozLbtSJlyvcGOJkhsWh8qLk6jCFOTaNQYDYrUF1Gs5YKnBdxkPN2CooU+QOMyvosgJVT6qYcFJ6UnbQ6UcVv0wXDAABRIVAKhnHtn3N6Ojpcx6StNus3roHQgiMqq9BVVmJj18Bo09BQP6az7ID37nHNWgzAK5vaspK0NrVi5ry4HsC3TaJWBTnnzAT767fiVdXbcHpx0zEzuZWrNyyB+fMn0a+uUaV1zuQQSoRC9iZm7Xd49njRmBBpgRobHaN5pnWcv5Zgvax/kwWe5pb0NTSjr3NrUgmYmjp6IYFoLqsBMNqK1EytAYN6AEaD8N5opXMrFRc1LhQ5cs85EL1j+lcNyZ0tg8zzsLw0l1XYwxVL9f5XqRqGuC6LIOjofjrMqBiZ58wvE1ZECeHw0TRU87H0avY5OsV8QhOG5JCDvbzSCVRgVG1lagaXhNoY1kWxgytw57mFqzdvg/uQ+fCCUYlqQQSZeXw76MFL1hBwPftYzF2B4BRQ6qw52CrL2CRSwkAC6ePxa7mVvz4j69g5thhuODkY1i+sh2zuTxikYh2ItP1RSQaLRjFgi8bAoC2jm4s39jmPY7hlngsitFDa3HC9AlYm96HscNqUeFszyzLG1WawalD0s721cCE0hiECNf/uiwnTCal2kEnS1fvFm51I7e3l8hh7vmZ5bm03BimgllMbUQpx0XoMJFRrqf4qcZQ6VQ88mBVeYSRS/GjaKhgzGUgFH8ddt0Am1WZwKunj2QnEH8be5+ryrKRPhq3XU9fPzY2tfsf8HRZOj8OzBP21GVZMv7ailJsI/Z3p2zbO5DBmh37cc78qdiy7yB2H2zFaOWbNao/e/oHUOLsva7albOzXG9JmVVgixhh/1h61vgGpJJx0uaA/aKPZCJO2uWChjJc0FCmxUVh42xKZSU6X+BoVBmmzEkdx1QxBSJT/OB4meTJtDG1kiOmGuuU4/hQyql0lBLFpJeDka/WheWj1nEdEEZ/eQbjePtpg+3l85JUEmOH1SIi2gHvB4EoLA2Ff3tlHS8Ku/tTH24ycY8bWzrw9vodOHPOJFSXlWDOhJF4ddUWNB7uwPFTxviSHpXXvkNt3hcBlA04ue5nHijo7SlQOK+tKEXSWW5yA74/k0EiTm/4p9JyesjHYQa8zDds1mWaECneFFZTcNXFAMqHOf3UyVrlSwVX/289BlE4Q3Cgde11hqMKN5DCpKJqO5MzqEWXoXGOwOHW4VL56IIjNbls39eMfD7vLIvgC1YAyM1/KYzsICNwye1Xbd+HD7buxSdPnIXqMvvGdUQIfGTuZFSWpvHX99aiP5PztZNtuLu5FaPrqwPXKXuo8i3LUgKy5ehvuUTYtrcJbV09Pp8lA6DBTpT+XBahs5dLr9LqBrZ7TAVwWb5qWyroqzJVOkp/3arLPdYFc7WNahO5bVHvJVSLDES3rFLbqKB1SlGKUPw4WlUe1U5Hrxrf/eQ6W8eHolF5mvSjaKkO33+oDUuWrUMsGnF+gygK0Uk4g9byZ1iq/XU2cq9VlqTQ0eP/uY8Q9gss/rZsA/J5C+cePz3wIKcQAlNH1WPRrPH4n7dW4XBnD2mT/mwOyXiMHAQqRsoXfAHL098jwrjhddiytxmvrtzg/bxH5mU5AZ7yA8pe1J9qGxN+btCb6FQ5qr3dTy5D0mHXjfMwiQIX1CgMuuDmewmFLrWVBXHnVOTWBbKwQYTDoytUAJDxcbMGN2NywYLjoQvW1CwXNjt0r/flLWREBO39WcRjUcQjQCIi0N7Vi/fWb8PIIdVYfNwMDOSB782LI5u3v8HafeAQxg2vgwCwZc8BnDW9UquD7Btu2dGRwU3vNiNnAW3dAvEdTUjEY96N5zOHRDG2ez/OmDsZ9ZVlgQAvn9eUl+Kzp87Fc0vXA6WVeOJQ3HtmKiKAPQej+Gv/AUSEwOKGElw0vpz1Owr/jOoErhqfQN6yn13b3dyKEXXVyMN+ZGTOkBIcP6wWmWwOS9dvRyaXw/ypY1GaSqJlII+8ZaEjB7QO5FAaiyAR4ScgVy53Xe1nKgMqZvxx8riJVcXBZTaUPMp3Od05Ok4X05jy6ZbP5y3OkDohVIZBGVM3GKkAKMvlAiQX7XWOq8uIdMGNK2GCThicFD4dfvfzvDcb8VpTj/eqq6+MKcHHYh1IxGOYN8V+sSrF8+0Pt+CkWZMAAO+u3YYpo4ehpqLUKF8uqw/349gnd9k37IWUuTk3hy4YDjx6zjgvM+L4qHb744f7ccl73QVWSrnlmGrcsaDOOMBkWXnLwqsrNuDUOVMQj0XxztqtWDBtPKLR4FbUANDbP4Cl63cgHxH4/O44dvcUlqu/W1CPz40NvtKL86cwQc2UBFD1Oltycjh+ponS5J+qLB2vsHQ6Gm9JqKaAVOTVzWq6jEIXxWWAqlxd8AybnVHZnCyH0pnreE6e3KGUHB1OCp/uuvvZl7PQmwe6cxY6sxYOdfXi2CljsGD6eO9Nw6agO3/qGKzYtFPrjFR9RK0S7p8AhIXhtVVISd+qcXxU248ZWuPcY5J5Fv6EQSfq2pY9TRg7rNZbklaWptHR00vSW5aFdDKBU+dOwZyJo72Xeth6icKO8kSAovxJh5OjC9MP1MSrs6+On8lHiqEzjfOwdBSNq2tEPqEGpnpNXh6oKSB1TcdTBsjJ47Iijp6SYdLLxFsnT5c9yscmO6j2M9XbjyM4N5EtYERNJUpTwYcw1ZLLFbalicdiGDO0Flv38bscUMX3TY0jv/A0ph+z6hOUPu6xd79JhWHZeqo7i3J9704gmWwOu5sPY8LIeu9aZWkaHc4WO7olTEkqiZjyG0g3UJsyAw5jmHpKH04GNTa4saUbj9T44+RyNDr+uhJ2bLoYfdvLhI3I1KzPzTCmmTXsNW62LmamCput6XiH0Y9qY5oBdVktVW/P/cKZ/YmshyjZXM63TAOASaOGYnfTYWSyOePsWMAEKaNyUx+4lcgruNUMlMpEAXi7m1LPS0HYS98wfe/WLdu4A/Mmj/VdLy9No727J9CO9hdXWWl219pF7y+uHah6io+Ngb+XStEXkykXQ1dMthym6JaiOtv4phAqq6Eyh7CgwoBWO4frLJNMasYpps3RoJPpVflh7gEUI+P+Y4egPZNH3nl7zaiSQldy+vcP2A9AyvKEEJg9YRRWbt6FBdPHs31uAejq6cOGXY3Y1DYA+zctbsrhUUL95tEtYfom72ZrzMMWe5pa8PcPDmNEbRXGDq9DPBZlJ6bu3n7kcnnUVPj3VI9FIxiQHqOQbSHrnogAr58xApm85X2ZMDId3LJGbq8eU8Xk32pdGB+meHNYOJqjMRYoXhx9MTJlPjG1wj3mAFJATIEmzPKOM5zcXm4bBis3+KhzE05TJ3BBiqqjzrkBrdrFvT6jMmG0s8qvL5MJPCRpWRbqKsuwafcBtHf3oqIk5V3P5nI42NqJ7Y0Hkc3mUFaSwqzxI1HdJ4B1O+0URLaDc+zumcVho1J9tx3cV+LIx04ZO6wGp86pRePhNizbuBOZbBZl6RTGDq9DTXmpk4jZtnz7w604c/60gN3cbaZNk5oQAmNLYgH/U/tE7auwNHIW4dpDzcJUXqY69RoXBOW2nDyZnpJnSm5MPHVLT9XfZRkxmUlYQ8j06rF6Hibb0UXhMLK4oMrx4TCZznW4dfI5Xahi0o8K5tQ11WkBIJPJISIiZLvjpo3DW2s24+RZk7C7qQUHWtoB2D+OPm7qOCTihQwuOjCAlLCAeAQR2DEll7cQj0QgBHDocCt2N8UwRnrvn8k+vf0ZLNuwA8loAhYs5CzYWzPDjot5WN6ScERdNUbU2Q+Tdvb0YWfjIazbsQ9RZ0O9XD6P0UNrvC8fZJnRSAS5fJ70d5PfhKnnApLODqbxUmxWpPML+ZzyEYqewqoLOrr2KkZTCci1pFbUrGCKeFSdCbxp9qUGXth6+Rp3rtZxHR82eIfNuEw8OTkUn2L49ecsbO/OoLmlA/l8Hg1DqjCuNI5YxLZfT98Atuxtwuqte5BOJrBw5gQMq630DXi5dPdn8Jflm3HqnMne+whXbdmNqaOHoSSVQDICbNy6C+UlKUwfO8LYFwda2rF66x4smDkJHfkILAt4d902LJgxAZaTae1ubkXSyuLEScHfTbo2yuby2NvcgmfeWYVZ40ehsiyNCSPrUeG8pLapL4vG3izWbNuLWRNGoSwmMKk84cPCZUbU9aN9jaPVjb3ByC1mTBeb3R2JbEovt3gBKy9tDE7NBjrjqW10gqlZRC6cbBUHZzCTDC6gUHpydRxWSg7XhuPH4ZLrdDx01zd0ZDB3yR5YFrxHA1afVoeD+5uQyeZQmk5gUsNQVJam8dKydTjr+Jm+RwhUWX97dw3OnD8dSSnr6uzpw9Z9zZg7abRXt2VvE/YfasOpc6awTrhxdyNaOrqxYNp4RJxvDrp6+7Fp9wHMmzLGp8vrqzZh1vgG1FaWkf4HACs27ULDkGrU11Sgs7sX2/YdREdPLyJC4KmeNO7bl7HphcAZ9Wm8dOqI0L5VbDALMwY4u3D+qcqizjnenPzBju0wdqGwmPTT4Y/JjSlDq5+yENO5y4fqNFOQUHly0Z7DrbYzzUjqpymomAImhTPMzMLVUc6gGxRyXc6yMJB3mQIQFvYfasNJ08Z5zye59MdOHoMVG3fiuGnjArYCgHfWbsX8qeN8m/1ZloWK0nTgPX2TRw1DbWUZnnt3Dc6cNw3pZMLXH8s27EAqGceJMyb4dNl54BDGDq8N6HfqnCl49p3VOPv4mb4lqiuzu68fPf39GOrsTlpZVoJjp4yBZVnIWxae/6AJWSsDQAB5IMsEHq7ofFDmY5qU5HNqjOjoqUL5HjXxqfJUWWGCsk5f05hQ23D6cWMHcN5LqA4UDiSXVag07p+unVonBxW5vXxMGYTjxwU2lUblwc0InK5UHWUDHW6dLah2utmakpmXT5zfEc4cNxIJ5REHwL5n1TeQQWdP4e06rrzt+w+iojTtBQQOp1xqK8pwxrHT8PaHW9Dc2gHA3g/+paXrMGpoDWZPGBVo39rRjZryUrK/PjJ/Ol5ftQn5fNDHlm7YgflTxgUwCCEQjUR8O7YClu/9h2H6xOXF+SdFK59zReal1ofBRtHqcKrHOj3CXlcxUD5K8aPOdXpHVMFUAy4AmRRSaeVP9ToVIDhjmPhRdCpPk37cua6jiw1gJgdQ67iApPKi5CUjAokIELfTakQ0Npg3pfAEvFvaOnuw68BhzBw3krXPkKpyHGzrDPBNJ+M4fe40rN+5Hys27cIrKzbglDmTMby2KiA7l8uTmab7l0rEMXX0cKzYvNOn94GWdlSVlSCdjJPtLMtCXNg2SEYEUtEI4hF9RhDGL3Q2V2nk8zC81BLGXzh+uhIWs4rfxJ+ziU6+LikB4P8tYZg1r1q4ttQ1CiiXyZjayfjUAa1bL6t66bBwcij9OKNTtuT043CGwUPZzr2esYDG3mzhTc4ARpfEENXotXrrHtRWlGLkkGpkc3ksWbYOi4+bgXgs+BtF97x/IIOVm3fjhBnjffZxj7fsbcK7a7dh7LBaLJozhcR7oKUd7V29mDpmuNZeH2zZjfKSFCaOrIdlWXjh/bU4+/gZgWAnt23P5NA2kHeecRVIRQSGJOkdVymZXF0Yel07rnATFTdOwvgghScs7jBtw9osTB117nvNFxVsiim62cTUjls3c4OYcgKdPJk/F+A4HqaAp+LnApvaXjezcLy5ftHNinFhByi1vay7Wv8fzXEsWd2KZLwDVt7CF8cNx0edHwxT2C3LQiIew0AmS2JYsWkXhACuOPtEb+ub0+ZORSzqfy5qT3MLZowbadRpzsRRuOv9bYh2xdHV04sBUYmyw/04ZUiatW1lPIqKmP+xDqqfuXqZl26scNcGO764/g5z20LHj5oAubFnGhdh7MWNN64/KEwxtQNUxbmorAJTwaltKeFqO25gcp2rw0rhU9voHIgyIhf9dbaRaTiZKg2lE8VLxkE5H8dTrafwt2fzaM0CyOUAC+h3fpjC9bF7HI0K5PJ575GIbC6HV5ZvwPRxI7yXjY6oq0J5SQqvLF+PhbMmenulW5b9iEVJMkE6sqr3e/ky/Gl1C9wdRJuiXTi5LsXqpvuUacNMEmHHDWVvigfnu9TkyNVTPibz5vBQ9JQ9VFqVDzfxUzSmAMtd9/bD0kV8znE44apyuplSFwDlel3HhYnMpsBpcgTTDMrJUuuojuAGvyrDxE/Gops1KcxqyVuAu+87hEX+jk8d3O0DOeyIlWPPlkMYVlOBfD6Pnu3bcNqcyShLJ33tK0rTOHP+dLy6YgNi9UPRGksjk8tha08M4lAfFtWlAljVvsh5JrFxyrekuECvDiRucpXbUX3P2ZAbqCqNbnLlJkiKB+WbXBChcKq+wmGn6nTByoSL4s2Nf5kmxnUQNRhUYKZimt110do9N2VlHD6dcam6Yq6bcA4Gr8qLa88FPlP/qO1MAdZ+Ok8AlgUI4fvhLzVYhBBY35HBlR92A0IA6AIAtH9yOsoTMVJOPBbF4uNn4Mal+/GLne1wf0B9bq4Npy4q3MPi7Ov79hNAlAiqatEFJpO/hqnXjQ+qD4r1b11SQbXTrQR044+yty6w6BIa0yRJTUocb/Id4sUEJUrBsIXLNooJJIORE6Z9sfoUQxtmtuHOB6u7yZHV8oOZNbiuP4e8ZX/9P7Wi8O0bhyev/PYPAOLR4E1tuU1ECFSWpgFReIwiT/z4mcI4oTSG+dVJ5J1HFOQfgOvKkdgTCJ+l6uQOlo6yYRi+xbbT0evGZLHXim0f2K1hMB1oAnM0+BwJtqOFY7AYigk6YYJrWBwcXZgl7MK6lNrMWPIW7IzM2W0v7BtOnGdr4O76QO32QJXbj6ktfPMZjJX/sBJmAFL0Ya4NNhjKbSn+/4zxw91W0ZViMcWKUSTsADDxkItu4OjW2dx52GJKPdXljvvJORR338HFbrKRyVGp1J6yg4pT5aFipDBT9RQelUYIoCTmfOsHICYQ2NpK1QUASmIC1YmovZe7ACrj9PbFahGwMzT3hLs/xekS1neOdII4knaDvabShZGtuz9HXdNNxBwvaoxx8qhgyz6HZQoknDDdGptzJJ0SOjrKOJzB1OMw8jn+3HVKBiVT5aVrK8vQBTKdU5psSunG2YzDLddZcLaYgRO0QvYph0vnXyY/1E1sOl11NtXJMg1OnRyT75gwyTLlogs2uv4PE0B0E6fOVlwx+aFvt4YjLaYsgaM31emuh80IdG2LnRUHO5MOtvwzcB6NvihWZjF8wso6GlnO0e7fo9l/xeocxo5HUooZ82FoTbYiX1UfNltS6zhe3KyqyjBlcSq/MDOJzEtnGB0m9ZzLDDgddBgpPSh8utmOk01hKMZZTMGKOw87iYQNSrrC+ZkuA+JwUTqY6NzC+T+FjeKvG8zFDnSZjpvcOXqK1pQgcHan6HXXTXRCiKObYcmFCjj/qBmMkx3mehhagL85WozcI8FzNG32z84QXZnAP/cm8P+LpVi7/L9sx8FgJ/d0lws1O7j1ajtT9OdmOi4KU9kLF+F1wYMLmhyPwTiNDh+FQdWRk0/Z3jT4w8zyXFZtsoUu6+aw63yFsx2H25R1U3h056pOuj7iSpjsXacLVXT+oPLVZZAmm3J9Mxg/DjN2ddkjR+/LGOUN/CjCYoupU8J2mi44Dabo9BlMcCwGRxj+unZhBudgbF4MBq6umH4ZrDxOrtOggeoAACAASURBVM5vigkOHI2pjc4ndIPY1K+mgGHCF2aC4fTgrodNZo6WT3GTduBRmWIUpIravthzHV9uFg3bvphrOpyDDZrFljCDJUw77pyaZcNgUG1RTB/KhZJrGoCma6puFF8hwr300zezG7DqMiXuOteewq5rL+viDvYwvsNlnZTOVB0ln7KzDreMmcocVT0Cb37Wpc4yc50xOEfgDMDJKMahVJ5hccl6m9pRhubacDiLzUhUubrZWseDOnfxc3YcDC/1mKJziyuX8wHTIKDkq/x0A0YXsMPUmfzZFBR1/Ci+lEz1PMwkROHlglaY4gYWDguFVW0vf6r0vn61iJGjGwxhAolMp6OnBl8x1yglKdkm/roAE0YvEw9Oftg6iobSl+JD2aIY/IO1IVfC2Juj4XQyYRmsD4elNdmyGJ6Dwc8FqcHatRi8R0Jr4kHhj8hpl5ri6ZYSunSWEmRKn+UOl+Vwg1XlQeFVeav4KH241JTCw2GnBjkXvMLoquKmZkWVDzVT6rI6GTtHT/WRLJ/ir+PByVf1UeXoeOmwmPTlMJt4cX3Btdf5Hkev8tL1AdeHJttw2Lk+U4suXsh1lM6UPEou+ap6maGqpEyrCtYFIgq4SsPJ4IIRxY8zhGoMalbS6aLrODWYqPQcXl1WQ7XjsLrXKMeQSzFZgErPFVV3ro/DBEL5OjfDuvQcJs4GakCUZZuCBhcMOL0oel3fc5NLMYFSruP0o/qJoqfk6/pPtauOVpWhk6XyFcJZEqoDJUxqTQUcuT5MYOAUoM51wUaHJUxbnb4qT8oOplRcx09Ha7IDVcIGo7B0YXmECTJqO53tKYycn1L83UL1EzcxhAnoHCaVhtM5bLuwPlusHYrVpxifLUZP3djV+ZUvw1JBcjMEZwAOiK6YjK06NhdEdJhUPLq2nL7cjEvNphwvnQyZBzcrcbMQhZfCLcuh+Kj9TWFS9dT1nQmvzu90dbJsNSOQ6yinN/lD2D7h7Mr1dVj+MnZZH93EQNnBpBdnF5N+XKH8Sg2sJvvrfNP9jKjM5cIFAE45KhUNGwhUZdTUVe04nZG4AW/SgXJ2qh1lK7WYAonMmwvCVOfpAgNlC5N+FG/K1hx/biKh9ObsRmU7FA1VONuZeLj6cZmWzJfzYSr4Uvrrgq7cjgoeOttw/aTK4jJ1ro7CSI099Vi1r04HU6zh6COUYFkI5eDcsa6T1I7RBQbKwNxsTilOORwVaHQBUi5csKAGAIWFakM5FGUntU7Vy0Sj4tENGtVeFB4uMOiCXRhs8nXO2VU+Jt+U8XC+RGFUZVPBSx3IFG75mLMJhVnFp6NV9VR1pPRScVF24GRw/WsKgpS9ODxcIBdCeqyBm/2oQa5Timsjg5KdKIyD6XirBiq2mPQ7Unlh+Rf7WaxcU/1g2obFcjRky9cBs+2LxRam7ZHYNIysMONCPgfMAeZIfCUMzWB9oFh/dou3JAw7KMMwl2emYpycS2Op1FuVR0Vt0zKDkq/K1c3GulSdw6s7L5a+mKL2p842uhlQ5RdWto5ezWIoehN+dXY34eGwUf7KZdhh+HPnqkyXv+xzlGwqU+SwmK6b9FBpjtQnuKzR1EaWT+44ykV9VRgVJdU0lAtanDwdDYePwyVfDxM0Kb2ozuJSYJWHykuVpWLjAgVHH0Z3dRDodNVltpTdOHpOV12fqPxV3ioPk14UljBZv8m2FF7qOoWdwqGbHLiJz+Q3YWxFjVEdBsoOnD0pLDoeYfzaO7ekq1wmIRddgOMCF2XwMDzClrBBV9WRM5YpA6Rw6mxnCiLc5KAblCabc7Ip/LpgFUbOYPWjbMUVk55h2oW9HsZfB1uKGQuDlR1Gp8HwMo2No90nFN0/bD+sf2YJ2+n/SEf8R/I8Ev5HgkeXbXG8j5b+/2g7hpFh0j8sn7A4wvIZTBD+R2D5R/WRjm9EJaTSXuqYExSGjqPXyS5GPlDcGnkw8orB4p6H4U/ZgsquiuFFnYdpTy1nZF3COPTRvBYGfzG2kW1J8eb0V3lyy9AwesglTPBU6WTsXIBVdaN0VdvKkz3XnvMNnY46vdxz3crFF7DUDlIbc50nX6cEUU5EtdMBla+rvCkjq+3UjIvCrLsWtgPYVFbov0LmHEYnh8LF9Z2MTW3P2SbMwOIGM8WTwxZmgJuCO5dB6yYAUyDmrqvBjsIEBL98CkOnyqHkmQKwqvuRYpULd3uBCpaUPpx83bkPpyWdqZ0Vdvmka1dsCdP+SGWYeB1N/keKh5s1B8vrf0uv/82iBrT/L9nBpMs/W2dOzmDlq+0CGZZMFDYTkc/VmVs3A1NFFxSLLcWmpYPJNnR8im0HmB970MlU6zleOj7FlrC8TLOpWqcem/CFyQrC+nCYbIzDoPo9VRe2hKHX9al7fTC+aPI1jo4bvyac6jWOLsYJpBrrlodqFKeWHNx1Ls2UP3WzBDXgTcpTuhR7T6bY7CVsBqtOGNxyR7WLal8Kr+pouns0uj6m2ptuGehme66/VRoZi1qvC/w6Hqp/65aEVB/pJpliVh5hBz+nh4mfjlcYXw6L3xQbdPJ1x8BR+pbQ1BlhOqsYOUcaHGQawOwYg1mick4Q1jmKka9rC4Rz/DDOZJJlCkYc7dHwjyPhGbavjgaGI+3/MMHe1GawfQXwz84dTd21eI9GwBpsCaPUYHgMFsfRCqz/G6XYgXC05RUrN0wwPdJC2aQ/k0V3Xz96+gbQP5BBMhFHaSqBklQSyXhs0EFusLTF2nGw/Vysj/+zx0JYecaANdgMI0wZTLv/2d6Jfd3ZQP2VkytQnYwWjQEAVhzsw1sHegP1ZzWUYFp1clA85bJ2fzseX7GHvPbpOSNx7KjqI5bR2tmDXzz5MgYyQduYSkQI1FSUYmhNJUbX12DG+JGoKisJ3b6jpxf3PLEE/YOQLYRARWkaw2sq0VBfjRnjRqKusuyoDZZcPo812/bihfc+xCsr1mPb/oPo7u1Hd18/+gYySCXiKE0lUZZOYvyIepw5bxrOWTATx0wchUgk8I4WX1m2YQf+8tYHgfqIELj6k6djRF2Vrz7sWHr+/Q/xzodbA9fSyQSuv/AjKC9JwbIs3P/nV9F4uD1AJwBcsvgETB87QiuLK3nLwm+fexM7Gg+R189ZMAsnz540KN66EiaBickzHbeGpmKaSh+GhuKna0dh+sXaNrzR2AMIAViwewfAR0eXojoZDX0/Rcby6v4efP39Q4DlMBQWYAk8fPqwQMAKy1MuP3xhPZ5YucfmbVk2Zofkg72teO4rp7D3R8LKaO/qwe2//xu6+/o93j4bWbD/CReDkPSFdywiAnWVZTj7+Jm45bNn45iJo1j5Lsaunn7c/tjz6Orpl3jBLwtSfYGZH4sQqCorwSmzJ+H6ixbjzHnTtLam7CTje23lRtz627/gvXXbkJGDqac70NM3gJ7efhxsE9ix/xBeWbEe//7Q0zhxxgTc+oVP4LS5U1n5E0bW4w8vv4/t+w8WLjgm3bi7EY/fejUikYjR32Wee5pbcPkPfoPWzu7A9Zs/cxZK00mPR3lJGtfd9XvFxrb8t9duxfM/vRnJeEw7JtSsy7XbNT97tDD5SX4yoq4K111wplYfykfD1HE+L/dzRK7kCHU3FXVFBRdmsMvtWHqhfBpkU3IsS/3WxgkkkAaxREcZmpoNVLmbmjvx7NpGSYZwmQACeHFDE9bub/fxUPGrtuGu2QTC4+0FLo9cClKWc64UK2/hYGsHHn3xXSz48o9w3V2/R1dvfwCfelyodPkKSS4kpxcFuT4MNn1bZzeeeXsVzr75TnzsG/dgd3OLzwd1k6hbGg+349Lv/xqLb/4p3ly1CZlMroDJxSUUjFJgz2RyeGPVZiy+6U5c9oMHcKClw8ffxVBTUYrffOPziLqZmDspWMCTr6/AYy+/7wsGpnGUy+dx9U//G60dXba9vD9gzsRR+P5Vn/L12KWLF+CTpxyr2NMur63ciEdefKeoMWdZFrp6+3HjPY9hYEAJ8ACiEYH7b7kCQ6srvDYyL25s6ZbDarCi4o1cIpwRuYjoMubAyueqEhw9V1Q+hTaOoxVx+03NDAgKaCMgUcI446/e3I6e/pwdSDzcBQfL5S3c/doWj5/Kg+Kv1vlkC+nADcDSWPWp6v65M7RwaW3CgUwW9//5VZx+/e042NZJ2i0o2yocu/yAQhCFJENm59HboPKWhb+9uxonfvk2rN66x5MlOzg1Cb6+ahOO/+IP8PgrS5HPS3qFtkPhPJfP4w8vv4/jv/gDvLVmiw+DK/f0uVNx82fOcvgVdM/n8vjafU9gd1OLz046f/nNM2/ghfc/LARTYf+lknH89ltXoSyd9LWLRiK4+/pLMLS2wo/dKd954ClvySjLVcelzPPHjz6Htdv3BoeCAK762CKcv/CYQHBR+0XWSS26oE3FELU+Il+kjCofU0GHciK5qIqZ6jk+/uI6oDMlarIfVQfK2A4gJQBaAT7ckpmSBQDNnf14dNmuAl7Lcgal5fGHZeFPH+zBntZe1h6qvWSZBKGjh4RVDe5U5iPXe5mC/bdi405c8cPfoLd/QN8v3lLUbSs81f1YpBNB4SlkFo2H23Dhd+7DvoOtnt6ck7++ahM+8c2fY29zi9KfzuB37WBJsgL4pMzGubC3uRUf+/rdePvDQtCS++G7nz8fx04e4+crBA4cbsfN9z6OTDbnMxM1iW/e04Tv/OYpWHm3feHa96/6JOZMGh0YZ0IIjB5ag59cfREi0Qjc7M79a2ppx7cfeBJUUQOMEAIrN+/CXX98CQV/KNhqyuhhuO1LF7D39dQAGDYhcT+plQxFr7+rqBHAgS2Wl1oXjpfU1l0ChcApXw/wF4UZTV0uccGPRefwf/j9nTjcNVDIJrzBKU2FQqCjL4MH391B6uB2YhgHgMIasNsl4lEk4jEkYs5nPGofO+fxeLRgA6ed3yYWXlq2Dnc/scSHL4ipkCFBCESjArWV5aitKkNtpfNXJZ+Xo7aiDCXphIJfFD4BbN3XjFvu+yNyuTyr9p7mFlz5o/9Ce3ePhFvCBQtDayrw2Y8swF3XfxaPfu9LePaOG/Hov38JP/vqJbj4jONQX10hZViSLYT9xcKl338Ae53AKZfykjTuv+UKlJWk/HKFhaffWInHlrynvdczkM3hxnsew+H2Tqn/BGBZOGPeNNxw4UdYvYUQuGzxCfj4SXMcu7v4bdyPvPgOXl+1KbCUV/tuIJPFtT97FH0DGfj730IyHsN9N12OusqyAHaZJ1WvJilunTrOuSCn1sVUoaEHBtGOAnc0eJHFS+HD4VV1o/k72QabvNCdQpW+bB6/fHObwkvh7fEReOjdHbjx9EmoSsdD4NQVaXYUAjPGj8QLP70Z0ah+burpG8DKTbvwwDN/x5Jl60medz7+Aq4450Q0DKlhRPuxThhZj7fv/5ZRdiabx+6mw/jDy+/jV395DT29/QFeT/59OW66+CwsmD7eV28HdOBLtz+MPc0tUAwMAKitKMd3P38+rjxnIarKStgMtqWjGw8+9yZu++9n0dHdG+C1p7kF19z5CJ667VrEov5vpI+fNg7/dvl5+PZvnoIbbCAE8nkLX7v/CZxx7DSMGlrjk+f6+YPPvoEXln4YxF1Zjl/ecgWSibhdy/hCPBbF3ddfgrc/3IqDbZ0FHpaFXN7CDfc8hvd+/R2kkwmWz71PvYL31293mvr1vu6CM3HGvGna+FBMRqWr41ZobolwgUWNyLo/io5aSqltqHMVA3nNkmYAKXVXaeVPNe0kU1B16cToFMYmT36wFztbuqVlh912XG0pThhb4196WBb2tvU63yTqeVPXFcCObWyFYtEohtZUYGi1/29YTaXvfNzwOlx4+nz87Y6b8YsbL3NuJMtrRAuHO7rx+MtLA32jGNBrF41EUFVeguryUlSV2Z/usXteVVaC+upyzJsyBj+99mK8fNf/QVV5qSTbLtlcHo8qN5Hd48eWvIcXl65VcNhl4ayJWPab7+L6Cz/ie1SDsl9NRSm+dsk5WPrAdzFrQoPfng7f595ZjT+9tjzQF0II3PzZs7HomMmS/e3Pg22duOZnjyBP+PKWPU349gNPOWKEJy8iBG6/5iJMahhK+rNqhzHD6nDHNRf7u8PBsGbbXtz1xBLSdgCwec8B/OC3f0VwfQzMntCA71/1SZudCN6/NsUBboxz/mvi53trDmcMnw2YSEoJpj5N9DoMXp277HDPfbGMD1baIi/VTKSWPo21LOCu1zYrfOyTaxdNwE1nTPbPYk62eN8b29CXLSx7wmZXdNDS60HZw7IsRCMC13zqDHzx/EVqvAIAPPP2KuTyeZqPvJRmfEi2HeUbJ86ciFu/8Ak/H+f6Kys2IpPL+ej7BjK49bdPw6+s7RvHTxuH5++4CWOH12ltKfMTQmDyqKF45e6vYcroYX4MFpDP5/Gjh59BT/+AR+/ySMZj+M03Po/K0rSHwYX17Dur8du/veWTlcnm8OWfPoy2rp5ArLjw9Pn43DknBe4NqbhlG155zkKcf9Ic5yJ8/fefv/8bNu0+EBhbA9ksbrjnMXspLc83loVUIo6H/u0LKHEyM90Y5epkG1H2lttxY1QeZ+SPn91j10jcjXHdJwc6bDvtjXjL++e7Z0Bh5YJVAKd378AqLDc1eriFCuivbm7GB3vaArwr03F8bsFYnDtjOCYOKZNWHPbBh/vb8dKGA1qZxsDr04NeWpr6KhIR+Ppl56KiNC3DAwCs3bEPXT19JF//t4TF31pw++rys09ErXu/RLqftG1fE3r7MwAKdnjm7VXYvu+gwslCKpnAQ//2BZSXpHw+oPM3+dqQqnLcf8sViMdjBQzO3/qd+/HK8vWB9gAwedQw3H7NRQUbSDb55i//hB2NhzxZv3r6Nby2ciM8n3PkjB5ag7uvvwTRaCSA22S/X9x4GYZUlUt+AEBY6Ojuxdd/+SdknfuArk0effFdvLh0HbzbFc59KwiB73zO/jLBdH9JHnfU/V412JruCbv11EQXkQXJAUotslCZllKAAkYtqTinoQzhJ3T+efXBpRplAM44ZCHaq1ipgG5Z9mMKlsvDbWYBlx83GnVlSZQlY/jCCWNReB6o8HnP37fA/jY+GNDDTQ4C3iMUAZX0DiLXjx1Wi9nuQ6PSFxstHd1o6+ql+yXw3ACBTnFGqo9ryksxZmhtIWNz/HYgm0NnT5+vzeMvL3W/z5UyFIGrP3Eapo8dQeqrZlScD5w6Zwo+vUh6zkkqf3x1GbsK+MJ5p0iZjuW1P9TWhRvueQwD2Sw27mrEd//rz5Ld7BKJCNx/8xUYXlsVCrdqv9FDa/CfX7nQOfePj+feXY0/v7HCo93b3OosR60CnZNhnTJ7Mm7+zFk+v+ZspmZHXKCiaORj0yQihAguCeVz17G4VFB3TVcopw2ztpVOfOk2xZ/DxMn15dBW4Vi1AdUJsr3W7GvHy5uafIMHAKLRCK5bNNFrd+WCsagsSUjybJGvbzmIlXtaSezUpBEsFrzHCuRaZpmt2k2uH1ZT6VyQbQN09/XTsuXMl+Ct6kFlqwX9oI43j7cru7Wzx3nUwPLRpZNx3HDxYmNWovqdWqKRCG68+CzEo+pPviy8sWqT/asCiZf7F41EcO9Nl9n2k7NOWHju3TV44K+v49qfPWovwyBfB7788dNw7omzA34l49XpJYTA5WctxPknHSPxtv/yeQvf+NX/oKWjC/l8Ht/41Z9woKU9QFdZXoL7b7kc6WSCxeDaTJ2sdeOfw03p6tarn+xNdyoCchGSaycHPVUpaimlW9v6rkuprkPI4uLkUgZyvySUnw3icKqd6Nbf98ZW9GdyNgOrgO+j04dh8tByj8+IyhQunNPgDyzC/h3XXa9tZjNS44Tg+h3RPSp2arDK9Z3u0k/O2ARQkkrwWLyxSc+4VBu1vr27137gUr6nAiAaiaIsnfTabNy1Hwfbu7x7Li7tGcdOw+ihtb4+p5yf808Z1/ypYzFz/Eh/P1nA3oOt2HngMDthj6qvwd03XCI9BW93ipW3cOM9f8CrKzfYdrUsuM+rTRszHD+5+kKf3XRJA6dfLBrB3ddfai8NpawJAHbuP4gf/u4ZPPPOajz+yvt+28GW98N//RRmjBvpw6EGKZ0/mjIu3SRBxQBZXkwFJAuQr3FpHgVapxB1jZtxKXl2pRNRrMK6+83GXmzvyATahymb2gYKvDygtP6yHirOPa29eGLlXmk5aXuKEALXnzZJeaJB4NpFE/Dw+zuRzVtSkBF48oN9uO38HoyrLWXTZQ4HQtBxg1Tuh5aObqzauluyhQ3Q/YaPFuL9C+DQyZMxWZaFx5a853w9b/lsOXJIFVLSV/wfbt9r8xLSDANg8XEzHLfglyZUIJBxuMexaBRnzp+OD7bsBuQZzQLWbt+Lmc7Apvz9otPm44X3PsTvnn/b51u5XM65XeDys5BOJvFf3/wXVJSmA7x0vsfRjhteh//8ykX415/81v520rWRELj3qVfw2MvvuTFU7jx89IRZuPoTp4ebHCV5at9Stqc+dRkjhSFGKU0FJRmMWq+2oWZsbhaXCwc+QCt8lgYsC//6xgF/nfqtEVscXt64sBTW/OBSy4Pv7kB7b0YSaTv23NFVWDSxLqDTnIYqnDKhDq9t8d80HsjmcO/rW/HTT80OdDw16AP6qMFXpSB0Uvk99NybaJJ/Q+eImTFuBMrTKd6Z3XoitVcxUH29YtMu3PrQXwo8rEL/zBrf4G0BY1kWdjQeJiHMHF/IDtTMhCs6jLPGN6Bwv7EQRHc3tZCTucsrEong9msuxltrtmDrvibIWardoMDvm5edixNnTGAxUoHApNcVZy/En99YiWfeXgV5PGRzOTS3djq+LlwmqKsqx303X4FYNBLgSSU1XCKjBlAOO2c3Kva4dIEfP6sps5pyyvRcqlrMmpaTqy3KEsB2bPma/CenxJbTTk7vhZ+XzEMVq7FFW28GD727o3C/x3I+BfCVUyYg4Tw8qbb/6mmTCrSS0P9euguHugdIWUbbEOBNA0Eub67Zgh/99zMFW0lT8XknHoNIhAlGynE+b+/k0NVr/3X29KGzpy9wfrCtE2u27sH3HvwzFt/0Uzu7smR+dv/YP/QtyGzt6CrIlehryks9GLrMXS5UJuv6p720cumFJ6etq8fjxWUJQ6rKcd/Nl9tLQ8+ePslYOHMi/s8l5wQGp3xMjSkqu5HbRSMC9950GWoqSqVxYBV83nv0QgBC4K6vXmJ8BESVw+GUl7Pq0pbrE+r2japrLEzUo6Ifl86pUVhVRgbNzU6mJSe57HHrBAozh6WcU0+xy9mahQBvblmh6vynlXuxt62nkN04kBuq0rhgTgM5u1iWhXNnDMOEIWXYdqjbZQYI4FBXPx55fxduOmOST44py/NsIc+eQKAvqZl62/6DePhvb+HuPy2xH11wMwrHRJWlaVzykQVGh3btuXVfMyZd8k0Drf1QaHdvPzK5nGQDAbmzJjUMxUWnz/fJzrg/1VHwZHL+58R0Sw/dksU9DtrZvp7Ph8sMOnr6nBin+p+tZ3dfP7K5HNnWxShj0Y0ZdfyNHlqLO665GFf95LfS5F7IWl1/vej043DJ4gUkBspGVKFwcys1jh/VV3KQi6kMijkPA8CkFFe4WcS5ikKQcY0v1ZHBK7hUKRC5hxaooGXCnc1b+PnrW1BwyEKw+NyCsaguKfxWTuWTiEZw9ckT8LU/r7bbSNd/9dY2fPnk8ShNxsi2JCavzv7csHM/pl/+HRa7jdZCe1cv2rp67B/qWoX23s4SAL564UcwZlhtoZ0aBORMV9i7HRxq6wqu1IV07IqS631rciCVjOPnN16KSufemSs3lfD9sswrbdJeUroBYMxWnRL4mY5zWJIq/NRF9ldZ1t7mFlx/9++9p9z9xbbX6q178O8PPY07r/ssIsykTemjy1JkXa88x14aPvvOapfIR9MwpBr33HApos7eXYOxVbGxQJcA6Pw8cNNdNQQXuYsJUpQRTOC1aby77JEGeDzCYRDKZ7DkLSDnLXssZfAEU3IV4/PrD2Bdo3u/p9C4LBnDVQvHsXLd9lcsGIP/eGkDWnv8XxpsOdiFv6zZj0vmj6KaB7D5mdsf/QNZbNnb5A/cFL0cPNxAL2UEi46ZjH+7/NwQE46S3boHvuDkYpCwqJmHU1FfU44Hvv55nH38zIJqjv/VV1eQ+mzbfxBnEQObGuhc1iIf7zhwyIfJPRxeW+nj46F3fCSby+Hau34f3BVUsS0A3PvkqzjruBk4Z8EsHw/T0smkgxD2YxY/v+FSvP3h1sDGgJGIwM9vvAzDaioCvAdjKy6Tp/DL9gqzkgGYHUepZaAKRDaYqpAKhjrmwIZqK2THsTv/6bNGYkw5PeOaym83deDONdKv8L0BC1ZXue6uVzdLGRw8h/zk7BEYW1PCtvcGXlkSn5032v6xNODjde8bW3Hh3AbEo/yNTB9vORh4AVgeHEo647MrHFpL4gXMGj8Kj/37l1GSShp9oMBTClJ2pT+wOLzly3Iwqy4vxacWHYtb/+XjaKinf2w9ceRQvzxHxrINO3D1J07z8OkGkerzVP2KTTslkIUyedSwgAy5PPjsm9INb+Fl8CIifGaHZSGbzeIrdz6C93/9XdRX24+/mJaGar3uePTQWjTUV9v3/TwXEEgl4pg/dSypB9fX1ERAyVZxUjGE4qOzaUwX7bisJ8w61rSuV2XponHgWmBQAhMr45hUEQ84HTW4VZqhaWoveDNuy7KwbHcr3th6sJC9SDNnU2c/rnsiuOc3VXa1KFviOjLf33kYb28/hNMmDSFnOwqf/14FlBglZZCBrMuSCC3EYzFcsngBfnrtZ5wbzzI8epKRsXtY3CWmnA15ct029sc5J8zCVR9bhJNnT/J2tuR8ZPaEBsRjMWSyWRS+lbXw9w82om8g4z34KPPQZQce4FoNJgAAEcBJREFUZKl/O3v68N667X6QsFCaSmLamOGkjwHA+p378a0HnnTqJd0F8PVLz8WLS9di1ZbdPpvsajyEG+55DI/d+mV/LGeyHSg0br1lEc8YQvIF7/5VMJiovHWZHnVdtge3cjKNdR1dICUJm5px4GXHCMvDlDoGBoc7uARNr2tvXHoqA4gKwLJh73nN/imND5fTeMnGJizZ2KQoK8mQB3AAg800nwd+/vctOHXSkOD3BWRbqc47VAKFr86CP5AJpJMJnHXcDNxyydlYOHNi4eFHQiZrPwAN9dW476bLA5u+bXf2t5JvNLuYtu8/iOOnjSs8Zc/IEkJgUsNQjKyvxk73ZQmOPXc0HsLfP9iIj54wm/U/bvCr9EuWr8P+g60Bux0zcTRqK8pIPx/IZPHlOx5Ga2cPJMYA7N0jvvf58/GpRcfitK/+xNl/qoD9ideW4ryFs3HF2QsDmLjgaNKBLZq+NAUqTlYxSY1aVDtSdDETcTGBi0v1OBlhCpnxuRlE4STQhtLB2CFKhqTqpp5vPdiFp9fsk3CggIVamgH+Oi8wCSIDKuj37NpGbGrqxLRh/r20SVtazj9HTF11OT5zxvGIGByoqqwEdZVlGD+yHidMH4/q8lLv8QVu5uXl26U8ncK5J85GNBIJtM1ZFm75xeMOXNceApt3N+Gi796PF+68GdXS4wmqTMuykEzEcPbxM/Hrp19zspdCJvO9B5/G4uNmes8U6fyOy7D6BjL48SPPSRjh9cv5J83x9vlS297xhxe8LZU9o1hAWUkKv7zlSpSkkjh+2jh8/bJznW1dHL5O19/088excOZETBhZT/o/58dc1hjIgomJMuz4N52r9WFWUaZrciG/JZRLmExJt4xU17CmElZBCaEvtdWloao+btoqEbpMvGO+Q4BfvrkNPQPuV/EChW1t5U+1rRTAvHtLTKblqJfN5XHPa1vwq0vmmR1GeP8AAA1D7F/+qxvO+XXhb5JywZGk95aiCNCqsq6/8CPY29yCn/3xpYC+S9dvx6Xf/zWevO06lBDLOln+lWcvxIPPvmHvQmAV7L18w07c8djz+KbzRQF1/8c0EO/4wwtYsXGXKxDu+rYsncLFZxxH2mvZhh344e/+qgQFu59/8K+fwuwJDZ78b1/xMTz/7odYtmEHZF853N6FL9/xMJ69/UbvrTdhlktUgCrQWUof+X2Tahs2aMl13H0orj2XXMi08vWIfMKVI71uogmb2haWhAEGRcmRP03LKo5fc1efs1+7SygDE0QAEtKfS+NrTBwXeD26bBeaOvpYJy0Uy9dULdQ9J10ary6BtUVSjftS1pURjUTwH1+6ABedfpyTHfnpXnh/La698xFkczm2n4QQOGHmBJzuvopL5iOA7//2L3hsyXve81KqTgCdfQPAIy++i9sefkbRxT655CMLMG64/5cLgP0byC/e/rD9fkaF3+lzp+K6TxdejyWEQCIewwNf/xzKSpIB7K+s2ICf/2mJz2ZyX+h8WK4L2M09J2wut+X4U+fcJ1VHZXK6Ma9eD7WneyhnZQobFAbBv1g+7rkuPQ4rW6X7/bLdaO7slwjsf+l4FDOHVzh/ldJx+D/3uSuZefdADg+8vR1qCab7UoZD3g/nfxalnnOzrVrns4Fl+TJeir97nEzE8cDXP2e/lFNtYgG/e/5t3PrQX+y33zD87J05L0YyHvPLtSz0D2TxLz9+CDfc8xiaWjsCPCgdmlo78NW7f4+rfvIQBuSXRzis66sr8J3PnR/w67xl4dYHn8aabXsKdnBwVJWV4FdfuxIxYgl5zMRR+O7nPx6QA8vCDx9+Bss37vT5sdpevaYeB84ty00Utf1E8dPVBVYrDBZu+cjJUUtMdUBOgJreUSmgzMOUhlNGDbP8dIi9VZV0oG3PzaTBQUfjkjH3DOTw67e2wbvpIATcr6yvWTQBP/n4LD1+Q/n+8+vxoxfW+5dYwsIDb2/HjadPQnkq7sPmt6UlpfzBYgriqp1U/9D1vffwLhG0uD6tKivB47dejdOvvx1b9sqbF9q8fvLo3zCsthLXfuqMwEzs4jhm4ih893Pn4zu/+XNhKSYAWBYy2RzufeoVPPn6cly6+AR8bOExmDZmOIZUlSMSiSCft9Dc1oENOxvx3Lur8diS9+znptRbBcKW+dNrL/Z2gpBt9NLStbj/6dekPij0xY+/fAEmNQwlx4QQAl+94Ew8/94a/H3lRp/Mrt4+fOmOh/Hmfd9EWToVsDmVxXBLqkIjBxfhHpxvUDIo3lwGJfPn4oncnipufeCxBkqQKQXU3eegjilwumUJAU469v752usMJ5dgh/LBzi3PrN2Pzc1d8C/rgLJUHF85eYI3k3LyuE50yzWnTMCdr2xCb8ad4e3re9t68ceVe/GvzsOoZICWU36mmPrChJW3q5vd6ftQlT9ySDWe/vFXsejaH+NwRzfk0ZTL5/F/7vsjhtdU4tOnzmP78WuXfhTLNu60Xx3vBnq4gVOg8XA77nz8Rfzsjy8hGY8hlYgjnYyjt38AfQNZ9Geytg28eztu0IMbO3H1J07DZWedGNDhUHsXrrnzEftNyZ4dbVuct3A2vnDeKaTu7nE6mcB9N1+BhVffhvauHnhBH8CqLbvxvQefxp3XfoZdrXDJhF+ecg/LwIMrpmBG8dDdb6NodD4XGFlhlnCmNrq0jwJtSnGDPBwvcmZRDlNY7MFCz2JA4QZ4gN4CLpzbgPF1ZdAVY4YHYFhFCpfOHwNvxEjvqLv39S3oz+bYSULFb5Kv1psmGTMvC/77PuZiWRamjx2B//nRtSh19ruSGfQPZPEv//EQ3li9mZ3k4rEofvftq+wn4pUYKp9bloW+/gG0dfWg8VAb2rp60dev/Mjca2PrIiLAZYtPwN3XX+L9dMYtuXweN/78D9jhPlrhZncA6msqcO9NlyPh7DDB6Q4A08eOwG1fugDC/cWGgBdY7nliCV5err7JyN9etQdbhPTpm+fotrqsJ0yyY8JlwqzKN76q/khL2HW3DFClV68FPXJwuALrbu8wGP3d8vb2w3hvZ0sgUCbjUVx/6kQIceR2E0LgulMnIhYJZiwf7m/Hko1NgfTcpwP1AlNNORr97Mn2HusI38zV5dQ5U/CrW65EIh6Db9li2Q9wfubff4l1O/b7RUrYq8pK8NR/XId/u+I858UJrh2I+zZypiEkOvlbZ8v+wfftX7kYv/3WVYjHoj68APDEq8vwhyXvyYAASyASEbjjmoswlrg5T+luWRa+/IlTcZb7EyQPt73rxZfueJi8D1dsclHoH/+yUHcPzCRD5z/F+FaYLD+iDlp1IKs31XR/FL0KJAxfqt7Hx5L+JMfW4TIa0LJ8vLjys1c3o0BUwLN46lAc01Cl1VPFQWF0z2eNqMTiqUPlFgDsm7u/+PtWZPN5mrebGRAP1nL2kWcxkw11tvVnvfQA0PUzAFy6+ATc+oVPBt8wLCw0tXTgU9/6BfYdbGWxpxNx3PbFT+P1e7+JsxfMtJ+Vkm0COFmQjD2YFcaiEVxw2ny8/ctv4ZbPnu0FKxnrrgOHccM9j8FbSrp6CuDTi+bh0sUnFuXXsWgUv7rlysLzZx4eCzsbD+GWXzyObC4faO/aQNdn0olkU+lQ4iEX3dh0j9UsKIzOJDZNe/fT+zqKy2hox9SnisXWczxVZxRCYFJlHJ2Z4BuAU1H91+9UB7r09eko5talAm1qUxGf/JaeAfRnczhjcr0KHN9YPNUZq37enGxTiQjgax+Zgv6s+jS4Pd4OtPdhZFXaq0sl4zh1ztTCk9NOmdhQD8FkodR9BOqa6gOqbsl4DKfOmYpe59VXbhk9tMaTrerN9ZUQwNcuPQedvX14f13wW1EAePyVpbj5M2eR19wyb8oYPHv7DXhn7TY88uI7eGX5+sKyzc2unITKe45XCEwYWY/Fx83A5z96EuZNHes95U8NtCdeXWpv7qeURDyGn994aWAjPG5wymXMsFrce9NlePDZNwO0zW2d+HDbHsydPCbgWzrftwmABdPGY0il/ydWyYR9P48K/l5TzT1O3TlXqHbqrQgZj+8+ed75zriYG24qHdWOouHAUEpQbQF7ZwXKLFEBkhdXJ8vOWxaIb84REQhs90EZ0mdQRZ56jZqROL1V/XW2090joSYCE0YOG6cvZRuujtJLPtfJVdvqrst8BzJZ7G5uwaotu9Hc2on27h509/ajNJVEVXkJhtZUYs7EUWior0EiFg3lS2H0KWZccPKoEiY4cP3K+ViY5aXJzip/ziZhbKXKBQBhEZqHBa8DpQLn2oUJkOp5sYNWvX4k+HQYVDpZxpEEe117Tp4Jb7H2ChOAOOxhy5EM1iORGUaPMHqF8SvdJO22DSsrbD9ypZixFxZHWBtQNGFsTgasf1YZjFOYeBTLZ7AD92iUozUIjqRdWMfn2h0p1mICn2l21/mSqR+L8aNiAoqJ95EGfi7Ih8m6w1wb7Jh08YTOnELi8QWsYjOewZawBjvaAaIYXEcaCP//Er78M+z6v9mf/2zZgwnIYZemR5pBh80GudWA70l3qqHcOIwAqh23ZqXo/m8xV7bbOAwD7UX//5v3SQEzOxedoCugaETzGFIkRRdt5zP2LtzgQnvs1nALMR896tWqwZT8dK85m7G+mZiSrZS0TIeLs3sVPTwsP1yckZctfO7O0+lpcDFdyu9k051pwoQyuNQE5eqy8dnRECvqn89TU3390J0FrUmEpkDTSs60Mkwu7T+htbhTYieflQ+qCX8S92Y1+pvza+2m4nbTgNLFnm8uoLYGNri2MW3zpdX3zecOa9tbmL743xpm51MdW+lQN0LiS1iOjJv6nK00LWxorRy77dlUMfcq5lNv09RdLJob3j1jGJm8i7mz12Bg9Blzx894Dt35oS4gtdQkmWKNfGoaYj4o/eib+qxqKcUGY4LYm+lf5cvbrzUkofncTQhs1Eu8TdI2rw1NU9xObzJ4wqYrRvWKgLxqdG9W05QVLoeTPXM6lV33upL0PcHwdKkYOPwNvdlfV/YfV1MDbZ25Gm7OpV1YB0mW/mnO7ISTfvapWZ39lMFnGHA2eSAddU49biKagXfTAPqdbj+HwTU5RVe+Mn7m35RtbvRminTNPelU8djoVPmQph/MJ5bHDCezMXNCNcp2TXmHI/mPfuOZq5ipnGkwpLxkNapwqxpLMq+GhUnnCoUtlSBu/Gz0qUKeK00Tk84CySYd1pBQVzM9Io0dlGt+7CLAglQ+u0TEwlFySHeXCepEzCwP8ExcUUxdqMddNC4H2Rmz4mc6VezVZcEuA4xPajoTsxocWJzUmSTfmE7lN9OZGpmLH9Lu+37/9zIzEKpDI8Aph59RbxMU1OtoU0+6wRVWpb+ZrtQek69p2G76RL1KNyYk81HFD+VnorEYK99UY0I/zjOUSQ2d6WGLxUHFDfcqjipH2NmpZotYVFNP54t62RkqnSweDLPKHZcjLB6qN7DmhT7j+mHAmbHpgAoqu2nTbeZuVBdwlbzpQJMfeIswGVcobLlDc40beVLxM5wtXsTHik/hTBicPdQx966gEr9rzGwle1iQ2CDSRTBpqbGxfHFn2dQl80H5xfYnJyamplYmdnfRT/+YvRdP+2sNTeK3PBOEeu54lE32+YkfSj/Ski8og7zbpvI/129hTE1umxO/gUfl4DdxbepCXSYsjw+Pk3G5i3xpYmLDTKrPSXv7GRbeeoeGBiadybrPrMNj8Nh6Yk/RUNdGDx4OxoXZTYeAvPgdcTH8is/p3NAbrApj49+Gn/nncjLFyulQed/kD36xXHHYka7OgMUPcahzUZc6fsapaX5mTUhhQn5mU+3v++7/+Fm9kjRLdXB0oNXxTSyKp8HHxnXH9ymuzfqGvk/8STrda89Gx3X9WwRKxyd5zWxufHS8Sd+WX/nZ2GG12tadm8CUnW2s/sz3Q/YumkZdlDv7J6PvE/tOlu2nnmaaU7bwNnGviJOecCJNYU30g6mRU/YwcdticfumqTT5o/JCFYfas7zCGGFM2lpo7DP55P88W8brzm2DRdlV/KzRJRlGU7l5Xdf1F/RJgcN5UzRhAAAAAElFTkSuQmCC;fillColor=#B2C9AB;strokeColor=#788AA3;fontColor=#46495D;" vertex="1" parent="1">
          <mxGeometry x="126.21000000000004" y="454" width="77.58" height="60" as="geometry" />
        </mxCell>
        <mxCell id="gX3DpapFzDHd5gNG7aPb-89" value="" style="dashed=0;outlineConnect=0;html=1;align=center;labelPosition=center;verticalLabelPosition=bottom;verticalAlign=top;shape=mxgraph.weblogos.apache;fillColor=#B2C9AB;strokeColor=#788AA3;fontColor=#46495D;" vertex="1" parent="1">
          <mxGeometry x="363.7" y="314" width="42.6" height="85.2" as="geometry" />
        </mxCell>
        <mxCell id="gX3DpapFzDHd5gNG7aPb-100" style="edgeStyle=orthogonalEdgeStyle;orthogonalLoop=1;jettySize=auto;html=1;entryX=0;entryY=0.5;entryDx=0;entryDy=0;strokeColor=#6c8ebf;fontColor=#46495D;curved=1;fillColor=#dae8fc;" edge="1" parent="1" source="gX3DpapFzDHd5gNG7aPb-44" target="gX3DpapFzDHd5gNG7aPb-42">
          <mxGeometry relative="1" as="geometry" />
        </mxCell>
      </root>
    </mxGraphModel>
  </diagram>
</mxfile>
